<svg width="48" height="48" viewBox="0 0 48 48" fill="none" xmlns="http://www.w3.org/2000/svg">
<path d="M7.83567 9.91123C7.83567 8.76498 8.76488 7.83576 9.91114 7.83576L18.2835 7.83576C19.4298 7.83576 20.359 8.76498 20.359 9.91123V18.2836C20.359 19.4299 19.4298 20.3591 18.2835 20.3591L9.91114 20.3591C8.76488 20.3591 7.83567 19.4299 7.83567 18.2836L7.83567 9.91123Z" stroke="#222222" stroke-width="2"/>
<path d="M7.83566 29.7164C7.83566 28.5701 8.76488 27.6409 9.91114 27.6409H18.2835C19.4298 27.6409 20.359 28.5701 20.359 29.7164V38.0888C20.359 39.235 19.4298 40.1642 18.2835 40.1642L9.91113 40.1642C8.76488 40.1642 7.83566 39.235 7.83566 38.0888V29.7164Z" stroke="#222222" stroke-width="2"/>
<path d="M27.6408 29.7164C27.6408 28.5701 28.57 27.6409 29.7163 27.6409L38.0887 27.6409C39.2349 27.6409 40.1641 28.5701 40.1641 29.7164L40.1641 38.0888C40.1641 39.235 39.2349 40.1642 38.0887 40.1642L29.7163 40.1642C28.57 40.1642 27.6408 39.235 27.6408 38.0888L27.6408 29.7164Z" stroke="#222222" stroke-width="2"/>
<path d="M27.6411 9.91096C27.6411 8.76471 28.5703 7.83549 29.7166 7.83549L38.089 7.83549C39.2352 7.83549 40.1645 8.76471 40.1645 9.91096V18.2834C40.1645 19.4296 39.2352 20.3588 38.089 20.3588L29.7166 20.3588C28.5703 20.3588 27.6411 19.4296 27.6411 18.2834L27.6411 9.91096Z" stroke="#1970FF" stroke-width="2" stroke-linecap="round"/>
</svg>
