<svg width="48" height="48" viewBox="0 0 48 48" fill="none" xmlns="http://www.w3.org/2000/svg">
<path d="M19.4646 21.7539V20.9982C19.4646 18.4863 21.6151 16.4639 24.286 16.4639C26.9569 16.4639 29.1074 18.4863 29.1074 20.9982V21.7539M19.4646 21.7539C18.5806 21.7539 17.8574 22.4341 17.8574 23.2654V31.0239C17.8574 31.8551 18.5806 32.5353 19.4646 32.5353H29.1074C29.9914 32.5353 30.7146 31.8551 30.7146 31.0239V23.2654C30.7146 22.4341 29.9914 21.7539 29.1074 21.7539M19.4646 21.7539H29.1074M24.286 26.5085V27.9435" stroke="#1970FF" stroke-width="2" stroke-linecap="round"/>
<path d="M43.081 13.25L33.125 19.2768" stroke="#1970FF" stroke-width="2" stroke-linecap="round" stroke-linejoin="round"/>
<path d="M24.2861 36.5537V46.5984" stroke="#1970FF" stroke-width="2" stroke-linecap="round" stroke-linejoin="round"/>
<path d="M5.80357 13.25L15.7595 19.2768" stroke="#1970FF" stroke-width="2" stroke-linecap="round" stroke-linejoin="round"/>
<path d="M23.7818 2.29393C24.0932 2.1123 24.4782 2.1123 24.7896 2.29392L43.0753 12.9606C43.3825 13.1398 43.5714 13.4687 43.5714 13.8244V35.1756C43.5714 35.5313 43.3825 35.8602 43.0753 36.0394L24.7896 46.7061C24.4782 46.8877 24.0932 46.8877 23.7818 46.7061L5.49613 36.0394C5.18891 35.8602 5 35.5313 5 35.1756V13.8244C5 13.4687 5.18891 13.1398 5.49613 12.9606L23.7818 2.29393Z" stroke="#202126" stroke-width="2" stroke-linecap="round" stroke-linejoin="round"/>
</svg>
