<svg width="48" height="48" viewBox="0 0 48 48" fill="none" xmlns="http://www.w3.org/2000/svg">
<path d="M27.217 9.20213H11.9692M43.0525 15.3525H5.99991C4.34305 15.3525 2.99991 14.0094 2.99991 12.3525V6.05176C2.99991 4.3949 4.34305 3.05176 5.9999 3.05176H43.0525C44.7093 3.05176 46.0525 4.3949 46.0525 6.05175V12.3525C46.0525 14.0093 44.7093 15.3525 43.0525 15.3525Z" stroke="#222222" stroke-width="2" stroke-linecap="round"/>
<path d="M27.217 27.9687H11.9692M43.0525 34.1191H5.99991C4.34305 34.1191 2.99991 32.776 2.99991 31.1191V24.8184C2.99991 23.1615 4.34305 21.8184 5.9999 21.8184H43.0525C44.7093 21.8184 46.0525 23.1615 46.0525 24.8184V31.1191C46.0525 32.776 44.7093 34.1191 43.0525 34.1191Z" stroke="#222222" stroke-width="2" stroke-linecap="round"/>
<path d="M21.7666 42.793H12.9353" stroke="#222222" stroke-width="2" stroke-linecap="round"/>
<path d="M35.0137 42.793H26.1824" stroke="#222222" stroke-width="2" stroke-linecap="round"/>
<path d="M23.9746 34.5137L23.9746 40.0332" stroke="#222222" stroke-width="2" stroke-linecap="round"/>
<path d="M10.7275 16.2986L10.7275 21.8181" stroke="#222222" stroke-width="2" stroke-linecap="round"/>
<path d="M37.2217 16.2988L37.2217 21.8184" stroke="#222222" stroke-width="2" stroke-linecap="round"/>
<circle cx="2.05012" cy="2.05012" r="2.05012" transform="matrix(-1 0 0 1 40.415 7.15234)" stroke="#1970FF" stroke-width="2"/>
<circle cx="2.05012" cy="2.05012" r="2.05012" transform="matrix(-1 0 0 1 40.415 25.9189)" stroke="#1970FF" stroke-width="2"/>
<circle cx="2.20782" cy="2.20782" r="2.20782" transform="matrix(-1 0 0 1 12.9355 40.585)" stroke="#1970FF" stroke-width="2"/>
<circle cx="2.20782" cy="2.20782" r="2.20782" transform="matrix(-1 0 0 1 39.4287 40.585)" stroke="#1970FF" stroke-width="2"/>
<circle cx="2.20782" cy="2.20782" r="2.20782" transform="matrix(-1 0 0 1 26.1826 40.585)" stroke="#1970FF" stroke-width="2"/>
</svg>
