<svg width="48" height="48" viewBox="0 0 48 48" fill="none" xmlns="http://www.w3.org/2000/svg">
<path d="M28 40.163L40 40.163M40 27.6397L28 27.6397M40 33.999L28 33.999M9.9114 40.163L18.2838 40.163C19.4301 40.163 20.3593 39.2338 20.3593 38.0876L20.3593 29.7152C20.3593 28.5689 19.4301 27.6397 18.2838 27.6397L9.9114 27.6397C8.76515 27.6397 7.83593 28.5689 7.83593 29.7152L7.83593 38.0876C7.83593 39.2338 8.76515 40.163 9.9114 40.163Z" stroke="#222222" stroke-width="2"/>
<path d="M7.6416 9.91145C7.6416 8.7652 8.57082 7.83598 9.71707 7.83598L38.0895 7.83598C39.2357 7.83598 40.165 8.7652 40.165 9.91145V18.2839C40.165 19.4301 39.2357 20.3593 38.0895 20.3593L9.71707 20.3593C8.57082 20.3593 7.6416 19.4301 7.6416 18.2839L7.6416 9.91145Z" stroke="#1970FF" stroke-width="2" stroke-linecap="round"/>
</svg>
