<svg width="48" height="48" viewBox="0 0 48 48" fill="none" xmlns="http://www.w3.org/2000/svg">
<path d="M22.5324 2.60789C23.3429 1.79737 24.6571 1.79737 25.4676 2.60789L31.3878 8.52808C32.1983 9.3386 32.1983 10.6527 31.3878 11.4632L25.4676 17.3834C24.6571 18.1939 23.3429 18.1939 22.5324 17.3834L16.6122 11.4632C15.8017 10.6527 15.8017 9.3386 16.6122 8.52808L22.5324 2.60789Z" stroke="#222222" stroke-width="2"/>
<path d="M8.52808 16.6122C9.3386 15.8017 10.6527 15.8017 11.4632 16.6122L17.3834 22.5324C18.1939 23.3429 18.1939 24.6571 17.3834 25.4676L11.4632 31.3878C10.6527 32.1983 9.3386 32.1983 8.52808 31.3878L2.60789 25.4676C1.79737 24.6571 1.79737 23.3429 2.60789 22.5324L8.52808 16.6122Z" stroke="#222222" stroke-width="2"/>
<path d="M22.5324 30.6166C23.3429 29.8061 24.6571 29.8061 25.4676 30.6166L31.3878 36.5368C32.1983 37.3473 32.1983 38.6614 31.3878 39.4719L25.4676 45.3921C24.6571 46.2026 23.3429 46.2026 22.5324 45.3921L16.6122 39.4719C15.8017 38.6614 15.8017 37.3473 16.6122 36.5368L22.5324 30.6166Z" stroke="#222222" stroke-width="2"/>
<path d="M37.7503 24L25.3947 11.6444C24.6214 10.8712 23.3704 10.8623 22.5863 11.6247L11.292 22.6053C10.4998 23.3755 10.4822 24.6421 11.2527 25.434L24.0003 38.5357M30.6168 25.4676L36.537 31.3878C37.3476 32.1983 38.6617 32.1983 39.4722 31.3878L45.3924 25.4676C46.2029 24.6571 46.2029 23.343 45.3924 22.5324L39.4722 16.6123C38.6617 15.8017 37.3476 15.8017 36.537 16.6123L30.6168 22.5324C29.8063 23.343 29.8063 24.6571 30.6168 25.4676Z" stroke="#1970FF" stroke-width="2" stroke-linecap="round"/>
</svg>
