<svg width="48" height="48" viewBox="0 0 48 48" fill="none" xmlns="http://www.w3.org/2000/svg">
<path d="M26.2449 31.3333C26.2449 31.3333 37.4624 31.3333 40.5 31.3333C43.5376 31.3333 46 28.8709 46 25.8333V7.5C46 4.46244 43.5376 2 40.5 2L22.1667 2C19.1291 2 16.6667 4.46243 16.6667 7.5C16.6667 10.5376 16.6667 16.0237 16.6667 19.0612M13.2245 16.6667L7.5 16.6667C4.46244 16.6667 2 19.1291 2 22.1667C2 25.2042 2 37.4624 2 40.5C2 43.5376 4.46243 46 7.5 46C7.5 46 22.7958 46 25.8333 46C28.8709 46 31.3333 43.5376 31.3333 40.5L31.3333 34.7755" stroke="#222222" stroke-width="2" stroke-linecap="round" stroke-linejoin="round"/>
<path d="M12.4387 27.678V26.9602C12.4387 24.5743 14.3912 22.6533 16.8162 22.6533C19.2413 22.6533 21.1938 24.5743 21.1938 26.9602V27.678M12.4387 27.678C11.6361 27.678 10.9795 28.3241 10.9795 29.1137V36.483C10.9795 37.2726 11.6361 37.9186 12.4387 37.9186H21.1938C21.9963 37.9186 22.653 37.2726 22.653 36.483V29.1137C22.653 28.3241 21.9963 27.678 21.1938 27.678M12.4387 27.678H21.1938M16.8162 32.1941V33.5571" stroke="#1970FF" stroke-width="2" stroke-linecap="round"/>
<path d="M28.0406 20.857L23.5508 16.8162L28.0406 12.7754" stroke="#1970FF" stroke-width="2" stroke-linecap="round" stroke-linejoin="round"/>
<path d="M34.3266 12.7755L38.8164 16.8164L34.3266 20.8572" stroke="#1970FF" stroke-width="2" stroke-linecap="round" stroke-linejoin="round"/>
</svg>
