<svg width="151" height="46" viewBox="0 0 151 46" fill="none" xmlns="http://www.w3.org/2000/svg">
<g clip-path="url(#clip0_418_9350)">
<path d="M93.657 35.9366C84.8926 42.4568 72.1892 45.9356 61.2517 45.9356C45.9157 45.9356 32.1094 40.2105 21.6643 30.6886C20.8437 29.9399 21.579 28.9194 22.5637 29.5025C33.836 36.1221 47.7736 40.1045 62.1709 40.1045C71.8806 40.1045 82.562 38.0769 92.3834 33.8692C93.8671 33.2331 95.1079 34.8499 93.657 35.9366Z" fill="white"/>
<path d="M97.3004 31.729C96.1843 30.2844 89.895 31.0465 87.072 31.3844C86.212 31.4904 86.0807 30.735 86.8554 30.1917C91.8645 26.6334 100.084 27.6605 101.042 28.8532C102.001 30.0525 100.793 38.3685 96.0859 42.3376C95.3637 42.9472 94.6744 42.6225 94.9961 41.8141C96.053 39.1503 98.423 33.1801 97.3004 31.729Z" fill="white"/>
<path d="M87.2687 5.07162V1.61273C87.2687 1.08926 87.6626 0.738068 88.1353 0.738068H103.478C103.97 0.738068 104.364 1.09588 104.364 1.61273V4.57466C104.358 5.07162 103.944 5.72099 103.209 6.74806L95.2584 18.2048C98.2127 18.1319 101.331 18.5759 104.01 20.0999C104.614 20.4445 104.778 20.9481 104.824 21.4451V25.1359C104.824 25.6395 104.272 26.2292 103.694 25.9244C98.9742 23.4263 92.7045 23.1546 87.4853 25.9509C86.9535 26.2424 86.3955 25.6593 86.3955 25.1557V21.6505C86.3955 21.0872 86.4021 20.1264 86.9601 19.2716L96.1709 5.93966H88.155C87.6626 5.93966 87.2687 5.58847 87.2687 5.07162Z" fill="white"/>
<path d="M31.3013 26.6533H26.6336C26.1871 26.6201 25.8326 26.2822 25.7998 25.8515V1.67236C25.7998 1.18864 26.2003 0.804319 26.6992 0.804319H31.0519C31.5049 0.824185 31.8659 1.17539 31.8988 1.61272V4.77344H31.9841C33.1199 1.71874 35.2535 0.294098 38.129 0.294098C41.0505 0.294098 42.8756 1.71874 44.1886 4.77344C45.3178 1.71874 47.8847 0.294098 50.6355 0.294098C52.5919 0.294098 54.7321 1.10912 56.0386 2.93797C57.5157 4.97222 57.2137 7.92752 57.2137 10.5184L57.2072 25.7786C57.2072 26.2623 56.8067 26.6533 56.3077 26.6533H51.6465C51.1804 26.6201 50.8062 26.2424 50.8062 25.7786V12.9635C50.8062 11.943 50.8981 9.39855 50.6749 8.43111C50.3269 6.80769 49.2831 6.35047 47.9307 6.35047C46.8015 6.35047 45.6198 7.11249 45.1405 8.33172C44.6613 9.55095 44.7072 11.5918 44.7072 12.9635V25.7786C44.7072 26.2623 44.3068 26.6533 43.8078 26.6533H39.1466C38.6739 26.6201 38.3063 26.2424 38.3063 25.7786L38.2997 12.9635C38.2997 10.2666 38.7396 6.29747 35.4242 6.29747C32.0695 6.29747 32.2008 10.1672 32.2008 12.9635V25.7786C32.2008 26.2623 31.8003 26.6533 31.3013 26.6533Z" fill="white"/>
<path d="M117.573 0.294098C124.5 0.294098 128.248 6.29747 128.248 13.9309C128.248 21.3059 124.106 27.1569 117.573 27.1569C110.772 27.1569 107.069 21.1535 107.069 13.6725C107.069 6.14506 110.818 0.294098 117.573 0.294098ZM117.613 5.23065C114.173 5.23065 113.956 9.96177 113.956 12.9105C113.956 15.8658 113.91 22.1739 117.573 22.1739C121.191 22.1739 121.362 17.085 121.362 13.9839C121.362 11.943 121.276 9.50457 120.666 7.5697C120.14 5.88664 119.097 5.23065 117.613 5.23065Z" fill="white"/>
<path d="M137.229 26.6533H132.581C132.115 26.6201 131.741 26.2424 131.741 25.7786L131.734 1.59284C131.774 1.14888 132.161 0.804319 132.634 0.804319H136.96C137.367 0.824185 137.702 1.1025 137.794 1.4802V5.17763H137.879C139.186 1.87114 141.017 0.294098 144.241 0.294098C146.335 0.294098 148.377 1.05612 149.69 3.14338C150.911 5.07824 150.911 8.33172 150.911 10.6708V25.8912C150.858 26.3153 150.471 26.6533 150.012 26.6533H145.331C144.904 26.6201 144.549 26.3021 144.503 25.8912V12.758C144.503 10.1142 144.805 6.24446 141.582 6.24446C140.446 6.24446 139.402 7.0131 138.884 8.17932C138.227 9.65697 138.142 11.128 138.142 12.758V25.7786C138.135 26.2623 137.728 26.6533 137.229 26.6533Z" fill="white"/>
<path d="M75.038 15.1038V14.0833C71.6636 14.0833 68.0987 14.8122 68.0987 18.8277C68.0987 20.8619 69.1426 22.2402 70.9348 22.2402C72.2479 22.2402 73.423 21.4252 74.1649 20.0999C75.084 18.4699 75.038 16.9392 75.038 15.1038ZM79.7452 26.587C79.4366 26.8653 78.9902 26.8852 78.6422 26.6997C77.0929 25.4009 76.8172 24.7979 75.9637 23.5588C73.4033 26.1961 71.5914 26.9846 68.2694 26.9846C64.3435 26.9846 61.2842 24.5395 61.2842 19.6427C61.2842 15.8194 63.339 13.2153 66.2605 11.943C68.7946 10.8166 72.3332 10.6178 75.038 10.3064V9.69674C75.038 8.57691 75.1234 7.25166 74.4734 6.28423C73.9023 5.41619 72.8125 5.05838 71.854 5.05838C70.0748 5.05838 68.4861 5.97942 68.0987 7.88778C68.0199 8.31186 67.7114 8.72931 67.2912 8.74919L62.7613 8.25885C62.3805 8.17271 61.9604 7.86127 62.0654 7.27154C63.1093 1.73201 68.0659 0.0621948 72.5039 0.0621948C74.7754 0.0621948 77.7428 0.671808 79.5351 2.40788C81.8066 4.54816 81.59 7.40406 81.59 10.5118V17.8536C81.59 20.0602 82.496 21.0276 83.3494 22.2203C83.6514 22.6444 83.7171 23.1546 83.3363 23.4727C82.3843 24.2745 80.6906 25.7654 79.7583 26.6003L79.7452 26.587Z" fill="white"/>
<path d="M13.8447 15.1038V14.0833C10.4702 14.0833 6.90537 14.8122 6.90537 18.8277C6.90537 20.8619 7.94922 22.2402 9.74149 22.2402C11.0545 22.2402 12.2296 21.4252 12.9715 20.0999C13.8906 18.4699 13.8447 16.9392 13.8447 15.1038ZM18.5518 26.587C18.2433 26.8653 17.7968 26.8852 17.4489 26.6997C15.8995 25.4009 15.6238 24.7979 14.7703 23.5588C12.21 26.1961 10.398 26.9846 7.07606 26.9846C3.15014 26.9846 0.0908203 24.5395 0.0908203 19.6427C0.0908203 15.8194 2.14569 13.2153 5.06715 11.943C7.60127 10.8166 11.1398 10.6178 13.8447 10.3064V9.69674C13.8447 8.57691 13.93 7.25166 13.2801 6.28423C12.7089 5.41619 11.6191 5.05838 10.6606 5.05838C8.88146 5.05838 7.29271 5.97942 6.90537 7.88778C6.82659 8.31186 6.51803 8.72931 6.09787 8.74919L1.56796 8.25885C1.18719 8.17271 0.767022 7.86127 0.872064 7.27154C1.91591 1.73201 6.87254 0.0621948 11.3105 0.0621948C13.5821 0.0621948 16.5495 0.671808 18.3417 2.40788C20.6133 4.54816 20.3966 7.40406 20.3966 10.5118V17.8536C20.3966 20.0602 21.3026 21.0276 22.1561 22.2203C22.458 22.6444 22.5237 23.1546 22.1429 23.4727C21.191 24.2745 19.4972 25.7654 18.565 26.6003L18.5518 26.587Z" fill="white"/>
</g>
<defs>
<clipPath id="clip0_418_9350">
<rect width="151" height="46" fill="white"/>
</clipPath>
</defs>
</svg>
