<svg width="123" height="44" viewBox="0 0 123 44" fill="none" xmlns="http://www.w3.org/2000/svg">
<path d="M61.0508 0C27.333 0 0 9.83799 0 21.9778C0 34.1155 27.3328 43.9551 61.0508 43.9551C94.7655 43.9551 122.097 34.1155 122.097 21.9778C122.097 9.83799 94.7655 0 61.0508 0ZM61.0508 1.90361C93.584 1.90361 119.953 10.8891 119.953 21.9775C119.953 33.066 93.584 42.0533 61.0508 42.0533C28.5175 42.0533 2.14683 33.066 2.14683 21.9775C2.14683 10.8891 28.5175 1.90361 61.0508 1.90361ZM45.1226 5.47396C44.2562 5.47679 43.3856 5.51204 42.5089 5.58697C36.6857 6.09395 31.1434 9.48529 31.1331 14.6336C31.1272 17.244 32.9212 19.3597 35.7015 19.2663C38.9688 19.1524 41.6511 16.4449 43.055 13.0315C43.5883 11.7364 42.6009 11.1985 42.1316 11.9441C41.2935 13.2875 40.1121 14.3303 38.8346 14.9778C37.297 15.7562 35.6542 15.5461 35.1564 14.2545C34.456 12.4333 35.9119 9.70798 39.2342 8.4252C44.0326 6.5878 49.0538 7.80308 53.885 8.74198C53.954 8.74198 54.2111 8.88956 53.9833 9.01223C53.118 9.4997 52.2669 9.89699 50.9393 11.078C49.9882 11.9209 48.7426 13.0429 47.7792 14.2651C46.8232 15.4696 46.1451 16.5441 45.2481 17.7348C45.1233 17.9067 44.9693 17.899 44.9711 17.899C42.7855 18.2808 40.6454 18.5365 38.6863 19.9459C38.2813 20.235 38.1054 20.7481 38.3511 21.1415C38.5722 21.4895 39.0767 21.5267 39.4275 21.2625C40.645 20.3208 41.8983 19.8774 43.3353 19.8365C43.3979 19.8405 43.4279 19.8516 43.4457 19.8911C43.4569 19.9139 43.45 19.961 43.4241 19.9964C41.2712 23.0854 40.7327 23.7832 39.1131 25.6987C38.2849 26.6829 37.4695 27.5138 36.5591 28.3784C32.8818 31.9121 28.927 31.8511 27.508 29.6352C26.6603 28.3059 26.7721 26.9102 27.3276 25.7522C28.0116 24.3337 29.3946 23.2948 30.5439 22.6877C30.9704 22.4623 31.0937 21.8977 30.6664 21.3835C30.3944 21.048 29.7358 20.9888 29.2454 21.0817C27.739 21.3694 25.9594 22.5469 24.9077 23.9642C23.7227 25.5546 23.1307 27.4856 23.3292 29.652C23.6862 33.5617 26.7987 35.8204 30.332 35.7942C33.1437 35.7714 35.7928 34.8907 38.9797 31.5442C41.9505 28.4234 44.6564 23.7618 47.1905 19.4391C47.2698 19.301 47.3268 19.2266 47.7116 19.1771C49.3013 18.9715 51.6479 18.7371 53.1525 18.6472C53.4869 18.6286 53.5543 18.6323 53.6887 18.8052C54.0809 19.3166 54.6691 19.7503 55.1409 20.0145C55.3704 20.1434 55.4801 20.2078 55.6605 20.2115C55.8833 20.2162 56.0566 20.0922 56.1685 19.9607C56.3282 19.7797 56.3726 19.5431 56.2861 19.3907C56.1962 19.2306 55.1466 18.6287 55.1159 18.3855C55.0925 18.2338 55.2535 18.1972 55.2535 18.1972C56.0244 17.947 56.8268 17.4325 57.3129 16.4695C57.7907 15.5206 57.8682 14.2551 56.9946 13.5513C56.2272 12.9333 55.0685 13.031 54.1437 13.8891C53.2398 14.7227 52.9402 15.9343 53.0626 16.997C53.0842 17.1808 53.075 17.2435 52.8324 17.2644C51.4419 17.3794 50.102 17.419 48.6127 17.5008C48.5128 17.5082 48.4812 17.4402 48.5392 17.3689C50.2547 14.2859 52.8161 12.091 55.6493 9.929C55.8371 9.78332 55.7798 9.5064 55.7724 9.27498C60.8877 10.4246 65.8309 12.5642 71.1379 12.5187C73.3323 12.5001 75.4336 12.1546 77.442 11.0151C79.2083 10.0186 79.9247 9.09693 79.9772 8.13943C80.0186 7.47725 79.5736 7.05901 78.9397 7.2012C73.5775 8.47585 68.4627 8.4614 63.1276 7.79341C57.0347 7.02879 51.1875 5.4541 45.1226 5.47396ZM55.8254 14.4076C55.9507 14.4146 56.0678 14.458 56.1628 14.542C56.4454 14.7916 56.3119 15.4147 56.0264 15.8462C55.7144 16.3218 55.1854 16.7329 54.7029 16.8328C54.6061 16.8514 54.5224 16.8087 54.4824 16.5869C54.4037 16 54.5888 15.2134 55.1948 14.6597C55.3849 14.4859 55.6165 14.3959 55.8254 14.4076ZM98.8717 14.5214C97.8968 14.5214 96.618 14.5237 95.6022 14.5237C95.36 14.5237 95.2348 14.5544 95.1207 14.7867C94.746 15.53 90.1765 22.6125 89.3258 23.988C89.1827 24.1975 89.0079 24.1684 88.9877 23.9298C88.9016 23.1129 88.2192 22.174 87.1448 21.7249C86.3258 21.381 85.525 21.3189 84.6928 21.4332C83.1902 21.6418 81.8512 22.4624 80.6739 23.3867C78.8997 24.7822 77.3693 26.5901 75.3932 27.9261C74.3143 28.6531 72.8375 29.2872 71.8491 28.3406C70.9547 27.483 71.0555 25.5774 72.424 24.1041C72.5684 23.9498 72.7413 24.0786 72.7141 24.2174C72.5852 24.884 72.7439 25.5466 73.2327 26.0113C73.8298 26.5645 74.6841 26.6275 75.4155 26.2583C76.2785 25.8159 76.7857 24.962 76.9335 23.9926C77.1626 22.4887 76.0434 21.1621 74.6431 21.0559C73.5055 20.9734 72.4147 21.3827 71.3518 22.2905C70.8192 22.7475 70.5158 23.0855 70.0553 23.7635C69.943 23.9301 69.7704 23.9472 69.7758 23.7007C69.8293 21.7752 69.059 20.6921 67.5198 20.6566C66.3257 20.6275 65.0494 21.2973 64.0547 22.1177C62.9644 23.0234 62.0111 24.2238 60.9894 25.3516C60.8623 25.4906 60.7511 25.4841 60.7156 25.2146C60.6849 23.939 60.3744 22.7031 59.8036 21.826C59.6017 21.5207 59.177 21.3694 58.8198 21.5759C58.655 21.6693 58.0806 21.9422 57.6635 22.2902C57.4559 22.4668 57.3757 22.7222 57.4664 23.05C58.0179 24.9555 57.8964 27.1223 57.1493 28.9525C56.4631 30.6284 55.1289 32.1405 53.5612 32.6519C52.5283 32.9904 51.4542 32.8246 50.79 31.8776C49.8773 30.5702 50.2458 28.2971 51.6057 26.4093C52.8066 24.7476 54.5425 23.6916 56.2747 23.0117C56.4787 22.9304 56.5206 22.7952 56.4631 22.6161C56.3687 22.321 56.2191 21.9206 56.1573 21.7373C55.9985 21.3003 55.5534 21.2288 55.0106 21.2902C53.7522 21.4417 52.6172 21.8876 51.4958 22.5085C48.5596 24.1349 47.0872 27.2832 46.4416 28.9672C46.1312 29.7758 45.8654 30.2808 45.5219 30.7283C45.059 31.3301 44.4784 31.8776 43.4155 32.843C43.3196 32.9315 43.2479 33.1163 43.3286 33.2878C43.4371 33.5201 43.9896 34.327 44.1455 34.399C44.3187 34.4871 44.5196 34.3643 44.5998 34.3044C45.3435 33.783 46.2328 32.957 46.6684 32.3966C46.8209 32.2047 46.9777 32.2853 47.0585 32.5766C47.4649 34.0759 48.5289 35.2999 49.9998 35.8118C52.6922 36.7512 55.4854 35.3915 57.5932 33.025C58.9331 31.5211 59.4166 30.5537 59.9296 29.8961C60.7997 28.7806 62.5164 26.2856 64.5607 24.6836C65.3106 24.0932 66.1981 23.6427 66.6442 23.9417C67.0023 24.1812 67.118 24.7396 66.5434 25.8205C64.4591 29.7576 61.3918 34.3836 60.8293 35.5056C60.7266 35.7003 60.8159 35.8532 61.013 35.8532C62.1036 35.8478 63.1851 35.8503 64.1753 35.8503C64.3402 35.8422 64.4142 35.7646 64.4966 35.6442C66.0962 33.054 67.6018 30.5884 69.2156 28.0398C69.3059 27.8897 69.3893 28.0059 69.3928 28.0717C69.4261 28.663 69.5666 29.4721 69.9058 30.0032C70.5157 30.9853 71.3803 31.4071 72.3391 31.4134C73.1019 31.4224 73.4875 31.3025 74.3101 30.9849C74.9795 30.7281 75.517 30.3908 75.9294 30.086C76.1702 29.9131 76.2125 30.2027 76.2062 30.2471C75.8364 32.3033 76.2932 34.7397 78.2693 35.75C80.6336 36.9556 83.2315 35.261 84.7262 33.731C84.8722 33.5835 85.0295 33.5991 85.0443 33.9167C85.076 34.5008 85.3311 35.1942 85.7984 35.6794C87.0509 36.9796 89.5785 36.4644 92.1148 34.4337C93.7434 33.1335 95.4474 31.2967 96.9868 29.3512C97.0439 29.2764 97.0862 29.1546 96.9762 29.0326C96.7419 28.7789 96.4024 28.4883 96.1703 28.2646C96.0641 28.1716 95.9087 28.1985 95.8191 28.2685C94.2415 29.8205 92.8213 31.5902 90.7686 33.0543C90.0763 33.5538 88.9732 33.957 88.4774 33.2635C88.2845 32.9944 88.3063 32.6212 88.4967 32.1326C89.0958 30.5882 98.5711 15.6671 99.0631 14.7867C99.1473 14.6338 99.0586 14.5214 98.8717 14.5214ZM85.5946 23.8504C85.8427 23.8482 86.075 23.8975 86.2865 24.0027C87.4535 24.5787 87.0812 25.9763 86.5591 27.0737C86.52 27.1585 86.5174 27.2305 86.5381 27.3C86.5574 27.4143 86.7012 27.5247 86.8423 27.5772C86.8915 27.5963 86.9195 27.6334 86.8633 27.7533C86.4601 28.6464 86.0902 29.1614 85.5852 29.9372C85.1211 30.6543 84.5976 31.2138 83.9639 31.7516C83.0084 32.5697 81.6811 33.4603 80.5838 32.8616C80.0963 32.5997 79.8859 31.8947 79.8956 31.3234C79.9209 29.7174 80.6095 28.0685 81.8847 26.4481C83.1481 24.8395 84.5196 23.8601 85.5946 23.8504Z" fill="white"/>
</svg>
