<svg width="123" height="39" viewBox="0 0 123 39" fill="none" xmlns="http://www.w3.org/2000/svg">
<path d="M69.5912 0.289826C68.4801 0.679829 67.6071 1.45983 67.121 2.51694C66.8333 3.13274 66.8135 3.26616 66.8135 4.26169C66.8135 5.26749 66.8333 5.38038 67.1309 6.0167C68.3313 8.54145 71.5951 9.12646 73.4998 7.14566C74.4125 6.2117 74.839 4.83643 74.6109 3.57406C74.3728 2.21931 73.5395 1.10062 72.3391 0.505354C71.8729 0.2693 71.605 0.217983 70.8808 0.187194C70.3253 0.166668 69.8392 0.207721 69.5912 0.289826Z" fill="white"/>
<path d="M0 20.5293V38.5412H3.86894H7.73788L7.75772 31.1722L7.78749 23.8135H15.5254H23.2633L23.293 31.1722L23.3129 38.5412H27.1818H31.0507V20.5293V2.51733H27.1818H23.3129V9.85554V17.1937L15.5551 17.1732L7.78749 17.1424L7.75772 9.82475L7.73788 2.51733H3.86894H0V20.5293Z" fill="white"/>
<path d="M119.64 9.04474C116.486 10.0095 114.006 11.7645 112.131 14.3611C111.258 15.5721 110.236 17.6556 109.879 18.9385C109.323 20.9603 109.323 21.0527 109.323 30.1459V38.5412H112.696H116.059L116.099 30.1049C116.129 20.714 116.109 21.1245 116.823 19.6056C117.765 17.6043 119.621 16.1572 121.803 15.7056C122.081 15.644 122.13 15.5927 122.081 15.4182C122.061 15.295 121.803 13.8274 121.525 12.1648C121.248 10.5021 121 9.055 120.97 8.95237C120.9 8.71632 120.652 8.73684 119.64 9.04474Z" fill="white"/>
<path d="M90.9208 10.7279C87.5479 11.0255 84.5222 12.4727 82.1314 14.9358C80.1473 16.9782 78.947 19.2772 78.3517 22.1509C78.074 23.5261 78.0541 26.0406 78.3021 27.3851C78.8577 30.2793 80.1969 32.8451 82.2207 34.867C83.7881 36.4373 85.415 37.4841 87.4289 38.2231C89.0062 38.7978 90.1272 38.9826 92.0121 38.9928C94.6211 39.0031 96.4961 38.5412 98.7083 37.3507C101.268 35.9754 103.45 33.6765 104.72 31.0183C104.928 30.5872 105.077 30.2178 105.057 30.1972C105.028 30.1767 103.758 29.9407 102.23 29.6738C100.702 29.3967 99.3631 29.1607 99.2539 29.1401C99.1051 29.1093 98.996 29.1914 98.8373 29.4891C97.9147 31.1825 96.0397 32.5988 94.0458 33.112C93.3414 33.2967 93.014 33.3275 91.9625 33.2762C90.2859 33.2044 89.2245 32.8349 87.8455 31.8188C86.2583 30.6591 84.9885 28.6064 84.6611 26.7077L84.6016 26.328H95.3156H106.03L106.089 25.4762C106.248 23.444 105.712 20.8167 104.7 18.6716C102.23 13.4477 96.6449 10.225 90.9208 10.7279ZM94.5418 16.8858C96.2977 17.5016 97.6568 18.5587 98.6786 20.1188C99.1051 20.7859 99.3333 21.2169 99.4424 21.5761L99.5119 21.8122H92.27H85.0182L85.3258 21.1656C86.4071 18.9487 88.2027 17.3887 90.3752 16.7832C91.526 16.4548 93.4505 16.5061 94.5418 16.8858Z" fill="white"/>
<path d="M46.2291 10.8715C43.2927 11.4257 40.8225 12.7292 38.7988 14.8229C36.8246 16.8755 35.5846 19.2155 34.9993 22.0379C34.7116 23.4542 34.6917 26.02 34.9596 27.4569C36.0508 33.2453 40.3265 37.6585 45.991 38.808C47.3204 39.0851 49.8302 39.0543 51.1595 38.7669C52.3897 38.4898 53.6595 38.0383 54.6912 37.5046L55.4551 37.1043V37.8227V38.5411H58.9272H62.3993V24.8911V11.241H59.0264H55.6535V11.9594C55.6535 12.3494 55.6336 12.6778 55.6039 12.6778C55.5741 12.6778 55.1872 12.4828 54.7309 12.257C53.6595 11.6926 52.8559 11.3847 51.6456 11.0665C50.7925 10.851 50.3659 10.8099 48.8084 10.7689C47.5485 10.7484 46.7351 10.7791 46.2291 10.8715ZM50.7528 16.8858C52.3897 17.3066 54.0365 18.3842 55.0583 19.6876C56.1396 21.0732 56.7348 22.6639 56.8142 24.4395C56.9332 26.995 56.09 29.1093 54.2448 30.8951C52.8956 32.1985 51.1595 32.9477 49.2548 33.0709C45.4851 33.2966 42.1023 30.7822 41.0507 26.9745C40.763 25.9174 40.7432 23.9571 41.011 22.8897C41.7451 19.975 43.9871 17.6555 46.8243 16.896C47.866 16.6087 49.6814 16.6087 50.7528 16.8858Z" fill="white"/>
<path d="M67.1611 24.8912V38.5412H70.7325H74.3038V24.8912V11.2411H70.7325H67.1611V24.8912Z" fill="white"/>
</svg>
