<svg width="123" height="30" viewBox="0 0 123 30" fill="none" xmlns="http://www.w3.org/2000/svg">
<path d="M61.7406 0.898695C55.6405 1.2988 50.9426 4.6759 49.0062 10.0583C48.4052 11.7302 48.1334 13.2544 48.0904 15.1835C48.0523 16.8744 48.1811 18.1652 48.5292 19.5799C49.7693 24.6336 53.2033 28.1965 58.0538 29.473C61.2923 30.3209 65.3511 30.1351 68.4273 28.9919C70.2254 28.3251 71.704 27.4058 73.0155 26.1388C74.0648 25.1195 74.847 24.0668 75.5004 22.7807C76.5163 20.7754 77.0457 18.6558 77.165 16.0742C77.3319 12.5875 76.5306 9.40097 74.8566 6.84791C72.6483 3.47558 69.2572 1.49409 64.8407 0.984432C64.235 0.917747 62.3034 0.86059 61.7406 0.898695ZM63.7294 6.96699C66.9822 7.62907 68.9901 11.3444 68.7278 16.2171C68.5704 19.075 67.7644 21.2137 66.3193 22.5855C65.3511 23.5048 64.2541 23.9525 62.8614 24.0049C61.1635 24.0668 59.8376 23.5381 58.6977 22.3521C57.5769 21.1898 56.8805 19.618 56.5562 17.5317C56.4131 16.5981 56.3988 14.5071 56.5324 13.564C56.8328 11.4634 57.5816 9.74392 58.712 8.56742C59.5514 7.69099 60.4051 7.20515 61.526 6.96699C62.1078 6.83838 63.1046 6.84315 63.7294 6.96699Z" fill="white"/>
<path d="M0 15.4455V29.5445H9.68197H19.3639V26.4008V23.2571L13.6788 23.2476L7.98881 23.2333L7.97451 12.2875L7.96497 1.3465H3.98248H0V15.4455Z" fill="white"/>
<path d="M23.9424 15.4455V29.5445H33.8867H43.831V26.4484V23.3524H37.8453H31.8597V20.7564V18.1605H37.2014H42.5432V15.1121V12.0636L37.2157 12.0541L31.8835 12.0398L31.8692 9.76301L31.8597 7.49097H37.5353H43.2109V4.41872V1.34647H33.5767H23.9424V15.4455Z" fill="white"/>
<path d="M81.8916 15.4455V29.5445H85.5211H89.1507L89.1268 22.7903C89.1125 19.0798 89.0792 15.4074 89.0505 14.6357C88.9933 13.0401 88.917 11.2968 88.8693 10.5013C88.8407 9.98688 88.8454 9.96782 88.9408 9.96782C89.0171 9.96782 89.0696 10.044 89.1888 10.3346C90.1427 12.6304 91.6213 15.6312 93.8057 19.7085C94.4352 20.885 95.8756 23.5762 97.006 25.6863L99.0568 29.5207L103.23 29.535L107.408 29.5445V15.4455V1.34647H103.779H100.144L100.173 6.42878C100.187 9.22953 100.221 12.0493 100.249 12.7067C100.354 15.1168 100.502 17.2031 100.683 18.894C100.798 19.9133 100.798 19.8752 100.712 19.8752C100.674 19.8752 100.578 19.7181 100.492 19.5037C98.8088 15.4217 97.6021 12.9877 93.82 6.02391L91.2731 1.34647H86.5847H81.8916V15.4455Z" fill="white"/>
<path d="M114.228 15.4455V29.5445H118.162H122.097V15.4455V1.34647H118.162H114.228V15.4455Z" fill="white"/>
</svg>
