<svg width="108" height="58" viewBox="0 0 108 58" fill="none" xmlns="http://www.w3.org/2000/svg">
<path d="M103.452 47.455L95.5734 55.3744H1.4834V9.68891L9.36249 1.79312V47.455H103.452Z" fill="white"/>
<path d="M101.725 5.27771C102.057 5.25779 102.31 5.21884 102.467 5.12101C102.642 5.00417 102.741 4.80761 102.741 4.53406C102.741 4.2596 102.642 4.04403 102.447 3.92718C102.291 3.82935 102.037 3.77048 101.725 3.75055V3.30037C102.272 3.3203 102.681 3.41812 102.975 3.59385C103.248 3.7904 103.404 4.08388 103.404 4.49511C103.404 4.78859 103.306 5.04311 103.131 5.25779C102.935 5.45434 102.701 5.57119 102.388 5.63007L103.346 7.60741H102.603L101.725 5.74782V5.27771ZM101.725 9.25143C102.135 9.2315 102.545 9.13367 102.935 8.95795C103.404 8.7623 103.814 8.48784 104.166 8.13549C104.517 7.78314 104.791 7.39183 104.967 6.94166C105.143 6.5105 105.24 6.02137 105.24 5.51231C105.24 5.00417 105.143 4.53406 104.967 4.08388C104.771 3.61378 104.517 3.22247 104.166 2.87012C103.814 2.51777 103.424 2.24331 102.975 2.06759C102.564 1.89096 102.154 1.81306 101.725 1.79313V2.20436C102.095 2.22429 102.467 2.30219 102.799 2.43987C103.209 2.61559 103.56 2.85019 103.893 3.18352C104.186 3.477 104.42 3.82935 104.595 4.24058C104.752 4.65091 104.83 5.08206 104.83 5.53224C104.83 5.98242 104.752 6.41267 104.595 6.80488C104.439 7.19618 104.205 7.54853 103.893 7.84201C103.56 8.15541 103.189 8.40994 102.78 8.58567C102.447 8.72244 102.075 8.80125 101.725 8.82027V9.25143ZM101.51 3.75055H100.709V5.27771H101.51C101.588 5.27771 101.646 5.27771 101.725 5.27771V5.74782L101.705 5.70797H100.709V7.60741H100.045V3.30037H101.627C101.646 3.30037 101.686 3.30037 101.725 3.30037V3.75055C101.646 3.75055 101.568 3.75055 101.51 3.75055ZM101.725 1.79313V2.20436C101.646 2.20436 101.588 2.20436 101.51 2.20436C101.08 2.20436 100.65 2.28317 100.26 2.43987C99.8694 2.59566 99.5178 2.85019 99.2051 3.14367C98.8725 3.477 98.6384 3.84838 98.4631 4.2596C98.2869 4.65091 98.2091 5.08206 98.2091 5.51231C98.2091 5.96249 98.2869 6.37372 98.4631 6.78495C98.6195 7.17626 98.8725 7.52861 99.1852 7.86194C99.4979 8.17444 99.8495 8.40994 100.26 8.58567C100.65 8.74237 101.08 8.84019 101.51 8.84019C101.588 8.84019 101.646 8.84019 101.725 8.82027V9.25143C101.646 9.25143 101.588 9.25143 101.51 9.25143C101.022 9.25143 100.534 9.1536 100.084 8.95795C99.6353 8.78132 99.244 8.50777 98.8924 8.13549C98.5408 7.78314 98.2679 7.39183 98.0727 6.94166C97.8964 6.49148 97.7988 6.00235 97.7988 5.51231C97.7988 5.02319 97.8964 4.55399 98.0926 4.08388C98.2679 3.6337 98.5607 3.22247 98.9123 2.85019C99.244 2.49784 99.6543 2.24331 100.084 2.04766C100.534 1.87194 101.002 1.77411 101.51 1.77411C101.588 1.77411 101.646 1.77411 101.725 1.79313Z" fill="white"/>
<path d="M28.1804 5.91268C34.4607 6.73695 37.9321 10.3302 38.0695 16.6019C38.0695 16.6708 38.0695 16.7161 38.0695 16.7849V17.2885C38.0008 23.1934 34.8955 26.8555 28.1804 27.6336V20.5611C29.9166 20.2405 31.1954 19.3483 31.1728 16.7387C31.1728 14.1527 29.9166 13.4434 28.1804 13.2605V5.91268ZM17.2646 5.72971H25.3037C26.3078 5.75235 27.2676 5.79855 28.1804 5.91268V13.2605C27.2676 13.1681 26.24 13.2143 25.1663 13.2143V20.7215C26.2165 20.7215 27.2676 20.7215 28.1804 20.5611V27.6336C27.2441 27.7486 26.24 27.7939 25.1663 27.7939V39.581H17.2646V5.72971Z" fill="white"/>
<path d="M87.6719 5.70706L95.5736 5.68442V39.5357L87.6719 39.5583V5.70706Z" fill="white"/>
<path d="M48.8937 19.3256H57.7552V25.8944H48.8937V33.0357H57.7552V39.581H41.0381V5.72971H57.7552L57.7091 12.2759H48.8937V19.3256Z" fill="white"/>
<path d="M72.8735 5.91268C79.1529 6.73695 82.6478 10.3302 82.7843 16.6019C82.8756 21.0421 81.4142 24.2921 78.1027 26.1001L85.548 39.513L76.9152 39.5357L72.8735 32.2567V20.5611C74.6313 20.2405 75.8876 19.3483 75.8876 16.7387C75.8876 14.1527 74.6313 13.4434 72.8735 13.2605V5.91268ZM62.0029 5.72971H70.0185C71.0235 5.75235 71.9824 5.79855 72.8735 5.91268V13.2605C71.9824 13.1681 70.9322 13.2143 69.8811 13.2143V20.7215C70.9322 20.7215 71.9824 20.7215 72.8735 20.5611V32.2567L70.4062 27.7939C70.2471 27.7939 70.0637 27.7939 69.8811 27.7939V39.581H62.0029V5.72971Z" fill="white"/>
</svg>
