<svg width="214" height="34" viewBox="0 0 214 34" fill="none" xmlns="http://www.w3.org/2000/svg">
<g clip-path="url(#clip0_418_9367)">
<path d="M0 0H68.8567L64.7915 2.14612L64.7837 16.6036L57.959 29.5435L60.5613 34L0 0Z" fill="white"/>
<path d="M165.502 5.18445H165.421L161.705 12.1755H169.087L165.502 5.18445ZM159.534 16.2293L157.904 19.9688H149.545L159.624 0.0615501H170.873L181.222 19.9688H172.819L171.217 16.2293H159.534Z" fill="white"/>
<path d="M112.612 5.18445H112.531L108.814 12.1755H116.196L112.612 5.18445ZM106.643 16.2293L105.014 19.9688H96.6514L106.73 0.0615501H117.981L128.33 19.9688H119.927L118.325 16.2293H106.643Z" fill="white"/>
<path d="M196.251 0.063139H203.839L195.95 8.25125L205.79 19.9704H197.657L187.402 8.27336L187.34 11.337V19.9704H181.222V0.063139H187.34V8.27336H187.402L196.251 0.063139Z" fill="white"/>
<path d="M207.787 19.9704H214V0.0615845H207.787V19.9704Z" fill="white"/>
<path d="M149.13 4.63964V0.063139H128.393V4.25905H139.86L128.502 15.2313V19.9704H149.281V15.9624H137.997L149.13 4.63964Z" fill="white"/>
<path d="M101.649 -3.05176e-05H93.7055L88.4917 7.01474L83.281 -3.05176e-05H75.3389L85.3416 13.4452V19.9704H91.4955V13.4452L101.649 -3.05176e-05Z" fill="white"/>
</g>
<defs>
<clipPath id="clip0_418_9367">
<rect width="214" height="34" fill="white"/>
</clipPath>
</defs>
</svg>
