<svg width="143" height="137" viewBox="0 0 143 137" fill="none" xmlns="http://www.w3.org/2000/svg">
<path d="M161.474 -19.5C204.479 -19.5 239.341 15.3222 239.341 58.2764C239.341 101.231 204.479 136.053 161.474 136.053C118.469 136.053 83.6074 101.23 83.6074 58.2764C83.6075 15.3223 118.469 -19.4998 161.474 -19.5Z" stroke="#9E9E9E"/>
<path d="M185.233 -19.5C228.238 -19.5 263.1 15.3222 263.1 58.2764C263.1 101.231 228.238 136.053 185.233 136.053C142.228 136.053 107.367 101.23 107.367 58.2764C107.367 15.3223 142.228 -19.4998 185.233 -19.5Z" stroke="#9E9E9E"/>
<path d="M78.3662 -19.5C121.371 -19.5 156.233 15.3222 156.233 58.2764C156.233 101.231 121.371 136.053 78.3662 136.053C35.3613 136.053 0.5 101.23 0.5 58.2764C0.50005 15.3223 35.3614 -19.4998 78.3662 -19.5Z" stroke="#9E9E9E"/>
<path d="M135.347 -19.5C178.352 -19.5 213.214 15.3222 213.214 58.2764C213.214 101.231 178.352 136.053 135.347 136.053C92.3418 136.053 57.4805 101.23 57.4805 58.2764C57.4805 15.3223 92.3418 -19.4998 135.347 -19.5Z" stroke="#101010"/>
<path d="M106.86 -19.5C149.865 -19.5 184.727 15.3222 184.728 58.2764C184.728 101.231 149.865 136.053 106.86 136.053C63.8555 136.053 28.9941 101.23 28.9941 58.2764C28.9942 15.3223 63.8555 -19.4998 106.86 -19.5Z" stroke="#9E9E9E"/>
</svg>
