<svg width="226" height="168" viewBox="0 0 226 168" fill="none" xmlns="http://www.w3.org/2000/svg">
<path d="M159.699 -59.5412C124.182 -75.5352 78.4878 -51.3908 57.7337 -5.30354C36.9797 40.7839 49.187 91.0022 84.7043 106.996C120.222 122.991 165.917 98.8466 186.671 52.7591C207.425 6.67167 195.217 -43.5472 159.699 -59.5412Z" stroke="#9E9E9E" stroke-width="0.865741"/>
<path d="M140.036 -68.3928C104.519 -84.3867 58.8247 -60.2423 38.0707 -14.1551C17.3166 31.9323 29.524 82.1506 65.0412 98.1448C100.559 114.139 146.254 89.995 167.008 43.9075C187.761 -2.17989 175.553 -52.3987 140.036 -68.3928Z" stroke="#9E9E9E" stroke-width="0.865741"/>
<path d="M228.498 -28.5618C192.981 -44.5557 147.287 -20.4113 126.533 25.676C105.779 71.7634 117.986 121.982 153.503 137.976C189.021 153.97 234.715 129.826 255.47 83.7386C276.223 37.6512 264.015 -12.5677 228.498 -28.5618Z" stroke="#9E9E9E" stroke-width="0.865741"/>
<path d="M181.317 -49.8049C145.8 -65.7988 100.106 -41.6544 79.3519 4.43279C58.5979 50.5202 70.8052 100.739 106.322 116.733C141.84 132.727 187.535 108.583 208.289 62.4954C229.043 16.408 216.835 -33.8108 181.317 -49.8049Z" stroke="#101010" stroke-width="0.865741"/>
<path d="M204.907 -39.1838C169.39 -55.1777 123.696 -31.0333 102.942 15.0539C82.1877 61.1413 94.3951 111.36 129.912 127.354C165.43 143.348 211.125 119.204 231.879 73.1165C252.633 27.0291 240.425 -23.1897 204.907 -39.1838Z" stroke="#9E9E9E" stroke-width="0.865741"/>
</svg>
