<svg width="587" height="554" viewBox="0 0 587 554" fill="none" xmlns="http://www.w3.org/2000/svg">
<path d="M428.987 -56.8534C333.48 -99.8621 210.673 -34.9268 154.912 88.8997C99.1503 212.726 131.924 347.722 227.432 390.731C322.939 433.74 445.746 368.804 501.507 244.978C557.269 121.151 524.495 -13.8446 428.987 -56.8534Z" stroke="#1970FF" stroke-width="2"/>
<path d="M376.175 -80.6268C280.667 -123.636 157.86 -58.7003 102.099 65.1262C46.3378 188.953 79.1118 323.949 174.619 366.958C270.127 409.966 392.934 345.031 448.695 221.205C504.456 97.3781 471.682 -37.6181 376.175 -80.6268Z" stroke="#1970FF" stroke-width="2"/>
<path d="M613.766 26.3517C518.259 -16.6571 395.452 48.2782 339.691 172.105C283.93 295.931 316.704 430.927 412.211 473.936C507.719 516.945 630.525 452.01 686.287 328.183C742.048 204.357 709.274 69.3605 613.766 26.3517Z" stroke="#1970FF" stroke-width="2"/>
<path d="M487.05 -30.703C391.542 -73.7118 268.735 -8.77646 212.974 115.05C157.213 238.877 189.987 373.873 285.494 416.881C381.002 459.89 503.809 394.955 559.57 271.128C615.331 147.302 582.557 12.3058 487.05 -30.703Z" stroke="white" stroke-width="2"/>
<path d="M550.405 -2.17663C454.898 -45.1854 332.091 19.7499 276.33 143.576C220.568 267.403 253.342 402.399 348.85 445.408C444.357 488.416 567.164 423.481 622.925 299.655C678.687 175.828 645.913 40.8321 550.405 -2.17663Z" stroke="#1970FF" stroke-width="2"/>
</svg>
