<svg width="202" height="24" viewBox="0 0 202 24" fill="none" xmlns="http://www.w3.org/2000/svg">
<g clip-path="url(#clip0_15373_2061)">
<path fill-rule="evenodd" clip-rule="evenodd" d="M0 0H21.3637C22.3018 0.00287589 23.2006 0.360582 23.864 0.995052C24.5273 1.62952 24.9013 2.48923 24.9043 3.3865H0V0Z" fill="#101010"/>
<path fill-rule="evenodd" clip-rule="evenodd" d="M177.096 6.7998H193.835C196.561 6.7998 198.79 8.32127 198.79 10.1808H177.124L177.096 6.7998Z" fill="#101010"/>
<path fill-rule="evenodd" clip-rule="evenodd" d="M72.6035 6.7948H82.051C84.7763 6.7948 87.0056 8.31627 87.0056 10.1813H72.6035V6.7948Z" fill="#101010"/>
<path fill-rule="evenodd" clip-rule="evenodd" d="M77.2959 10.1922H67.8484C65.1231 10.1922 62.8938 8.67076 62.8938 6.80573H77.2959V10.1922Z" fill="#101010"/>
<path fill-rule="evenodd" clip-rule="evenodd" d="M177.096 24H198.459C199.398 23.9971 200.296 23.6394 200.96 23.0049C201.623 22.3704 201.997 21.5107 202 20.6135H177.096V24Z" fill="#101010"/>
<path d="M114.983 0.00585938H90.0791V3.40872H114.983V0.00585938Z" fill="#101010"/>
<path fill-rule="evenodd" clip-rule="evenodd" d="M34.5631 0H52.3861C53.3243 0.00287589 54.2231 0.360582 54.8864 0.995052C55.5498 1.62952 55.9238 2.48923 55.9268 3.3865H31.0225C31.024 2.48879 31.3975 1.62825 32.0612 0.993471C32.7248 0.358691 33.6245 0.00144211 34.5631 0Z" fill="#101010"/>
<path fill-rule="evenodd" clip-rule="evenodd" d="M149.591 6.7998H167.414C168.352 6.80124 169.251 7.15774 169.914 7.79135C170.578 8.42495 170.952 9.28408 170.955 10.1808H146.051C146.055 9.28452 146.43 8.42622 147.093 7.79293C147.756 7.15963 148.654 6.80267 149.591 6.7998Z" fill="#101010"/>
<path fill-rule="evenodd" clip-rule="evenodd" d="M67.9507 0H80.249C82.9743 0 85.2036 1.52147 85.2036 3.3865H62.9961C62.9961 1.52147 65.2254 0 67.9507 0Z" fill="#101010"/>
<path fill-rule="evenodd" clip-rule="evenodd" d="M34.5631 16.9812H52.3861C53.3243 16.9783 54.2231 16.6206 54.8864 15.9862C55.5498 15.3517 55.9238 14.492 55.9268 13.5947H31.0225C31.024 14.4924 31.3975 15.353 32.0612 15.9878C32.7248 16.6225 33.6245 16.9798 34.5631 16.9812Z" fill="#101010"/>
<path fill-rule="evenodd" clip-rule="evenodd" d="M149.591 23.9021H167.414C168.353 23.9007 169.253 23.5434 169.916 22.9087C170.58 22.2739 170.954 21.4133 170.955 20.5156H146.051C146.054 21.4129 146.428 22.2726 147.091 22.9071C147.754 23.5415 148.653 23.8992 149.591 23.9021Z" fill="#101010"/>
<path fill-rule="evenodd" clip-rule="evenodd" d="M118.54 23.9021H136.364C137.302 23.8992 138.2 23.5415 138.864 22.9071C139.527 22.2726 139.901 21.4129 139.904 20.5156H115.028C115.03 21.4133 115.403 22.2739 116.067 22.9087C116.731 23.5434 117.63 23.9007 118.569 23.9021" fill="#101010"/>
<path fill-rule="evenodd" clip-rule="evenodd" d="M65.6364 16.9812H83.4594C84.398 16.9798 85.2977 16.6225 85.9613 15.9878C86.625 15.353 86.9985 14.4924 87 13.5947H62.0957C62.0987 14.492 62.4727 15.3517 63.1361 15.9862C63.7994 16.6206 64.6982 16.9783 65.6364 16.9812Z" fill="#101010"/>
<path fill-rule="evenodd" clip-rule="evenodd" d="M0 10.1977H21.3637C22.3008 10.1948 23.1988 9.83786 23.862 9.20457C24.5252 8.57127 24.8998 7.71298 24.9043 6.81665H0V10.1977Z" fill="#101010"/>
<path fill-rule="evenodd" clip-rule="evenodd" d="M177.096 13.5842H198.459C199.397 13.5885 200.295 13.9466 200.958 14.5808C201.621 15.215 201.996 16.0738 202 16.9707H177.096V13.5842Z" fill="#101010"/>
<path d="M7.68568 13.6005H0V17.0197H7.68568V13.6005Z" fill="#101010"/>
<path d="M106.374 13.5947H98.6826V16.9976H106.374V13.5947Z" fill="#101010"/>
<path d="M106.374 6.80566H98.6826V10.2194H106.374V6.80566Z" fill="#101010"/>
<path d="M139.916 13.5791H132.23V16.982H139.916V13.5791Z" fill="#101010"/>
<path d="M139.916 6.77832H132.23V10.1975H139.916V6.77832Z" fill="#101010"/>
<path d="M139.916 6.7998H132.23V10.2027H139.916V6.7998Z" fill="#101010"/>
<path fill-rule="evenodd" clip-rule="evenodd" d="M14.2363 13.6006H22.8286L26.4319 17.0198H17.8397L14.2363 13.6006Z" fill="#101010"/>
<path d="M38.7247 6.7998H31.0391V10.219H38.7247V6.7998Z" fill="#101010"/>
<path d="M153.736 13.5791H146.051V16.982H153.736V13.5791Z" fill="#101010"/>
<path d="M55.9611 6.7998H48.2754V10.219H55.9611V6.7998Z" fill="#101010"/>
<path d="M170.978 13.5791H163.286V16.982H170.978V13.5791Z" fill="#101010"/>
</g>
<defs>
<clipPath id="clip0_15373_2061">
<rect width="202" height="24" fill="white"/>
</clipPath>
</defs>
</svg>
