<svg width="375" height="177" viewBox="0 0 375 177" fill="none" xmlns="http://www.w3.org/2000/svg">
<path d="M237.101 68.8593C173.078 40.0292 90.8262 83.5693 53.496 166.467C16.1661 249.364 38.0811 339.811 102.103 368.642C166.126 397.472 248.378 353.933 285.708 271.036C323.038 188.138 301.123 97.6898 237.101 68.8593Z" stroke="#1970FF"/>
<path d="M201.765 52.9521C137.742 24.1219 55.4902 67.662 18.1601 150.559C-19.1698 233.456 2.74513 323.904 66.7672 352.735C130.79 381.565 213.042 338.026 250.372 255.129C287.703 172.231 265.787 81.7825 201.765 52.9521Z" stroke="#1970FF"/>
<path d="M360.735 124.531C296.712 95.701 214.46 139.241 177.13 222.138C139.8 305.036 161.715 395.483 225.737 424.314C289.76 453.144 372.012 409.605 409.342 326.708C446.673 243.81 424.757 153.362 360.735 124.531Z" stroke="#1970FF"/>
<path d="M275.949 86.3564C211.927 57.5262 129.675 101.066 92.3447 183.964C55.0148 266.861 76.9297 357.308 140.952 386.139C204.974 414.969 287.227 371.43 324.557 288.533C361.887 205.636 339.972 115.187 275.949 86.3564Z" stroke="white"/>
<path d="M318.341 105.443C254.318 76.6132 172.066 120.153 134.736 203.051C97.4064 285.948 119.321 376.395 183.343 405.226C247.366 434.056 329.618 390.517 366.948 307.62C404.279 224.722 382.363 134.274 318.341 105.443Z" stroke="#1970FF"/>
</svg>
