<svg width="552" height="583" viewBox="0 0 552 583" fill="none" xmlns="http://www.w3.org/2000/svg">
<path d="M428.989 -27.3533C333.482 -70.362 210.675 -5.42673 154.914 118.4C99.1522 242.226 131.926 377.222 227.434 420.231C322.941 463.24 445.748 398.305 501.509 274.478C557.271 150.652 524.497 15.6555 428.989 -27.3533Z" stroke="#1970FF" stroke-width="2"/>
<path d="M376.177 -51.1268C280.669 -94.1356 157.862 -29.2003 102.101 94.6262C46.3397 218.453 79.1137 353.449 174.621 396.458C270.129 439.466 392.935 374.531 448.697 250.705C504.458 126.878 471.684 -8.11805 376.177 -51.1268Z" stroke="#1970FF" stroke-width="2"/>
<path d="M613.768 55.8517C518.261 12.8429 395.454 77.7782 339.693 201.605C283.932 325.431 316.706 460.427 412.213 503.436C507.721 546.445 630.527 481.51 686.289 357.683C742.05 233.857 709.276 98.8605 613.768 55.8517Z" stroke="#1970FF" stroke-width="2"/>
<path d="M487.052 -1.203C391.544 -44.2118 268.737 20.7235 212.976 144.55C157.215 268.377 189.989 403.373 285.496 446.381C381.004 489.39 503.81 424.455 559.572 300.628C615.333 176.802 582.559 41.8058 487.052 -1.203Z" stroke="white" stroke-width="2"/>
<path d="M550.407 27.3234C454.9 -15.6854 332.093 49.2499 276.331 173.076C220.57 296.903 253.344 431.899 348.852 474.908C444.359 517.916 567.166 452.981 622.927 329.155C678.689 205.328 645.915 70.3321 550.407 27.3234Z" stroke="#1970FF" stroke-width="2"/>
</svg>
