<svg width="149" height="116" viewBox="0 0 149 116" fill="none" xmlns="http://www.w3.org/2000/svg">
<path d="M120.789 49.2649H73.8085C66.4133 49.2649 59.321 52.2036 54.0918 57.4345C48.8626 62.6655 45.9248 69.7602 45.9248 77.1578C45.9248 84.5555 48.8626 91.6502 54.0918 96.8811C59.321 102.112 66.4133 105.051 73.8085 105.051H115.296L122.841 116L127.024 104.348C133.173 102.935 138.662 99.4777 142.595 94.5413C146.527 89.605 148.67 83.4809 148.674 77.169C148.676 73.5049 147.956 69.8765 146.555 66.491C145.154 63.1054 143.1 60.0291 140.511 57.4378C137.921 54.8465 134.846 52.791 131.463 51.3887C128.079 49.9863 124.452 49.2646 120.789 49.2649Z" fill="#1970FF"/>
<path d="M88.9586 79.5316C89.5052 78.9848 89.5053 78.0982 88.9586 77.5514C88.412 77.0046 87.5257 77.0046 86.979 77.5514C86.4324 78.0982 86.4324 78.9848 86.979 79.5316C87.5257 80.0784 88.4119 80.0785 88.9586 79.5316Z" fill="#231F20"/>
<path d="M98.2491 79.5316C98.7957 78.9848 98.7958 78.0982 98.2491 77.5514C97.7025 77.0046 96.8162 77.0046 96.2695 77.5514C95.7229 78.0982 95.7229 78.9848 96.2696 79.5316C96.8162 80.0784 97.7025 80.0785 98.2491 79.5316Z" fill="#231F20"/>
<path d="M108.222 79.5316C108.768 78.9848 108.768 78.0982 108.222 77.5514C107.675 77.0046 106.789 77.0046 106.242 77.5514C105.696 78.0982 105.696 78.9848 106.242 79.5316C106.789 80.0784 107.675 80.0785 108.222 79.5316Z" fill="#231F20"/>
<path d="M81.8482 5.69311e-08H30.6909C26.7032 -0.000244167 22.7546 0.785268 19.0704 2.31169C15.3862 3.83811 12.0386 6.07554 9.21887 8.8962C6.39914 11.7169 4.16253 15.0655 2.63662 18.751C1.1107 22.4364 0.32544 26.3864 0.325684 30.3754C0.325684 34.3643 1.11105 38.3141 2.63707 41.9993C4.16309 45.6845 6.39989 49.0329 9.2196 51.8534C12.0393 54.6739 15.3867 56.9111 19.0708 58.4374C22.7549 59.9637 26.7034 60.7492 30.6909 60.749H75.8625L84.0789 72.6723L88.6332 59.9847C95.3313 58.4448 101.309 54.6781 105.591 49.3C109.872 43.9219 112.203 37.2504 112.204 30.3754C112.205 22.3208 109.007 14.5958 103.314 8.89949C97.6216 3.20316 89.9001 0.00197252 81.8482 5.69311e-08Z" fill="#EAEAEA"/>
<path d="M47.1186 31.9304C47.3123 31.1098 46.8042 30.2875 45.9839 30.0939C45.1635 29.9002 44.3416 30.4084 44.1479 31.229C43.9543 32.0496 44.4624 32.8719 45.2827 33.0655C46.1031 33.2592 46.925 32.751 47.1186 31.9304Z" fill="#231F20"/>
<path d="M57.2519 31.9297C57.4456 31.109 56.9375 30.2868 56.1172 30.0931C55.2968 29.8994 54.4749 30.4077 54.2812 31.2283C54.0876 32.0489 54.5957 32.8711 55.416 33.0648C56.2364 33.2585 57.0583 32.7503 57.2519 31.9297Z" fill="#231F20"/>
<path d="M66.8984 33.0035C67.6771 32.6809 68.0469 31.7878 67.7243 31.0088C67.4018 30.2299 66.509 29.86 65.7303 30.1826C64.9516 30.5053 64.5818 31.3983 64.9044 32.1773C65.2269 32.9563 66.1197 33.3262 66.8984 33.0035Z" fill="#231F20"/>
</svg>
