<?xml version="1.0" standalone="no"?>
<!DOCTYPE svg PUBLIC "-//W3C//DTD SVG 20010904//EN"
 "http://www.w3.org/TR/2001/REC-SVG-20010904/DTD/svg10.dtd">
<svg version="1.0" xmlns="http://www.w3.org/2000/svg"
 width="375.000000pt" height="230.000000pt" viewBox="0 0 375.000000 230.000000"
 preserveAspectRatio="xMidYMid meet">

<g transform="translate(0.000000,230.000000) scale(0.100000,-0.100000)"
fill="#000000" stroke="none">
<path d="M0 2114 c0 -6 7 -17 15 -24 9 -7 30 -31 47 -53 l31 -39 -42 22 c-24
12 -46 18 -49 14 -4 -4 -1 -9 6 -11 45 -17 100 -54 120 -83 26 -39 24 -44 -12
-30 -15 5 -48 9 -74 9 -32 -2 -38 -3 -17 -6 17 -2 54 -11 82 -19 45 -12 56
-20 73 -53 l19 -39 -89 -4 c-57 -3 -95 -9 -103 -17 -10 -11 -7 -12 16 -7 112
26 180 19 195 -22 6 -15 13 -34 17 -43 5 -14 -4 -17 -52 -23 -55 -6 -192 -60
-181 -71 3 -3 31 6 62 20 32 14 85 29 117 34 67 9 72 6 84 -60 6 -35 6 -36
-28 -42 -38 -6 -126 -47 -195 -91 -77 -48 -38 -39 52 12 77 44 170 81 180 71
3 -2 8 -27 14 -56 l9 -52 -34 -12 c-18 -6 -84 -45 -146 -86 -128 -86 -122 -81
-115 -88 3 -3 48 24 100 59 103 70 184 113 193 104 4 -3 9 -30 11 -59 l6 -54
-66 -45 c-123 -84 -245 -174 -242 -178 8 -7 63 28 176 112 63 47 118 86 123
86 4 0 7 -31 7 -69 l0 -69 -105 -86 c-58 -47 -128 -98 -155 -113 -28 -15 -50
-31 -50 -36 0 -17 102 47 203 128 60 48 110 86 111 84 2 -2 6 -34 10 -70 l6
-65 -62 -55 c-102 -89 -149 -125 -210 -159 -61 -33 -74 -46 -35 -34 40 12 153
91 236 164 59 52 81 66 81 53 0 -10 9 -37 20 -60 l19 -42 -88 -83 c-91 -87
-163 -140 -244 -179 -26 -13 -47 -27 -47 -31 0 -11 112 46 170 85 25 17 83 67
129 110 46 43 86 75 90 70 4 -4 20 -25 35 -46 l29 -39 -74 -75 c-104 -106
-201 -181 -298 -232 -45 -23 -80 -45 -78 -48 7 -6 141 62 197 100 25 17 95 79
155 138 l110 107 47 -32 46 -32 -119 -126 c-137 -145 -230 -219 -349 -278 -93
-46 -95 -48 -89 -55 7 -6 146 62 209 103 30 20 126 106 212 190 l157 155 45
-13 c69 -19 74 -32 28 -71 -21 -19 -100 -100 -175 -180 -154 -166 -228 -225
-374 -298 -57 -28 -103 -56 -103 -61 0 -13 166 70 245 122 34 22 148 130 260
244 l200 204 58 -21 c31 -12 57 -25 57 -28 0 -3 -28 -31 -63 -61 -34 -30 -102
-99 -152 -154 -164 -182 -239 -258 -299 -302 -32 -24 -51 -44 -43 -44 34 0
146 107 374 357 51 56 117 122 148 148 l54 47 61 -25 60 -24 -57 -46 c-85 -67
-167 -149 -267 -267 -50 -58 -108 -125 -130 -149 -23 -24 -34 -41 -26 -39 8 2
57 54 109 114 118 135 294 312 346 347 l40 26 57 -22 c32 -12 58 -24 57 -27 0
-3 -32 -27 -71 -55 -40 -27 -113 -91 -162 -141 -102 -101 -223 -244 -207 -244
5 0 41 37 79 83 91 108 242 253 318 304 l61 42 57 -23 c31 -13 57 -27 57 -31
0 -3 -25 -22 -56 -40 -31 -19 -92 -64 -135 -100 -82 -68 -232 -226 -224 -234
3 -3 46 38 97 90 51 53 120 118 153 146 64 52 174 123 192 123 5 0 36 -12 68
-26 l58 -26 -72 -38 c-89 -46 -197 -128 -277 -209 -82 -84 -60 -77 33 10 91
84 177 147 266 194 l65 34 61 -27 c33 -15 60 -29 60 -32 0 -3 -35 -21 -77 -39
-75 -34 -200 -117 -255 -169 -45 -42 -23 -38 29 5 100 84 276 183 323 183 18
0 93 -30 119 -48 10 -7 -1 -14 -40 -27 -65 -21 -167 -72 -229 -114 -70 -48
-32 -36 59 18 45 27 119 61 163 76 89 29 104 27 176 -20 l32 -22 -64 -16 c-72
-18 -175 -59 -159 -64 5 -2 38 7 74 21 35 13 90 29 122 36 58 12 59 11 126
-24 53 -28 78 -35 114 -34 36 2 44 5 35 15 -7 8 -7 13 0 13 5 0 15 -7 22 -15
16 -19 31 -19 24 0 -8 19 10 19 26 0 7 -8 17 -15 22 -15 6 0 5 7 -2 15 -10 12
-10 15 3 15 8 0 20 -6 26 -13 6 -9 34 -14 68 -15 l58 -2 -24 20 c-13 11 -22
22 -20 23 2 2 38 13 79 26 201 63 316 143 695 486 72 65 170 148 218 186 l88
69 51 -26 c28 -14 47 -29 42 -34 -5 -4 -43 -36 -84 -71 -41 -35 -151 -135
-245 -223 -291 -272 -432 -372 -604 -432 -36 -13 -56 -23 -43 -23 41 -1 175
57 267 117 103 67 191 141 430 362 94 87 199 183 235 213 l66 55 52 -27 53
-27 -93 -84 c-51 -47 -149 -139 -218 -206 -229 -221 -331 -306 -447 -371 -36
-20 -50 -33 -38 -33 28 0 155 83 245 160 41 36 176 161 300 279 124 117 235
220 248 229 21 14 27 13 73 -8 27 -13 48 -26 47 -30 -9 -20 -536 -524 -596
-570 -40 -30 -68 -56 -62 -58 19 -7 154 110 365 317 331 325 310 306 340 293
27 -12 35 1 9 16 -14 8 -14 10 0 21 27 23 18 40 -35 67 -50 25 -51 26 -30 40
15 11 26 12 40 4 32 -16 48 -11 23 8 -22 17 -22 17 -2 30 29 18 25 25 -27 51
-46 22 -47 24 -25 34 15 7 30 7 47 -1 14 -6 25 -8 25 -3 0 5 -8 12 -17 16 -17
6 -17 7 0 16 27 16 20 37 -15 45 -32 6 -32 7 -10 15 13 5 28 7 33 3 5 -3 9 -1
9 3 0 5 -12 14 -27 20 l-28 12 28 -6 c15 -3 27 -1 27 5 0 10 -16 13 -412 62
-46 6 -114 15 -153 20 -38 6 -153 21 -255 35 -315 42 -342 46 -444 62 -69 11
-133 14 -210 10 -207 -11 -356 -71 -698 -281 l-208 -128 -61 54 c-86 74 -359
319 -509 457 -183 169 -564 553 -645 650 -97 117 -154 178 -155 165z m181
-221 c13 -16 12 -17 -3 -4 -10 7 -18 15 -18 17 0 8 8 3 21 -13z m63 -85 c17
-27 17 -28 -5 -20 -12 5 -27 22 -35 40 -12 29 -12 31 5 20 10 -6 26 -24 35
-40z m25 -48 c4 0 15 -16 24 -35 l17 -35 -25 0 c-19 0 -28 8 -40 36 -19 45
-19 48 1 40 9 -3 19 -6 23 -6z m75 -52 c27 -35 28 -42 3 -32 -18 7 -51 64 -37
64 5 0 20 -14 34 -32z m-9 -74 c20 -50 19 -54 -14 -54 -24 0 -31 6 -40 31 -16
48 -14 59 14 59 19 0 28 -8 40 -36z m36 16 c10 -6 26 -24 34 -40 15 -29 15
-30 -10 -30 -14 0 -25 2 -25 4 0 2 -7 20 -15 40 -16 39 -14 42 16 26z m81 -47
c27 -32 29 -41 9 -36 -10 2 -24 16 -30 29 -12 28 -1 32 21 7z m-83 -64 c15
-42 14 -69 -1 -69 -7 0 -22 -3 -34 -6 -19 -5 -22 0 -31 45 -6 28 -8 53 -5 56
3 3 18 5 33 5 21 0 29 -7 38 -31z m52 21 c9 0 39 -52 39 -70 0 -5 -13 -10 -28
-10 -25 0 -31 6 -40 39 -15 50 -15 54 4 47 9 -3 20 -6 25 -6z m64 -16 c13 -5
45 -53 45 -67 0 -2 -11 -2 -24 0 -14 3 -29 18 -39 39 -17 34 -13 40 18 28z
m80 -54 c16 -16 24 -30 17 -30 -13 0 -52 39 -52 52 0 13 4 10 35 -22z m-86
-43 c21 -55 18 -71 -16 -78 -35 -7 -35 -7 -48 58 -5 25 -3 32 12 36 35 9 44 7
52 -16z m-80 -24 c17 -59 14 -68 -26 -83 -21 -8 -41 -16 -45 -18 -5 -2 -8 26
-8 62 0 63 1 65 28 69 15 2 30 5 34 6 4 0 12 -16 17 -36z m161 -3 l20 -40 -34
0 c-31 0 -34 3 -44 40 -9 38 -9 40 14 40 17 0 29 -10 44 -40z m64 -14 c21 -33
21 -34 -8 -29 -21 4 -46 43 -46 70 0 11 39 -19 54 -41z m56 -21 c18 -19 20
-25 8 -25 -9 0 -23 11 -32 25 -9 14 -13 25 -8 25 5 0 19 -11 32 -25z m-83 -58
c18 -43 18 -43 -23 -51 -29 -7 -31 -5 -41 38 -12 52 -8 58 25 54 18 -2 29 -14
39 -41z m-82 1 c4 -18 8 -40 11 -49 3 -11 -7 -19 -33 -27 -21 -6 -40 -8 -44
-4 -4 4 -9 28 -12 54 -6 43 -4 47 16 51 50 10 55 7 62 -25z m150 2 c21 -40 19
-50 -8 -50 -19 0 -28 9 -40 40 -15 40 -15 40 9 40 16 0 28 -9 39 -30z m-240
-46 c4 -31 5 -57 3 -58 -2 -1 -24 -15 -50 -30 l-48 -27 0 70 0 69 38 15 c20 9
40 16 43 16 4 1 10 -24 14 -55z m297 39 c29 -34 30 -43 6 -43 -17 0 -27 8 -35
30 -13 35 3 42 29 13z m69 -44 c15 -28 -6 -23 -25 6 -14 21 -14 24 -1 19 9 -4
20 -15 26 -25z m-156 -70 c6 -34 5 -37 -26 -48 -33 -11 -48 -4 -49 25 0 6 -3
25 -6 42 -6 29 -4 31 27 34 39 3 44 -2 54 -53z m74 25 c11 -30 11 -38 0 -45
-27 -17 -47 -9 -58 22 -17 49 -14 59 17 59 23 0 30 -6 41 -36z m74 -11 l19
-33 -30 0 c-25 0 -32 6 -41 31 -14 42 -15 41 11 37 12 -2 30 -18 41 -35z
m-238 -34 l7 -46 -45 -25 -45 -25 -6 45 c-10 74 -9 79 32 95 20 8 40 12 44 9
3 -4 9 -28 13 -53z m275 41 c11 -6 24 -19 30 -30 9 -17 8 -20 -9 -20 -13 0
-27 12 -36 30 -17 32 -14 36 15 20z m-378 -90 l4 -55 -50 -37 c-27 -21 -51
-36 -52 -35 -1 1 -4 32 -8 69 l-6 66 47 30 c27 16 51 27 54 23 4 -3 9 -31 11
-61z m458 40 c8 -16 8 -18 -4 -14 -17 6 -30 34 -16 34 5 0 14 -9 20 -20z
m1490 -1 c33 -1 37 -3 15 -6 -205 -25 -347 -90 -692 -314 -100 -66 -198 -126
-217 -136 l-35 -16 -39 35 -40 36 197 121 c242 148 348 203 469 241 83 27 223
49 277 44 11 -1 40 -3 65 -5z m-1641 -50 c7 -23 11 -42 9 -43 -2 -2 -18 -8
-35 -14 -32 -11 -33 -11 -43 30 -14 52 -8 68 28 68 25 0 30 -5 41 -41z m74 6
c22 -46 22 -45 -16 -45 -30 0 -34 4 -44 40 -10 39 -10 40 17 40 20 0 30 -8 43
-35z m70 -14 l19 -31 -27 0 c-20 0 -29 8 -41 35 -18 45 -18 46 9 36 12 -4 30
-22 40 -40z m-227 -28 c6 -39 5 -40 -32 -55 -45 -18 -49 -14 -56 57 -3 36 -1
39 32 50 41 14 46 9 56 -52z m1904 63 c0 -3 -26 -10 -57 -16 -175 -34 -312
-102 -611 -304 -127 -85 -254 -168 -283 -185 l-54 -30 -43 35 -42 36 122 77
c68 43 177 113 243 155 188 122 344 192 485 221 61 12 240 20 240 11z m-1623
-42 c26 -27 27 -39 0 -28 -20 7 -51 54 -37 54 6 0 22 -12 37 -26z m1710 15
c27 -10 25 -12 -46 -30 -150 -38 -309 -129 -626 -357 -142 -103 -300 -202
-319 -202 -6 1 -28 16 -50 34 l-38 33 63 39 c35 21 165 106 289 189 292 196
421 259 593 290 93 17 100 17 134 4z m73 1 c18 -12 2 -12 -25 0 -13 6 -15 9
-5 9 8 0 22 -4 30 -9z m-2165 -66 c8 -59 7 -60 -56 -98 l-26 -16 -10 61 c-9
58 -9 61 16 78 25 17 48 28 63 30 4 1 10 -24 13 -55z m2186 32 c30 -13 32 -15
14 -22 -193 -70 -289 -127 -565 -334 -271 -203 -410 -288 -448 -275 -19 6 -76
54 -71 59 2 2 46 29 98 60 52 32 162 106 245 165 335 239 479 317 647 350 24
5 45 9 45 10 1 1 17 -5 35 -13z m89 4 c12 -8 10 -10 -10 -9 -14 0 -34 4 -45 9
-17 7 -16 9 10 9 17 0 37 -4 45 -9z m63 3 c-7 -2 -19 -2 -25 0 -7 3 -2 5 12 5
14 0 19 -2 13 -5z m-1878 -33 c12 -19 -12 -10 -31 11 -19 22 -19 22 3 10 12
-6 25 -16 28 -21z m1975 10 c24 -8 24 -8 -5 -8 -16 0 -39 3 -50 8 -18 8 -18 9
5 8 14 0 36 -4 50 -8z m63 3 c-7 -2 -19 -2 -25 0 -7 3 -2 5 12 5 14 0 19 -2
13 -5z m-2200 -45 c9 -23 16 -42 14 -43 -1 -1 -16 -5 -34 -8 -30 -6 -32 -4
-46 38 -16 47 -13 53 29 54 16 1 25 -10 37 -41z m52 34 c9 -6 35 -56 35 -67 0
-3 -13 -5 -29 -5 -24 0 -31 6 -40 31 -6 18 -11 36 -11 40 0 11 31 11 45 1z
m2028 -11 c17 -17 -44 -13 -73 5 -24 15 -24 15 19 10 24 -2 48 -9 54 -15z
m-2165 -30 c17 -54 16 -55 -23 -74 -40 -19 -38 -20 -54 50 -9 42 -8 43 23 52
17 5 34 10 37 10 3 1 11 -16 17 -38z m203 29 c4 0 15 -13 24 -30 15 -29 15
-30 -8 -30 -17 0 -28 10 -41 36 -15 33 -15 36 -1 30 9 -3 21 -6 26 -6z m1874
-5 l37 -16 -94 -45 c-119 -58 -244 -142 -438 -294 -211 -166 -321 -242 -420
-289 l-83 -40 -38 30 c-22 17 -39 34 -39 38 0 4 21 17 48 30 72 35 190 115
370 249 275 206 412 289 547 332 74 23 65 23 110 5z m305 6 c16 -4 21 -9 13
-14 -7 -4 -27 -1 -45 7 -35 15 -15 20 32 7z m67 3 c-3 -3 -12 -4 -19 -1 -8 3
-5 6 6 6 11 1 17 -2 13 -5z m-2769 -64 l11 -61 -37 -33 c-20 -19 -40 -32 -44
-30 -4 3 -15 30 -24 60 l-16 55 28 22 c53 42 59 46 65 47 4 0 12 -27 17 -60z
m2632 49 c26 -10 29 -14 17 -21 -16 -8 -87 13 -87 26 0 10 35 7 70 -5z m-65
-18 c38 -17 39 -18 16 -25 -31 -11 -113 24 -85 35 25 10 23 10 69 -10z m320
-3 c7 -7 -1 -9 -25 -4 -19 3 -39 11 -45 17 -7 8 0 9 25 4 19 -4 40 -12 45 -17z
m55 12 c18 -12 2 -12 -25 0 -13 6 -15 9 -5 9 8 0 22 -4 30 -9z m-2711 -44 c6
-25 11 -49 11 -54 0 -15 -72 -54 -81 -45 -4 4 -11 31 -14 58 -7 50 -6 51 27
67 45 23 44 23 57 -26z m368 22 c28 -26 30 -38 4 -31 -10 2 -24 16 -30 29 -13
30 -4 31 26 2z m2204 8 c28 -12 30 -14 12 -20 -22 -7 -87 16 -76 27 10 10 27
9 64 -7z m-332 -73 c-98 -54 -221 -141 -367 -260 -304 -246 -427 -330 -559
-382 l-53 -21 -35 31 c-19 17 -35 34 -35 38 0 4 24 17 53 29 74 31 219 129
400 270 264 207 385 288 516 343 l65 27 39 -20 40 -20 -64 -35z m583 49 c-19
-6 -64 7 -57 18 3 5 19 4 37 -2 18 -6 27 -13 20 -16z m58 18 c18 -12 2 -12
-25 0 -13 6 -15 9 -5 9 8 0 22 -4 30 -9z m-371 -14 c23 -13 23 -14 5 -24 -14
-8 -28 -6 -56 9 -21 11 -38 22 -38 24 0 10 66 4 89 -9z m238 -2 c22 -6 23 -8
9 -16 -22 -12 -95 10 -75 23 8 5 20 7 27 4 8 -3 25 -8 39 -11z m-2317 -24 c6
-11 9 -20 7 -20 -2 0 -12 9 -22 20 -10 11 -13 20 -7 20 6 0 16 -9 22 -20z
m2006 4 c35 -15 37 -17 20 -29 -15 -12 -25 -11 -62 8 -29 14 -40 24 -31 29 18
11 30 10 73 -8z m231 4 c37 -13 42 -23 16 -30 -21 -5 -96 26 -86 35 10 10 33
8 70 -5z m243 -2 c33 -12 33 -13 13 -20 -13 -4 -39 -2 -58 6 -30 10 -33 14
-18 19 23 10 22 10 63 -5z m80 4 c12 -8 10 -10 -10 -9 -14 0 -34 4 -45 9 -17
7 -16 9 10 9 17 0 37 -4 45 -9z m-3081 -96 c1 -14 -13 -32 -35 -49 -19 -15
-37 -25 -38 -24 -7 8 -38 110 -35 113 2 2 22 15 44 30 l40 26 12 -37 c6 -21
12 -48 12 -59z m377 57 c19 -45 18 -48 -16 -53 -27 -4 -31 -1 -44 38 -13 39
-13 43 2 47 32 7 44 0 58 -32z m-77 -12 c14 -45 9 -54 -31 -64 -24 -6 -27 -3
-37 32 -17 62 -16 64 45 72 6 0 16 -18 23 -40z m154 4 l19 -33 -29 0 c-24 0
-33 7 -46 36 l-17 35 27 -3 c18 -2 33 -14 46 -35z m2044 -9 c-1 -1 -49 -33
-107 -72 -58 -38 -204 -153 -325 -254 -308 -256 -394 -315 -549 -372 l-68 -26
-37 32 c-20 17 -35 34 -34 36 1 3 32 18 69 34 100 43 236 136 464 319 248 199
311 245 420 303 l83 44 43 -21 c24 -11 43 -22 41 -23z m202 27 c34 -18 34 -19
13 -30 -18 -9 -29 -8 -63 10 -32 16 -39 23 -28 30 21 13 40 10 78 -10z m228 7
c36 -13 42 -25 16 -30 -24 -5 -94 22 -87 33 7 12 32 11 71 -3z m-2416 -29 c33
-35 32 -44 -4 -35 -19 4 -47 41 -47 61 0 14 26 1 51 -26z m-297 -31 c8 -29 14
-52 13 -53 -1 0 -17 -8 -36 -18 -18 -10 -35 -16 -36 -15 -6 7 -35 102 -32 104
2 3 68 32 74 34 1 0 8 -23 17 -52z m2651 33 c39 -17 39 -18 18 -30 -19 -10
-30 -8 -64 10 -32 16 -39 23 -28 30 19 12 28 11 74 -10z m232 7 c36 -13 42
-25 16 -30 -24 -5 -94 22 -87 33 7 12 32 11 71 -3z m-463 -15 c28 -13 33 -19
25 -30 -16 -18 -33 -16 -81 8 -31 16 -38 23 -27 30 21 13 44 11 83 -8z m-2064
-18 c18 -19 20 -25 8 -25 -9 0 -23 11 -32 25 -9 14 -13 25 -8 25 5 0 19 -11
32 -25z m2479 0 c24 -12 24 -13 5 -23 -15 -8 -30 -6 -65 10 -38 18 -41 21 -24
28 22 9 46 5 84 -15z m-252 -1 c48 -19 54 -31 19 -40 -15 -3 -40 3 -67 17 -39
19 -42 23 -24 30 28 11 24 11 72 -7z m-2909 -130 l-24 -25 -34 47 -33 47 38
35 39 36 19 -58 19 -58 -24 -24z m219 4 c-18 -15 -35 -28 -38 -28 -7 0 -44
108 -38 113 2 2 20 13 39 25 l35 22 17 -53 16 -52 -31 -27z m2466 111 l42 -22
-25 -16 c-72 -47 -217 -163 -372 -296 -231 -202 -301 -257 -397 -315 -78 -46
-234 -110 -269 -110 -9 0 -34 13 -54 29 l-38 28 48 18 c73 28 181 83 247 128
74 50 103 73 340 270 179 151 395 306 423 307 7 0 32 -10 55 -21z m397 -5 c46
-18 51 -31 16 -40 -15 -3 -40 3 -67 17 -39 19 -42 23 -24 30 28 11 30 11 75
-7z m-2334 -15 c19 -22 19 -22 -3 -10 -24 12 -39 31 -25 31 5 0 17 -10 28 -21z
m2104 1 c46 -23 47 -26 20 -40 -15 -8 -30 -5 -65 12 -41 20 -44 24 -29 35 23
17 28 17 74 -7z m-2321 -33 c16 -43 16 -43 -22 -52 -24 -6 -29 -3 -42 29 -19
45 -19 54 3 59 33 9 46 2 61 -36z m77 8 c19 -46 19 -47 -18 -43 -26 2 -33 9
-44 41 l-13 37 30 0 c25 0 33 -6 45 -35z m39 29 c13 -5 45 -53 45 -67 0 -2
-11 -2 -25 1 -15 2 -32 16 -40 33 -22 41 -18 47 20 33z m2377 -25 c37 -19 39
-22 25 -37 -15 -14 -21 -14 -67 8 -46 22 -50 25 -34 37 23 17 28 17 76 -8z
m-2582 -14 c24 -62 23 -70 -11 -82 -18 -7 -33 -12 -34 -10 -7 9 -35 90 -33 92
39 30 66 30 78 0z m282 8 c27 -32 30 -43 11 -43 -10 0 -26 14 -35 30 -19 34
-2 43 24 13z m-578 -56 c18 -47 18 -47 -6 -66 -21 -18 -24 -18 -42 -3 -10 9
-25 30 -33 46 -15 29 -15 30 18 57 19 15 37 25 40 21 3 -4 14 -28 23 -55z
m2648 42 c22 -11 36 -24 32 -29 -5 -4 -47 -38 -94 -76 -47 -37 -165 -139 -262
-227 -297 -267 -401 -341 -566 -403 -134 -50 -150 -51 -196 -15 -26 21 -34 32
-25 36 8 3 41 14 73 25 76 26 208 96 282 150 64 47 184 147 364 305 156 136
312 253 338 254 7 1 31 -8 54 -20z m403 0 c45 -20 46 -21 26 -35 -18 -13 -25
-12 -63 7 -54 27 -55 28 -38 39 20 13 21 13 75 -11z m-2391 -28 c15 -17 16
-21 4 -21 -14 0 -37 20 -53 48 -11 20 25 0 49 -27z m-442 -18 c19 -53 18 -57
-22 -78 l-28 -14 -22 50 c-12 28 -20 52 -18 54 6 5 63 34 68 35 3 0 13 -21 22
-47z m2602 25 c44 -21 45 -22 25 -36 -19 -13 -26 -12 -70 8 -38 18 -46 26 -38
37 16 18 31 16 83 -9z m216 -43 c0 -2 -9 -9 -20 -15 -15 -8 -29 -6 -62 11 -55
28 -55 27 -33 43 17 12 25 11 67 -10 27 -13 48 -26 48 -29z m-2534 -10 c20
-48 18 -55 -14 -55 -23 0 -32 7 -46 37 -14 29 -15 38 -4 44 27 18 49 9 64 -26z
m77 0 c22 -46 22 -45 -11 -45 -23 0 -32 7 -45 35 -22 46 -22 45 11 45 23 0 32
-7 45 -35z m-656 -23 c46 -66 27 -66 -71 0 -10 6 19 48 33 48 3 0 21 -22 38
-48z m210 -2 l21 -51 -24 -15 c-28 -19 -45 -10 -71 40 -15 29 -15 31 13 53 16
13 31 23 35 23 3 0 15 -23 26 -50z m297 -3 c15 -37 15 -38 -10 -47 -38 -15
-40 -13 -58 31 -18 44 -14 54 19 61 25 6 30 2 49 -45z m206 33 c12 -22 6 -40
-14 -40 -11 0 -36 39 -36 55 0 15 41 2 50 -15z m2329 -48 c-19 -13 -26 -12
-70 8 -27 13 -49 26 -49 28 0 3 8 10 17 17 14 11 26 8 70 -13 50 -25 51 -26
32 -40z m-2279 44 c0 -11 -19 -15 -25 -6 -3 5 1 10 9 10 9 0 16 -2 16 -4z
m-347 -33 c30 -59 30 -69 -3 -83 -35 -15 -31 -17 -59 37 l-21 42 27 15 c38 21
40 20 56 -11z m375 5 c16 -16 15 -28 0 -28 -22 0 -41 17 -34 29 9 14 19 14 34
-1z m64 -31 c11 -21 10 -21 -12 -6 -28 19 -39 42 -16 33 9 -4 22 -16 28 -27z
m-719 -18 c16 -23 26 -43 24 -46 -8 -7 -71 23 -87 42 -13 15 -12 19 5 31 26
19 26 19 58 -27z m3041 -9 c5 -5 -1 -14 -16 -20 -21 -10 -33 -8 -69 10 -57 29
-56 28 -34 44 16 12 25 11 64 -6 26 -11 50 -23 55 -28z m-2835 1 l20 -39 -22
-6 c-39 -10 -52 -6 -69 21 -16 27 -16 28 10 45 37 24 39 23 61 -21z m416 3
c14 -15 25 -30 25 -34 0 -8 -24 -20 -39 -20 -6 0 -41 63 -41 75 0 15 34 1 55
-21z m-160 6 c-11 -5 -29 -9 -40 -9 l-20 0 20 9 c11 5 29 9 40 9 l20 0 -20 -9z
m108 -25 c9 -19 13 -35 9 -35 -4 0 -17 -3 -29 -6 -17 -5 -25 1 -38 26 -14 27
-15 34 -3 41 26 17 44 9 61 -26z m122 13 c6 -6 5 -12 -5 -18 -22 -14 -26 -13
-39 16 -10 24 -10 25 11 19 13 -4 27 -11 33 -17z m-295 -2 c0 -2 -13 -9 -30
-15 -16 -5 -30 -6 -30 -1 0 5 8 11 18 13 24 7 42 8 42 3z m100 -26 c14 -35 14
-36 -21 -45 -21 -5 -27 -2 -37 20 -16 34 -16 34 11 45 33 13 33 13 47 -20z
m-380 5 c18 -21 7 -28 -30 -20 -29 6 -30 8 -13 21 23 17 28 17 43 -1z m642 -2
c8 -10 18 -24 22 -30 10 -18 -25 -5 -41 15 -26 32 -8 45 19 15z m-337 -29 c19
-29 9 -44 -31 -44 -27 0 -52 49 -32 61 24 15 45 9 63 -17z m300 16 c4 -6 -5
-10 -20 -10 -15 0 -24 4 -20 10 3 6 12 10 20 10 8 0 17 -4 20 -10z m110 -38
c-6 -7 -35 18 -35 31 0 5 9 2 20 -8 11 -10 18 -20 15 -23z m-491 3 c22 -33 21
-35 -18 -35 -25 0 -39 7 -50 22 -23 32 -20 38 18 38 25 0 38 -6 50 -25z m-183
-6 c10 -20 9 -21 -17 -15 -16 4 -36 14 -44 22 -12 12 -10 14 18 14 22 0 35 -6
43 -21z m46 10 c-14 -8 -22 -8 -30 0 -8 8 -3 11 19 11 25 -1 27 -2 11 -11z
m476 -19 c20 -33 16 -50 -11 -50 -17 0 -52 47 -52 69 0 24 46 10 63 -19z
m-423 0 c10 -18 8 -20 -25 -20 -38 0 -46 13 -17 29 24 15 30 14 42 -9z m359
-19 l20 -39 -25 -6 c-15 -4 -27 -6 -28 -4 -22 29 -36 54 -36 61 0 6 26 20 47
26 2 1 12 -17 22 -38z m131 19 c9 -16 8 -22 -4 -26 -18 -7 -33 1 -46 27 -9 16
-7 19 14 19 15 0 30 -8 36 -20z m45 0 c3 -5 -1 -10 -9 -10 -9 0 -16 5 -16 10
0 6 4 10 9 10 6 0 13 -4 16 -10z m-250 -30 c18 -36 13 -50 -19 -50 -14 0 -27
9 -33 23 -17 36 -15 42 9 49 13 3 24 6 25 7 1 1 10 -13 18 -29z m344 -14 c7
-8 18 -13 26 -10 7 3 16 1 19 -4 3 -5 -10 -9 -28 -10 -26 -1 -38 5 -50 23 -9
13 -16 27 -16 30 0 9 35 -12 49 -29z m-417 -6 l17 -30 -34 0 c-24 0 -38 6 -45
19 -13 26 -13 29 8 34 33 9 37 7 54 -23z m366 10 c8 -13 9 -20 1 -20 -17 0
-49 20 -49 30 0 18 35 10 48 -10z m-633 0 c3 -6 -1 -7 -9 -4 -18 7 -21 14 -7
14 6 0 13 -4 16 -10z m96 -16 c18 -22 -24 -18 -52 5 l-23 18 32 -5 c17 -2 37
-10 43 -18z m44 16 c-3 -5 -14 -10 -23 -10 -15 0 -15 2 -2 10 20 13 33 13 25
0z m428 -7 c-7 -2 -19 -2 -25 0 -7 3 -2 5 12 5 14 0 19 -2 13 -5z m-379 -18
c4 -11 -2 -15 -24 -15 -30 0 -41 14 -17 23 22 10 35 7 41 -8z m408 -19 c13
-20 8 -36 -11 -36 -16 0 -51 38 -51 55 0 9 55 -7 62 -19z m-134 -20 l20 -34
-24 -5 c-18 -3 -30 3 -44 21 -26 32 -25 40 3 45 12 2 23 5 24 6 0 0 10 -14 21
-33z m73 5 c17 -28 16 -29 -7 -34 -18 -3 -30 3 -44 23 -26 36 -25 40 8 40 19
0 32 -8 43 -29z m107 23 c27 -8 29 -20 4 -26 -12 -3 -24 2 -31 13 -12 20 -8
22 27 13z m-503 -24 c3 -6 -1 -7 -9 -4 -18 7 -21 14 -7 14 6 0 13 -4 16 -10z
m249 -15 c21 -32 20 -35 -6 -35 -21 0 -58 26 -58 41 0 6 15 13 41 18 4 0 14
-10 23 -24z m-164 0 c10 -12 9 -15 -7 -15 -10 0 -28 7 -39 15 -18 14 -18 14 7
15 15 0 32 -7 39 -15z m51 4 c-16 -6 -28 -6 -35 1 -7 7 1 10 25 9 32 0 33 -1
10 -10z m464 -11 c14 -21 14 -23 0 -26 -15 -3 -44 23 -45 41 0 16 30 6 45 -15z
m-55 -3 c11 -13 8 -15 -13 -15 -28 0 -44 15 -25 23 21 9 25 8 38 -8z m121 -21
c12 -14 11 -16 -5 -13 -10 2 -26 15 -35 28 -15 23 -15 24 5 13 11 -6 27 -18
35 -28z m-481 11 c14 -17 3 -20 -38 -8 -18 4 -20 8 -10 14 19 13 34 11 48 -6z
m293 -2 c-7 -2 -19 -2 -25 0 -7 3 -2 5 12 5 14 0 19 -2 13 -5z m-258 -43 c24
-27 1 -27 -40 0 l-30 20 26 0 c14 0 34 -9 44 -20z m65 11 c0 -12 -29 -23 -41
-15 -18 10 -9 24 16 24 14 0 25 -4 25 -9z m165 -13 c15 -22 14 -23 -11 -26
-23 -3 -53 19 -54 41 0 17 50 5 65 -15z m65 2 c9 -17 8 -20 -12 -20 -13 0 -29
9 -36 20 -11 18 -10 20 13 20 14 0 29 -8 35 -20z m60 4 c0 -10 -7 -14 -22 -12
-32 5 -35 28 -4 28 17 0 26 -5 26 -16z m156 -11 c-7 -7 -26 7 -26 19 0 6 6 6
15 -2 9 -7 13 -15 11 -17z m-358 5 c19 -19 14 -28 -12 -28 -29 0 -44 19 -25
31 18 12 23 11 37 -3z m302 -50 c0 -11 -45 5 -57 21 -19 27 18 34 39 7 10 -11
18 -24 18 -28z m47 13 c15 -19 16 -31 3 -31 -11 0 -60 51 -60 63 0 11 42 -13
57 -32z m-412 19 c4 -6 -6 -10 -22 -10 -22 0 -25 2 -13 10 19 12 27 12 35 0z
m293 -17 c2 -8 -5 -13 -17 -13 -21 0 -35 13 -24 24 10 10 36 3 41 -11z m-64
-2 c3 -5 -3 -11 -14 -14 -22 -6 -37 8 -18 16 20 8 26 8 32 -2z m232 -19 c-4
-3 -14 2 -24 12 -16 18 -16 18 6 6 13 -6 21 -14 18 -18z m-292 9 c3 -5 -3 -11
-14 -14 -20 -5 -35 5 -23 17 9 9 31 7 37 -3z m-124 -16 c10 -12 9 -15 -6 -15
-11 0 -28 7 -38 15 -19 14 -19 15 6 15 14 0 31 -7 38 -15z m68 -2 c6 -19 -33
-16 -49 3 -11 14 -9 15 16 12 16 -1 30 -9 33 -15z m78 -31 c-9 -2 -25 -1 -34
3 -15 6 -15 8 3 15 12 4 26 3 34 -4 12 -9 11 -12 -3 -14z m72 11 c6 -19 -33
-16 -49 3 -11 14 -9 15 16 12 16 -1 30 -9 33 -15z m57 7 c4 -6 -5 -10 -19 -10
-14 0 -26 5 -26 10 0 6 9 10 19 10 11 0 23 -4 26 -10z m48 3 c-7 -2 -19 -2
-25 0 -7 3 -2 5 12 5 14 0 19 -2 13 -5z m122 -3 c8 -13 -5 -13 -25 0 -13 8
-13 10 2 10 9 0 20 -4 23 -10z m40 -10 c16 -17 16 -20 3 -15 -9 4 -19 13 -22
21 -7 19 -2 18 19 -6z m-63 -25 c21 -25 22 -35 4 -35 -15 0 -56 45 -56 61 0
13 33 -3 52 -26z m-58 0 c16 -24 16 -25 -6 -25 -27 0 -55 35 -35 43 21 9 24 8
41 -18z m-59 -5 c18 -20 17 -20 -8 -20 -28 0 -42 14 -32 30 9 15 20 12 40 -10z
m166 0 c18 -15 20 -19 8 -20 -9 0 -24 9 -34 20 -23 26 -4 26 26 0z m-346 -10
c23 -26 9 -26 -30 0 -26 17 -27 20 -9 20 11 0 29 -9 39 -20z m59 1 c9 -7 16
-17 16 -22 0 -17 -27 -9 -50 16 -23 25 -23 25 -3 22 12 -1 28 -9 37 -16z m64
-1 c11 -17 10 -20 -8 -20 -10 0 -24 9 -30 20 -9 17 -8 20 7 20 10 0 24 -9 31
-20z m308 -41 c19 -22 19 -22 -3 -10 -24 12 -39 31 -25 31 5 0 17 -10 28 -21z
m-229 5 c-3 -3 -12 -4 -19 -1 -8 3 -5 6 6 6 11 1 17 -2 13 -5z m90 -26 c25
-24 29 -38 11 -38 -14 0 -58 40 -58 52 0 15 23 8 47 -14z m55 5 c27 -32 30
-43 11 -42 -10 0 -28 13 -41 30 -22 27 -22 29 -4 29 10 0 26 -8 34 -17z m-222
-8 c16 -19 0 -19 -26 0 -16 12 -16 14 -3 15 9 0 22 -7 29 -15z m55 -5 c15 -16
15 -20 3 -20 -8 0 -23 9 -33 20 -15 16 -15 20 -3 20 8 0 23 -9 33 -20z m65 -5
c22 -24 23 -25 3 -25 -11 0 -30 11 -43 25 -22 24 -23 25 -3 25 11 0 30 -11 43
-25z m161 5 c23 -18 23 -19 4 -20 -11 0 -26 9 -33 20 -16 26 -1 26 29 0z m80
3 c13 -16 12 -17 -3 -4 -17 13 -22 21 -14 21 2 0 10 -8 17 -17z m-26 -21 c-3
-3 -11 0 -18 7 -9 10 -8 11 6 5 10 -3 15 -9 12 -12z m35 -27 c10 -12 10 -15
-3 -15 -8 0 -20 7 -27 15 -10 12 -10 15 3 15 8 0 20 -7 27 -15z m55 -15 c10
-11 14 -20 8 -20 -5 0 -18 9 -28 20 -10 11 -14 20 -8 20 5 0 18 -9 28 -20z
m-310 0 c3 -5 2 -10 -4 -10 -5 0 -13 5 -16 10 -3 6 -2 10 4 10 5 0 13 -4 16
-10z m60 -10 c23 -26 8 -26 -25 0 -18 14 -21 20 -9 20 9 0 24 -9 34 -20z m59
-5 c21 -32 5 -32 -31 0 -26 23 -27 24 -7 25 12 0 29 -11 38 -25z m57 -1 l24
-26 -24 4 c-28 4 -64 48 -39 48 8 0 25 -12 39 -26z m54 -4 c15 -16 15 -20 3
-20 -8 0 -23 9 -33 20 -15 16 -15 20 -3 20 8 0 23 -9 33 -20z m55 -10 c0 -5
-4 -10 -9 -10 -6 0 -13 5 -16 10 -3 6 1 10 9 10 9 0 16 -4 16 -10z m89 -44 c7
-8 18 -13 26 -10 7 3 16 1 19 -5 5 -7 -4 -9 -22 -7 -36 4 -49 12 -63 37 -9 18
-8 19 9 10 10 -5 24 -17 31 -25z m-114 14 c3 -5 -1 -10 -9 -10 -9 0 -16 5 -16
10 0 6 4 10 9 10 6 0 13 -4 16 -10z m59 -5 c3 -9 0 -15 -8 -15 -7 0 -19 7 -26
15 -10 12 -9 15 8 15 11 0 22 -7 26 -15z m-79 -25 c3 -5 -1 -10 -9 -10 -8 0
-18 5 -21 10 -3 6 1 10 9 10 8 0 18 -4 21 -10z m61 -11 c9 -15 -23 -10 -35 5
-10 12 -8 13 9 9 11 -3 23 -9 26 -14z m41 -5 c-3 -3 -12 -4 -19 -1 -8 3 -5 6
6 6 11 1 17 -2 13 -5z m-116 -21 c13 -16 12 -17 -3 -4 -17 13 -22 21 -14 21 2
0 10 -8 17 -17z m44 -3 c3 -5 2 -10 -4 -10 -5 0 -13 5 -16 10 -3 6 -2 10 4 10
5 0 13 -4 16 -10z"/>
<path d="M3493 249 c-139 -137 -248 -249 -242 -249 14 0 506 487 499 493 -3 3
-119 -107 -257 -244z"/>
<path d="M3595 153 c-82 -84 -145 -153 -140 -153 22 1 300 282 294 297 -2 4
-71 -61 -154 -144z"/>
<path d="M3702 49 c-24 -27 -40 -49 -35 -49 14 0 86 77 82 88 -2 5 -23 -12
-47 -39z"/>
</g>
</svg>
