<?xml version="1.0" standalone="no"?>
<!DOCTYPE svg PUBLIC "-//W3C//DTD SVG 20010904//EN"
 "http://www.w3.org/TR/2001/REC-SVG-20010904/DTD/svg10.dtd">
<svg version="1.0" xmlns="http://www.w3.org/2000/svg"
 width="1440.000000pt" height="294.000000pt" viewBox="0 0 1440.000000 294.000000"
 preserveAspectRatio="xMidYMid meet">

<g transform="translate(0.000000,294.000000) scale(0.100000,-0.100000)"
fill="#000000" stroke="none">
<path d="M3185 2774 c-362 -80 -663 -262 -1001 -606 -178 -180 -191 -195 -491
-556 -136 -163 -300 -355 -364 -427 -341 -382 -634 -602 -1191 -895 -76 -39
-138 -76 -138 -81 0 -5 2 -9 4 -9 3 0 81 40 175 90 514 271 799 482 1114 825
66 71 251 288 412 480 403 483 562 650 780 820 359 280 819 423 1037 323 57
-26 142 -97 179 -150 l20 -27 -58 27 c-51 24 -70 27 -158 26 -206 0 -525 -105
-772 -252 -290 -172 -529 -390 -980 -894 -301 -336 -458 -503 -580 -615 -293
-268 -563 -447 -1030 -682 -79 -40 -143 -76 -143 -81 0 -6 3 -10 7 -10 11 0
381 193 488 255 149 86 370 234 481 323 228 181 377 332 779 782 252 284 552
585 695 700 129 103 284 205 410 269 208 107 476 184 640 185 91 1 100 -1 172
-37 61 -30 81 -45 101 -80 14 -23 25 -43 24 -44 -1 -1 -27 5 -57 14 -105 28
-216 6 -570 -113 -137 -47 -339 -146 -470 -232 -287 -187 -498 -377 -1046
-942 -536 -552 -779 -736 -1395 -1054 -112 -58 -196 -106 -186 -106 45 0 515
252 722 387 305 200 450 327 946 833 503 512 691 681 946 850 203 135 387 216
713 316 178 55 274 63 366 31 43 -15 53 -24 72 -62 12 -25 22 -48 22 -51 0 -3
-22 -3 -48 1 -73 10 -156 -9 -320 -75 -83 -33 -155 -60 -160 -60 -23 0 -246
-91 -351 -144 -355 -178 -600 -370 -1191 -931 -146 -139 -310 -293 -365 -343
-293 -266 -628 -495 -1015 -693 -62 -32 -97 -55 -87 -57 38 -8 487 249 698
399 223 158 375 290 789 684 322 306 383 362 530 484 344 286 655 470 965 571
39 12 132 47 208 77 153 60 225 76 305 66 58 -6 68 -18 87 -96 7 -25 5 -27
-27 -27 -63 0 -153 -31 -303 -104 -82 -40 -199 -91 -260 -112 -135 -47 -403
-180 -547 -271 -271 -171 -482 -337 -903 -708 -403 -355 -529 -460 -704 -585
-136 -97 -337 -223 -485 -305 -70 -38 -120 -71 -111 -73 27 -6 277 139 515
299 178 120 390 288 664 530 466 411 643 557 866 713 234 165 494 303 735 391
72 26 188 77 258 112 137 68 224 96 284 91 36 -3 38 -5 54 -61 13 -42 14 -59
6 -62 -7 -2 -32 -9 -57 -15 -54 -14 -128 -51 -247 -123 -101 -61 -156 -87
-262 -127 -114 -43 -144 -56 -301 -135 -361 -181 -611 -356 -1249 -872 -429
-348 -610 -479 -916 -660 -77 -46 -131 -83 -119 -83 23 0 189 96 379 221 166
109 364 259 685 518 417 338 554 443 755 579 251 169 519 315 730 396 150 58
211 87 336 161 116 69 221 115 263 115 20 0 24 -7 33 -66 l9 -65 -60 -28 c-34
-16 -124 -71 -201 -123 -77 -52 -176 -109 -220 -127 -502 -207 -806 -386
-1415 -834 -523 -385 -590 -433 -735 -529 -82 -55 -194 -125 -248 -156 -55
-32 -91 -58 -82 -60 39 -8 433 252 863 571 504 374 683 498 957 662 159 95
443 237 607 302 92 36 161 74 283 153 165 108 240 148 252 136 4 -4 9 -40 11
-80 4 -69 3 -72 -21 -83 -14 -7 -72 -47 -128 -90 -173 -131 -225 -162 -381
-230 -279 -119 -566 -271 -868 -458 -123 -77 -219 -140 -795 -526 -159 -107
-350 -230 -424 -274 -73 -44 -126 -81 -118 -83 24 -5 269 149 797 502 732 490
998 644 1440 832 118 50 219 111 325 194 76 60 165 120 176 120 5 0 9 -39 8
-87 l0 -88 -128 -104 c-166 -133 -191 -149 -406 -246 -432 -197 -689 -340
-1485 -827 -184 -112 -370 -224 -414 -249 -45 -25 -71 -45 -62 -47 21 -4 94
38 576 333 447 273 575 350 775 460 184 102 500 260 650 325 152 65 231 115
375 234 130 107 121 108 134 -15 l6 -67 -77 -69 c-187 -165 -205 -177 -472
-300 -332 -152 -651 -320 -1425 -749 -147 -81 -263 -150 -256 -152 14 -5 22 0
390 203 661 366 1076 581 1365 710 155 69 257 134 385 249 l95 84 27 -76 28
-77 -88 -83 c-112 -105 -230 -195 -306 -232 -34 -16 -178 -85 -321 -153 -427
-204 -1262 -626 -1238 -626 12 -1 243 111 515 247 271 136 570 285 663 329
519 248 509 242 695 416 46 42 87 77 91 77 5 0 13 -10 20 -23 6 -12 25 -37 42
-54 l31 -33 -125 -121 c-68 -67 -155 -145 -194 -174 -40 -30 -200 -118 -375
-207 -502 -254 -875 -453 -857 -456 9 -2 83 32 165 74 81 43 197 104 257 136
61 32 256 132 435 223 179 90 352 185 385 210 33 25 117 102 186 171 70 70
131 125 135 123 18 -8 114 -74 114 -79 0 -15 -365 -374 -420 -412 -36 -25
-241 -135 -457 -244 -215 -109 -386 -200 -378 -202 21 -5 749 363 835 422 46
31 147 124 261 240 l187 189 71 -28 c39 -14 71 -29 71 -31 0 -3 -39 -44 -88
-92 -48 -48 -150 -154 -227 -236 -77 -83 -175 -176 -217 -207 -43 -32 -163
-102 -267 -156 -105 -54 -184 -99 -177 -101 20 -4 306 140 401 203 105 69 174
133 355 330 82 89 171 181 198 203 l49 41 64 -26 c35 -14 67 -28 72 -32 4 -4
-29 -39 -74 -77 -78 -67 -130 -122 -343 -362 -98 -111 -195 -201 -270 -251
-28 -19 -35 -27 -23 -29 40 -8 198 140 413 384 125 142 304 314 327 314 16 0
147 -53 147 -59 -1 -3 -28 -26 -61 -51 -34 -25 -105 -88 -158 -140 -120 -117
-406 -450 -387 -450 7 0 78 75 157 168 181 212 235 268 334 351 113 95 143
115 158 103 7 -5 40 -20 75 -32 34 -13 61 -24 60 -26 -2 -1 -40 -28 -85 -61
-45 -32 -123 -96 -174 -142 -104 -96 -326 -354 -309 -359 6 -2 12 -2 14 -1 27
39 179 215 240 277 83 86 218 199 294 246 l42 26 38 -18 c20 -11 54 -25 75
-31 20 -7 37 -16 37 -19 0 -4 -26 -22 -58 -40 -31 -18 -88 -56 -127 -84 -84
-61 -373 -350 -357 -356 7 -2 68 54 136 125 134 139 233 222 352 294 l76 46
74 -32 c42 -18 77 -35 80 -38 3 -3 -28 -22 -68 -42 -40 -21 -105 -59 -144 -86
-121 -84 -319 -269 -288 -269 3 0 48 39 99 87 128 118 233 194 340 249 l90 45
79 -36 c44 -20 75 -40 70 -44 -5 -4 -29 -16 -54 -25 -104 -40 -260 -141 -380
-245 -60 -52 -10 -34 59 22 125 101 238 168 361 217 l49 19 68 -30 c103 -46
104 -48 21 -76 -85 -29 -225 -99 -294 -148 -73 -52 -27 -43 56 11 86 55 170
94 268 124 68 21 75 21 112 6 22 -8 60 -29 86 -45 l46 -28 -48 -8 c-49 -7
-201 -57 -244 -81 -45 -24 7 -16 78 12 35 14 105 35 156 46 l92 21 72 -43 c48
-28 89 -44 120 -48 l47 -5 -19 22 c-11 11 -15 21 -9 21 5 0 18 -9 28 -20 22
-24 55 -29 35 -5 -10 12 -10 15 3 15 8 0 20 -7 27 -15 7 -8 19 -15 27 -15 13
0 13 3 3 15 -10 12 -9 15 8 15 11 0 22 -7 26 -15 3 -8 13 -15 22 -15 14 0 14
3 4 15 -7 9 -10 18 -7 21 7 7 47 -14 47 -25 0 -5 35 -9 78 -10 l77 -1 -34 29
-34 28 54 13 c122 29 291 107 417 192 91 61 259 202 452 378 212 193 427 372
465 386 6 2 38 -10 72 -29 l61 -32 -81 -67 c-80 -65 -133 -113 -451 -407 -306
-283 -434 -370 -676 -462 -53 -20 -67 -28 -48 -29 36 0 139 39 240 92 148 77
285 184 547 429 323 301 470 429 492 429 5 0 37 -14 71 -31 l61 -31 -64 -56
c-35 -31 -144 -133 -241 -227 -373 -357 -547 -503 -688 -576 -32 -16 -40 -24
-27 -27 37 -8 219 117 379 261 51 45 174 160 273 256 223 215 374 351 392 351
8 0 40 -13 72 -30 l59 -29 -211 -209 c-363 -359 -496 -482 -600 -556 -38 -26
-53 -42 -43 -44 33 -7 169 110 451 387 110 109 251 245 313 304 l113 107 71
-36 71 -36 -299 -299 c-164 -165 -331 -327 -371 -362 -39 -34 -70 -64 -68 -65
16 -16 96 57 403 364 l353 354 70 -36 70 -35 -153 -162 c-84 -89 -225 -235
-312 -324 -88 -90 -152 -163 -144 -163 9 0 115 102 235 227 120 125 259 269
308 320 l90 92 74 -35 75 -35 -55 -57 c-31 -31 -116 -122 -189 -202 -74 -80
-170 -182 -214 -228 -51 -51 -74 -82 -64 -82 9 0 132 123 272 274 141 151 259
277 264 280 6 4 127 -45 151 -60 3 -3 -54 -66 -357 -398 -45 -50 -77 -93 -72
-94 11 -4 52 39 240 248 57 63 128 141 158 173 l55 58 73 -32 c41 -17 74 -34
74 -36 0 -4 -272 -315 -334 -381 -20 -21 -25 -32 -15 -32 8 0 55 46 104 102
50 56 130 147 179 201 99 109 90 106 190 62 l57 -25 -127 -148 c-70 -81 -136
-157 -147 -169 -15 -17 -17 -23 -6 -23 8 0 72 67 142 149 174 203 151 187 233
155 38 -15 72 -30 76 -33 4 -3 -43 -64 -104 -136 -60 -71 -105 -131 -98 -133
6 -2 12 -2 14 -1 8 11 218 259 219 259 2 0 46 -17 130 -49 33 -13 37 -5 -71
-135 -35 -42 -57 -76 -50 -76 8 0 49 43 92 95 43 52 81 95 85 95 3 0 41 -13
84 -28 l79 -28 -51 -61 c-28 -34 -51 -64 -51 -67 0 -19 24 1 70 58 l52 64 81
-26 c45 -15 84 -27 86 -29 2 -1 -9 -16 -23 -34 -36 -42 -22 -53 15 -11 16 17
34 32 40 32 17 0 153 -42 159 -49 3 -4 32 -7 65 -8 58 -2 59 -1 23 9 -42 11
-44 16 -24 43 13 18 16 18 100 -5 63 -17 86 -27 82 -37 -6 -16 6 -17 21 -2 8
8 22 8 49 0 22 -6 55 -11 74 -10 32 1 30 2 -20 15 -88 24 -86 22 -62 46 20 21
25 21 69 10 133 -35 124 -31 113 -52 -13 -24 -3 -26 22 -3 17 15 23 15 93 0
81 -18 145 -22 145 -9 0 5 6 16 13 26 12 17 17 17 100 1 48 -10 87 -21 87 -24
0 -4 44 -7 98 -8 l97 -1 -68 12 c-37 7 -69 15 -71 17 -2 2 1 12 8 21 12 17 23
16 192 -13 98 -16 229 -32 289 -34 l110 -4 -105 14 c-237 33 -436 67 -445 76
-6 6 -4 14 5 24 13 12 31 11 146 -10 72 -13 198 -34 280 -45 82 -11 204 -30
270 -40 67 -11 142 -20 165 -19 43 1 42 1 -21 15 -36 8 -175 30 -310 49 -277
40 -482 74 -492 84 -4 3 -1 14 6 23 12 16 22 16 162 -11 82 -16 241 -43 354
-60 113 -16 282 -46 377 -66 151 -31 245 -43 232 -31 -11 11 -407 88 -594 116
-255 38 -477 79 -490 91 -6 6 -3 15 6 24 14 14 28 13 134 -10 66 -14 229 -44
364 -66 265 -43 391 -69 609 -124 78 -19 156 -35 174 -34 78 2 -466 129 -723
169 -203 32 -496 87 -516 99 -9 4 -8 11 2 24 12 17 20 16 178 -17 91 -20 250
-50 353 -66 236 -38 391 -74 662 -151 116 -33 224 -59 240 -57 16 2 -67 29
-213 70 -317 89 -414 112 -635 149 -102 17 -250 44 -330 60 -80 17 -160 33
-178 36 -39 7 -45 15 -29 37 12 17 23 15 172 -18 88 -19 225 -47 305 -61 370
-65 491 -95 868 -215 106 -34 205 -60 219 -58 30 3 -428 149 -637 203 -74 19
-227 50 -340 70 -174 30 -483 94 -542 111 -15 4 -15 8 -5 25 14 24 6 25 247
-30 96 -22 254 -54 350 -71 249 -44 413 -88 763 -207 169 -57 319 -103 333
-101 29 4 -581 211 -756 257 -63 17 -203 46 -310 66 -200 37 -471 95 -548 117
-40 12 -42 14 -29 33 15 19 18 18 193 -23 99 -23 292 -65 429 -92 280 -55 417
-92 656 -179 90 -33 239 -87 331 -120 93 -34 180 -61 195 -61 28 1 -226 98
-567 217 -227 79 -388 122 -635 168 -213 40 -565 123 -565 133 0 4 6 14 13 23
11 14 29 12 187 -28 96 -24 288 -67 425 -95 371 -74 459 -102 1032 -327 128
-50 245 -91 260 -90 23 0 17 4 -27 21 -30 12 -174 68 -320 125 -462 182 -595
223 -953 294 -110 21 -285 60 -389 86 -185 45 -188 47 -174 67 8 12 20 20 28
20 7 -1 103 -24 213 -52 110 -28 300 -71 423 -97 332 -68 485 -118 908 -295
309 -130 414 -170 443 -169 17 0 -5 12 -61 34 -48 19 -207 84 -354 145 -458
191 -585 233 -913 300 -228 47 -651 150 -651 159 0 3 7 14 14 24 13 16 22 15
167 -24 156 -41 463 -113 619 -144 216 -43 459 -130 865 -310 310 -137 429
-185 462 -185 18 0 -14 17 -92 49 -66 26 -244 102 -395 168 -441 193 -616 254
-905 312 -189 39 -685 162 -685 171 0 3 6 14 13 23 11 16 27 13 222 -38 116
-30 323 -80 460 -111 383 -85 539 -141 1041 -372 326 -151 449 -202 483 -202
15 0 -34 26 -124 64 -82 35 -269 118 -415 185 -445 205 -618 267 -945 337 -93
20 -267 61 -385 91 -118 31 -234 60 -257 66 -47 11 -49 15 -30 40 11 16 30 12
242 -44 127 -34 338 -85 470 -115 380 -86 537 -145 1035 -384 329 -158 518
-240 551 -239 29 0 35 -3 -121 63 -58 24 -247 111 -420 194 -533 254 -656 299
-1005 377 -88 20 -205 47 -260 61 -173 43 -450 117 -454 120 -2 2 4 12 13 23
14 16 23 18 49 10 78 -23 625 -161 747 -189 305 -69 445 -124 970 -380 448
-220 590 -283 622 -278 14 2 -7 14 -63 37 -46 18 -271 124 -499 236 -576 282
-692 326 -1090 420 -235 55 -692 173 -699 181 -11 11 26 35 48 31 100 -18
1036 -262 1114 -291 171 -62 302 -123 702 -326 356 -181 584 -290 606 -290 27
0 1 21 -58 45 -91 38 -298 140 -643 316 -157 80 -334 167 -393 192 -161 70
-381 141 -577 187 -142 33 -390 96 -714 181 -38 10 -39 11 -20 29 19 19 29 16
494 -101 261 -66 513 -131 560 -145 202 -61 451 -177 909 -422 271 -145 440
-227 448 -218 9 9 13 6 -157 91 -85 43 -252 129 -370 193 -238 128 -473 243
-595 292 -167 67 -294 104 -760 221 -264 66 -481 121 -482 123 -2 2 5 10 14
19 17 14 30 13 163 -18 333 -77 873 -220 986 -261 219 -79 398 -165 794 -384
326 -180 410 -222 410 -207 0 8 -19 22 -42 33 -23 10 -155 81 -293 157 -294
162 -562 299 -695 355 -184 78 -310 115 -795 237 -448 113 -488 124 -462 136
23 10 45 9 140 -11 189 -39 815 -199 937 -239 240 -81 459 -187 928 -450 150
-85 276 -151 279 -147 4 3 4 8 2 10 -13 14 -572 323 -714 396 -320 163 -465
214 -985 343 -212 53 -420 103 -463 112 -73 16 -77 18 -59 31 18 12 34 11 129
-7 309 -59 811 -187 999 -255 241 -87 449 -191 879 -439 118 -68 215 -118 215
-112 0 15 -417 256 -646 374 -202 104 -353 169 -518 222 -166 54 -623 170
-841 214 -141 28 -166 36 -149 45 24 13 134 -1 344 -44 169 -34 541 -128 672
-170 252 -81 539 -219 921 -442 114 -67 209 -122 212 -122 34 0 -188 137 -495
306 -219 121 -482 233 -681 292 -266 79 -689 176 -858 198 -42 5 -50 9 -36 17
39 21 375 -31 670 -105 452 -113 699 -216 1180 -496 99 -58 190 -112 203 -120
14 -9 22 -10 22 -3 0 39 -646 387 -911 491 -261 101 -749 223 -989 245 -100
10 -124 24 -40 25 291 0 816 -122 1170 -272 179 -76 469 -229 693 -367 73 -44
77 -46 77 -31 0 19 -440 269 -627 356 -364 170 -792 290 -1151 323 -57 5 -107
12 -110 15 -3 3 30 6 74 6 211 0 488 -44 731 -115 287 -83 590 -221 956 -437
65 -38 122 -67 125 -63 4 4 0 11 -8 16 -239 148 -592 331 -785 407 -295 115
-655 200 -856 203 -89 1 -47 17 47 18 429 5 984 -190 1572 -551 24 -14 32 -16
32 -6 0 24 -438 262 -655 355 -416 180 -800 252 -1105 208 -886 -127 -1678
-157 -2720 -105 -304 15 -715 46 -930 70 -47 5 -152 17 -235 25 -171 18 -279
30 -450 51 -66 8 -156 19 -200 24 -197 24 -633 81 -880 115 -55 7 -154 21
-220 30 -66 9 -163 23 -215 32 -127 20 -313 20 -423 -1 -222 -42 -376 -117
-881 -430 -60 -37 -114 -70 -121 -72 -7 -3 -26 7 -41 21 -16 15 -80 73 -143
129 -183 161 -515 463 -586 531 -23 22 -118 112 -210 200 -196 187 -319 309
-431 432 -150 162 -190 208 -227 259 -53 74 -130 142 -195 172 -49 23 -72 27
-167 29 -71 2 -135 -3 -180 -13z m670 -372 c-6 -7 -35 18 -35 31 0 5 9 2 20
-8 11 -10 18 -20 15 -23z m25 -42 c20 -11 64 -80 50 -80 -24 0 -43 16 -61 51
-20 41 -19 45 11 29z m110 -101 c0 -6 -4 -7 -10 -4 -5 3 -10 11 -10 16 0 6 5
7 10 4 6 -3 10 -11 10 -16z m-10 -50 c26 -51 25 -56 -10 -51 -30 4 -43 22 -64
90 -7 20 -5 21 24 11 20 -7 38 -25 50 -50z m79 -38 c26 -36 26 -40 0 -34 -19
5 -59 56 -59 76 0 14 38 -13 59 -42z m-62 -37 c14 -4 28 -23 42 -55 22 -55 17
-63 -35 -57 -22 2 -29 11 -40 48 -22 72 -19 78 33 64z m85 -24 c13 -6 33 -29
46 -50 l23 -40 -34 0 c-31 0 -36 4 -51 43 -23 62 -23 64 16 47z m118 -80 c15
-21 17 -30 8 -30 -21 0 -34 13 -52 48 -17 33 -17 33 3 23 11 -6 29 -24 41 -41z
m-114 -86 c9 -30 14 -57 12 -59 -1 -2 -24 -6 -49 -10 l-46 -7 -6 49 c-3 26 -9
56 -12 66 -6 15 -1 17 39 17 l45 0 17 -56z m85 21 c9 -16 20 -40 24 -52 6 -21
3 -23 -33 -23 -37 0 -39 2 -51 41 -7 23 -15 48 -18 56 -4 11 2 14 28 11 25 -2
37 -11 50 -33z m59 5 c10 -5 27 -25 39 -45 l20 -35 -32 0 c-29 0 -35 5 -47 38
-8 20 -16 40 -18 45 -5 10 16 9 38 -3z m113 -76 c18 -24 7 -34 -19 -16 -11 7
-34 45 -34 56 0 11 35 -16 53 -40z m-122 -51 c23 -62 23 -82 -2 -87 -67 -15
-66 -16 -83 77 l-7 37 41 0 c35 0 42 -4 51 -27z m64 21 c16 -4 61 -81 52 -90
-1 -1 -17 -4 -36 -6 -33 -3 -34 -1 -52 50 -19 56 -16 60 36 46z m-171 -19 c3
-8 8 -36 12 -62 l6 -48 -53 -22 c-29 -13 -53 -22 -54 -20 -1 1 -5 35 -8 75 -6
69 -5 74 16 82 35 14 74 11 81 -5z m249 -4 c13 -5 34 -26 46 -46 l21 -36 -32
3 c-26 2 -34 10 -49 46 -10 23 -16 42 -14 42 2 0 15 -4 28 -9z m112 -71 c18
-19 24 -30 14 -30 -20 0 -34 11 -48 38 -17 31 0 27 34 -8z m-103 -74 c10 -27
17 -51 14 -53 -2 -3 -21 -8 -41 -13 -33 -7 -37 -6 -46 17 -5 13 -12 42 -15 64
l-7 40 38 -3 c35 -3 39 -7 57 -52z m-104 -7 c17 -72 16 -74 -25 -88 -21 -7
-43 -15 -50 -17 -11 -5 -14 3 -29 103 -4 29 -2 33 28 42 59 17 64 15 76 -40z
m168 43 c13 -8 44 -66 44 -82 0 -5 -15 -10 -34 -10 -32 0 -35 3 -50 47 -9 26
-16 48 -16 50 0 6 45 3 56 -5z m72 -26 c15 -8 36 -29 46 -47 l19 -32 -24 6
c-13 4 -27 7 -31 7 -9 0 -51 80 -43 80 3 0 18 -6 33 -14z m-364 -23 c3 -16 8
-48 11 -73 l6 -45 -57 -30 c-32 -16 -61 -31 -66 -33 -4 -2 -8 35 -8 83 l0 86
43 19 c57 25 65 24 71 -7z m471 -43 c22 -22 25 -30 13 -30 -9 0 -26 14 -38 30
-12 17 -17 30 -13 30 5 0 22 -13 38 -30z m-201 -74 c9 -30 16 -56 16 -59 0 -6
-90 -40 -94 -36 -9 11 -25 124 -19 130 7 7 36 14 70 18 6 0 19 -23 27 -53z
m104 5 l20 -49 -30 -6 c-50 -10 -54 -8 -67 35 -7 23 -15 47 -18 55 -4 11 5 14
35 14 38 0 40 -2 60 -49z m65 32 c4 -2 16 -22 27 -44 l20 -39 -34 0 c-32 0
-37 4 -56 46 -11 26 -20 48 -20 50 0 5 50 -6 63 -13z m-289 -29 c3 -9 9 -39
12 -67 l6 -52 -56 -27 -56 -28 -4 23 c-3 12 -7 47 -10 78 l-4 57 36 15 c49 20
69 20 76 1z m382 -20 c41 -43 42 -53 8 -46 -23 4 -64 52 -64 75 0 17 25 5 56
-29z m-512 -36 c3 -13 7 -48 9 -78 l5 -55 -64 -47 -63 -47 -5 32 c-3 18 -8 57
-11 88 l-6 57 58 36 c31 20 61 36 65 36 4 0 10 -10 12 -22z m591 -8 c16 -16
24 -30 19 -30 -12 0 -35 18 -53 43 -22 28 3 19 34 -13z m1890 -15 c-168 -26
-335 -87 -510 -187 -49 -28 -196 -119 -325 -202 -129 -84 -257 -165 -283 -180
l-48 -28 -49 44 c-26 24 -48 46 -49 49 -2 12 520 325 634 380 225 108 344 138
560 137 l150 0 -80 -13z m-2082 -48 c9 -30 17 -56 17 -59 0 -5 -61 -21 -84
-22 -8 -1 -34 85 -36 116 0 6 27 12 71 17 10 1 21 -16 32 -52z m97 6 c11 -25
19 -47 18 -49 -2 -1 -19 -5 -39 -9 -36 -7 -37 -7 -53 41 -21 63 -21 64 19 64
31 0 36 -4 55 -47z m73 14 c4 -7 14 -24 23 -39 l15 -28 -35 0 c-30 0 -36 4
-50 40 -9 22 -16 43 -16 46 0 10 54 -7 63 -19z m-284 -24 c23 -94 25 -87 -33
-115 l-53 -26 -13 69 c-6 39 -10 72 -8 75 5 4 79 32 90 33 4 1 11 -16 17 -36z
m2439 31 c-3 -3 -46 -13 -94 -24 -229 -47 -371 -121 -846 -442 -128 -86 -258
-170 -288 -186 l-55 -30 -53 47 -52 48 72 43 c40 24 145 90 233 148 485 318
682 400 969 401 66 1 117 -1 114 -5z m-2095 -25 c13 -6 32 -25 42 -42 17 -28
17 -30 1 -24 -10 4 -23 7 -30 7 -7 0 -20 16 -29 35 -19 39 -18 40 16 24z
m2215 -5 c28 -8 29 -24 1 -24 -34 0 -221 -66 -301 -106 -120 -60 -241 -138
-455 -290 -258 -185 -374 -262 -455 -304 l-64 -33 -52 39 c-28 21 -51 43 -51
47 -1 4 13 16 31 25 17 9 180 116 362 237 416 276 577 358 786 400 71 14 162
18 198 9z m95 -1 c-7 -2 -21 -2 -30 0 -10 3 -4 5 12 5 17 0 24 -2 18 -5z
m-2768 -107 l6 -51 -56 -34 c-31 -18 -58 -31 -60 -30 -5 6 -26 151 -22 155 2
2 28 17 58 34 l54 29 7 -25 c4 -15 9 -49 13 -78z m2884 78 c17 -4 28 -10 25
-15 -7 -13 -34 -10 -69 6 -25 11 -27 14 -9 14 12 1 35 -2 53 -5z m94 -1 c-7
-2 -19 -2 -25 0 -7 3 -2 5 12 5 14 0 19 -2 13 -5z m-2410 -31 c9 -8 17 -19 17
-24 0 -14 -39 11 -51 33 -12 24 -1 20 34 -9z m2238 14 c30 -13 32 -15 14 -21
-222 -72 -387 -168 -734 -429 -231 -174 -382 -276 -482 -326 l-81 -41 -53 43
c-36 28 -50 46 -42 51 7 4 69 42 139 86 69 43 204 134 300 203 386 278 558
375 762 428 87 23 133 24 177 6z m398 -12 c2 -2 -7 -4 -22 -4 -14 0 -29 5 -32
10 -6 10 42 4 54 -6z m-94 -4 c18 -7 19 -8 3 -15 -10 -4 -35 0 -55 8 l-38 16
35 0 c19 0 44 -4 55 -9z m-2741 -33 c29 -70 29 -74 -1 -81 -15 -4 -35 -9 -44
-12 -13 -3 -19 6 -28 39 -6 25 -13 51 -17 60 -6 16 10 24 53 26 17 1 26 -8 37
-32z m72 25 c6 -4 21 -26 33 -50 l22 -43 -42 3 c-39 3 -42 5 -59 51 l-18 47
26 0 c15 0 32 -4 38 -8z m2572 -3 c18 -6 29 -15 26 -20 -9 -15 -57 -9 -94 11
l-35 19 36 1 c20 0 50 -5 67 -11z m-2473 -21 c5 -6 35 -67 35 -71 0 -2 -14 -2
-30 1 -24 3 -36 14 -50 43 -11 21 -20 40 -20 43 0 4 60 -10 65 -16z m2380 1
l48 -21 -119 -57 c-148 -72 -297 -172 -579 -391 -121 -94 -266 -203 -322 -241
-96 -65 -272 -159 -299 -159 -7 0 -33 19 -59 43 l-48 43 64 32 c98 48 233 139
479 322 266 198 391 281 520 345 76 39 232 101 261 104 4 1 28 -9 54 -20z
m382 9 c39 -9 43 -12 25 -19 -21 -8 -82 9 -82 23 0 10 3 10 57 -4z m98 2 l20
-9 -20 0 c-11 0 -27 4 -35 9 -13 9 -13 10 0 9 8 0 24 -4 35 -9z m-3540 -82
l13 -73 -46 -42 c-26 -24 -50 -43 -54 -43 -9 0 -48 106 -48 133 0 15 18 35 57
64 32 23 59 40 61 38 3 -2 10 -37 17 -77z m411 32 c8 -25 14 -50 14 -56 0 -11
-88 -50 -94 -43 -5 7 -26 97 -26 114 0 19 35 35 69 32 19 -2 27 -11 37 -47z
m2968 25 l31 -13 -27 -7 c-17 -4 -45 0 -75 11 -43 17 -45 19 -23 25 27 7 46 4
94 -16z m-102 -17 l50 -21 -29 -12 c-23 -10 -36 -8 -75 9 -53 23 -59 33 -25
39 12 2 23 5 25 6 2 0 26 -9 54 -21z m393 6 l40 -14 -48 4 c-27 2 -54 9 -60
15 -15 15 17 13 68 -5z m95 6 c12 -8 12 -10 -5 -10 -11 0 -27 5 -35 10 -12 8
-12 10 5 10 11 0 27 -5 35 -10z m-3471 -57 c16 -79 16 -77 -39 -111 l-50 -31
-6 27 c-3 15 -10 43 -15 62 -5 19 -9 41 -9 47 0 11 82 61 101 63 3 0 11 -26
18 -57z m472 26 c16 -17 29 -35 29 -40 0 -19 -46 10 -63 40 -25 41 -5 41 34 0z
m2814 12 c37 -16 38 -18 17 -25 -30 -10 -124 24 -96 35 28 11 35 10 79 -10z
m-390 -23 c25 -12 45 -24 45 -27 -1 -4 -28 -19 -62 -36 -101 -49 -282 -175
-468 -325 -443 -357 -557 -435 -747 -509 l-53 -21 -49 43 c-27 23 -50 44 -50
48 -1 3 22 13 49 23 109 39 266 145 590 396 247 192 314 240 425 306 80 47
239 122 262 123 7 1 33 -9 58 -21z m301 1 c37 -15 45 -22 34 -29 -23 -15 -43
-12 -96 12 -46 20 -48 22 -24 29 37 10 34 11 86 -12z m418 1 c16 -16 -44 -11
-79 6 -30 14 -30 14 20 9 27 -3 54 -10 59 -15z m72 11 c-3 -5 -15 -7 -26 -4
-28 7 -25 13 6 13 14 0 23 -4 20 -9z m-171 -21 l30 -13 -28 -7 c-29 -9 -107
15 -107 33 0 12 63 4 105 -13z m380 0 l20 -9 -20 0 c-11 0 -27 4 -35 9 -13 9
-13 10 0 9 8 0 24 -4 35 -9z m-3350 -20 c27 -30 12 -34 -15 -5 -13 14 -19 25
-13 25 5 0 18 -9 28 -20z m2575 -4 l45 -24 -28 -13 c-24 -11 -34 -9 -77 11
-51 24 -60 34 -37 43 25 11 53 5 97 -17z m290 8 c45 -18 51 -31 17 -39 -30 -8
-125 34 -106 46 20 13 44 11 89 -7z m404 7 c38 -15 -11 -21 -51 -6 l-38 14 35
0 c19 0 44 -4 54 -8z m-3939 -77 c9 -41 15 -77 13 -78 -1 -1 -22 -17 -46 -35
-24 -19 -47 -30 -51 -25 -5 5 -18 37 -29 71 l-21 63 32 23 c28 20 79 55 83 56
1 1 10 -33 19 -75z m3843 65 c35 -12 34 -29 -2 -29 -24 0 -96 26 -96 35 0 9
67 5 98 -6z m-3350 -46 c11 -27 18 -51 14 -55 -4 -3 -22 -8 -41 -10 -31 -3
-35 0 -46 32 -29 85 -30 80 13 80 37 0 40 -2 60 -47z m50 41 c19 -5 62 -67 62
-89 0 -11 -68 -4 -73 8 -3 6 -12 29 -21 50 -17 40 -14 43 32 31z m3626 -14
c16 -16 -44 -11 -79 6 -30 14 -30 14 20 9 27 -3 54 -10 59 -15z m76 11 c0 -4
-11 -6 -25 -3 -14 2 -25 6 -25 8 0 2 11 4 25 4 14 0 25 -4 25 -9z m-3852 -56
l20 -56 -35 -14 c-54 -23 -60 -19 -74 38 -18 69 -18 70 11 78 51 14 57 11 78
-46z m2759 27 l53 -27 -138 -92 c-75 -50 -254 -189 -397 -308 -399 -333 -512
-411 -701 -485 l-104 -41 -55 44 -54 45 47 17 c142 54 308 159 522 331 74 59
195 157 268 215 154 124 291 218 412 283 47 25 87 46 90 45 3 0 29 -12 57 -27z
m312 4 l43 -23 -30 -12 c-26 -11 -36 -10 -83 15 -46 23 -51 28 -34 35 33 13
58 9 104 -15z m296 5 c39 -17 39 -18 18 -30 -19 -10 -31 -8 -73 10 -27 12 -47
25 -44 30 9 14 56 10 99 -10z m310 -1 l30 -12 -24 -9 c-30 -12 -120 19 -99 33
15 10 48 5 93 -12z m-3417 -13 c7 -6 20 -24 29 -40 15 -29 15 -30 -9 -24 -12
4 -26 7 -30 7 -4 0 -17 18 -28 41 l-21 41 23 -7 c13 -4 29 -12 36 -18z m3807
13 l20 -9 -20 0 c-11 0 -27 4 -35 9 -13 9 -13 10 0 9 8 0 24 -4 35 -9z m-792
-24 c26 -10 47 -22 47 -26 0 -4 -11 -12 -25 -18 -22 -10 -34 -8 -77 14 -52 26
-52 26 -27 40 13 7 26 12 29 11 3 -1 26 -10 53 -21z m298 7 c56 -20 61 -29 21
-38 -18 -4 -45 2 -77 16 -53 24 -53 23 4 38 2 1 25 -7 52 -16z m413 8 c37 -14
-15 -19 -54 -5 l-35 12 35 1 c19 0 44 -4 54 -8z m-4093 -66 c10 -32 17 -60 16
-61 -6 -5 -87 -44 -91 -44 -4 0 -13 25 -41 117 -5 14 62 54 84 50 7 -1 22 -29
32 -62z m3088 36 l55 -28 -29 -16 c-28 -14 -33 -13 -90 16 l-60 30 30 13 c38
17 31 18 94 -15z m911 14 l35 -13 -28 -7 c-26 -7 -79 7 -101 27 -15 13 55 8
94 -7z m409 -1 c10 -9 -35 -3 -49 6 -11 8 -7 9 15 4 17 -4 32 -8 34 -10z m-99
-3 c24 -7 24 -8 4 -14 -11 -4 -38 -1 -60 7 l-39 15 35 -1 c19 0 46 -3 60 -7z
m3387 3 c-3 -3 -12 -4 -19 -1 -8 3 -5 6 6 6 11 1 17 -2 13 -5z m-7242 -31 c30
-34 32 -43 5 -36 -21 6 -58 63 -41 63 6 0 22 -12 36 -27z m3150 3 l50 -23 -28
-13 c-24 -12 -33 -11 -77 10 -53 25 -61 36 -32 43 31 8 36 7 87 -17z m309 6
c39 -17 39 -17 14 -29 -20 -9 -34 -7 -77 12 -32 13 -48 25 -40 28 27 10 64 6
103 -11z m291 7 c45 -11 52 -29 13 -29 -30 0 -98 22 -98 32 0 11 33 10 85 -3z
m411 -7 c-10 -2 -22 0 -28 6 -6 6 0 7 19 4 21 -5 23 -7 9 -10z m-1304 -18 l52
-26 -29 -15 c-26 -14 -32 -13 -87 13 -56 27 -58 28 -36 41 32 18 42 16 100
-13z m1207 20 c17 -4 28 -10 25 -15 -7 -13 -34 -10 -69 6 -25 11 -27 14 -9 14
12 1 35 -2 53 -5z m2978 0 c-3 -3 -12 -4 -19 -1 -8 3 -5 6 6 6 11 1 17 -2 13
-5z m133 -4 c0 -5 -18 -10 -41 -10 -24 0 -38 4 -34 10 3 6 22 10 41 10 19 0
34 -4 34 -10z m-4625 -27 c30 -15 55 -30 55 -33 0 -3 -28 -23 -63 -46 -91 -60
-236 -177 -472 -383 -357 -312 -516 -418 -733 -491 l-92 -31 -49 38 c-28 21
-50 41 -50 44 -1 4 27 16 62 29 202 73 331 160 712 480 239 201 385 312 494
376 42 24 77 44 78 44 1 0 27 -12 58 -27z m848 -10 c23 -7 21 -18 -6 -30 -18
-8 -35 -5 -82 16 l-60 27 30 11 c23 8 38 7 65 -4 19 -9 43 -17 53 -20z m288
14 l34 -15 -27 -10 c-22 -9 -37 -7 -79 10 -42 18 -48 23 -33 30 23 9 61 4 105
-15z m284 12 c45 -11 52 -29 13 -29 -38 0 -100 23 -86 32 17 10 21 10 73 -3z
m410 1 c13 -6 15 -9 5 -9 -8 0 -22 4 -30 9 -18 12 -2 12 25 0z m-5265 -12 c0
-7 11 -39 24 -70 l23 -57 -26 -25 c-15 -14 -32 -26 -38 -26 -6 0 -28 25 -49
56 l-39 56 44 39 c46 41 61 47 61 27z m308 -35 c6 -27 14 -57 17 -68 5 -16 -4
-27 -39 -52 -41 -29 -47 -31 -54 -15 -14 25 -45 123 -41 126 12 9 95 56 100
56 3 0 11 -21 17 -47z m3700 -8 c1 -1 -8 -10 -22 -18 -23 -16 -28 -15 -85 11
-33 15 -60 30 -61 33 0 3 12 10 28 15 22 8 38 5 82 -14 30 -13 56 -25 58 -27z
m1176 46 c38 -15 -11 -21 -51 -6 l-38 14 35 0 c19 0 44 -4 54 -8z m2676 -1 c0
-5 -18 -10 -41 -10 -24 0 -38 4 -34 10 3 6 22 10 41 10 19 0 34 -4 34 -10z
m-3081 -19 c42 -17 44 -19 24 -30 -18 -9 -33 -7 -80 11 -52 20 -56 22 -33 29
36 10 40 10 89 -10z m297 8 c31 -8 42 -15 35 -22 -7 -7 -28 -6 -66 3 -36 9
-51 16 -43 22 17 10 21 10 74 -3z m417 4 c-7 -2 -19 -2 -25 0 -7 3 -2 5 12 5
14 0 19 -2 13 -5z m2495 -2 c22 -13 -13 -22 -60 -15 -27 5 -35 10 -26 15 17
11 69 11 86 0z m-7013 -31 c3 -6 -1 -10 -9 -10 -8 0 -20 9 -26 21 -11 19 -10
20 9 10 11 -6 23 -16 26 -21z m2684 1 l54 -28 -24 -16 c-31 -22 -33 -22 -97
14 -54 32 -54 32 -31 45 32 18 36 17 98 -15z m812 12 c54 -20 60 -28 27 -39
-28 -10 -35 -8 -95 18 -41 18 -45 22 -28 29 30 12 43 11 96 -8z m949 7 c11 -7
8 -9 -15 -9 -16 1 -41 5 -55 9 -22 7 -20 8 15 9 22 0 47 -4 55 -9z m300 0 c18
-12 2 -12 -25 0 -13 6 -15 9 -5 9 8 0 22 -4 30 -9z m1923 -2 c-15 -7 -30 -7
-50 0 -26 10 -24 10 22 11 42 0 46 -2 28 -11z m-6953 -54 c11 -31 19 -57 18
-58 -2 -1 -20 -7 -41 -13 -37 -11 -38 -11 -53 25 -8 21 -18 49 -21 64 -5 24
-2 27 28 31 19 2 37 5 41 5 4 1 16 -23 28 -54z m98 10 c13 -26 22 -47 20 -49
-6 -4 -78 -14 -78 -10 0 2 -9 27 -20 55 l-20 50 38 0 c35 0 40 -3 60 -46z m48
36 c12 0 64 -69 64 -85 0 -3 -15 -5 -33 -5 -29 0 -36 5 -55 45 -26 54 -27 59
-6 51 9 -3 22 -6 30 -6z m3333 -11 c57 -24 62 -34 28 -50 -20 -9 -34 -6 -83
19 -57 29 -58 31 -34 41 34 13 31 14 89 -10z m828 4 c50 -16 52 -18 31 -29
-17 -9 -30 -9 -62 2 -74 26 -73 25 -51 34 27 12 22 12 82 -7z m317 6 c34 -9
37 -13 22 -21 -19 -10 -116 9 -116 24 0 11 48 10 94 -3z m316 2 c18 -5 21 -9
10 -13 -8 -3 -33 1 -55 7 -37 12 -38 13 -10 13 17 0 41 -3 55 -7z m1810 -7 c0
-2 -19 -4 -42 -4 -26 0 -38 4 -30 8 12 8 72 4 72 -4z m354 7 c8 -13 -22 -18
-73 -13 -29 3 -39 7 -30 13 18 11 96 12 103 0z m-3884 -81 c-24 -18 -25 -18
-85 12 -33 17 -62 32 -63 33 -2 2 9 10 24 18 27 14 32 13 88 -15 l60 -30 -24
-18z m781 63 c27 -10 49 -20 49 -23 0 -3 -9 -11 -19 -17 -15 -10 -30 -8 -75
10 -59 23 -68 32 -38 40 29 8 33 7 83 -10z m879 -15 c0 -11 -33 -10 -88 4 -41
10 -44 13 -22 18 29 7 110 -9 110 -22z m285 23 c23 -5 26 -8 13 -13 -16 -6
-88 8 -88 17 0 6 38 4 75 -4z m312 3 c-3 -3 -12 -4 -19 -1 -8 3 -5 6 6 6 11 1
17 -2 13 -5z m1412 -15 c-17 -10 -54 -11 -88 -2 -20 5 -22 7 -8 12 26 10 112
0 96 -10z m327 11 c37 0 46 -15 14 -25 -24 -8 -110 4 -110 15 0 11 30 19 48
14 8 -2 29 -4 48 -4z m-6942 -61 l19 -32 -29 7 c-16 4 -30 8 -30 9 -6 8 -34
67 -34 72 0 16 57 -27 74 -56z m3446 28 l45 -19 -30 -15 c-28 -13 -34 -12 -89
13 -58 26 -58 27 -35 40 26 14 39 12 109 -19z m801 22 c19 -6 41 -13 49 -16
12 -3 12 -6 -4 -15 -14 -8 -34 -6 -78 8 -46 14 -56 20 -42 25 27 11 37 10 75
-2z m874 1 c29 -7 29 -8 -10 -9 -22 0 -47 4 -55 9 -12 8 -10 9 10 9 14 -1 39
-5 55 -9z m900 0 c28 -7 28 -8 -12 -9 -23 0 -45 4 -48 9 -7 11 16 11 60 0z
m228 3 c-13 -2 -35 -2 -50 0 -16 2 -5 4 22 4 28 0 40 -2 28 -4z m-6625 -60
c12 -31 20 -57 19 -58 -1 0 -20 -9 -41 -18 -44 -20 -47 -19 -69 41 -23 58 -21
69 11 80 51 19 58 15 80 -45z m3025 -28 c-79 -57 -236 -189 -382 -321 -482
-437 -628 -535 -908 -613 l-73 -20 -51 41 -52 41 106 37 c222 78 343 161 732
500 222 194 351 298 454 368 l74 50 64 -31 64 -32 -28 -20z m1304 68 c29 -9
53 -20 53 -24 0 -16 -58 -19 -98 -5 -61 22 -69 28 -46 37 28 11 32 11 91 -8z
m846 11 c20 -4 37 -11 37 -17 0 -12 -99 -2 -114 13 -12 12 18 13 77 4z m567
-4 c0 -11 -21 -11 -65 0 -27 7 -25 8 18 9 26 0 47 -3 47 -9z m225 0 c7 -12
-29 -12 -65 0 -21 7 -19 8 17 9 23 1 45 -3 48 -9z m219 0 c-7 -7 -24 -7 -50
-1 l-39 9 50 1 c33 1 46 -2 39 -9z m590 1 c9 -14 -14 -19 -54 -13 -57 8 -59
22 -3 22 29 0 54 -4 57 -9z m329 3 c31 -6 35 -9 25 -21 -11 -14 -47 -13 -102
4 -15 4 -16 7 -5 14 17 10 32 11 82 3z m-7498 -75 l28 -71 -29 -24 c-16 -13
-32 -23 -36 -24 -12 0 -78 93 -77 110 0 11 49 57 85 79 0 1 13 -31 29 -70z
m3899 45 c31 -14 56 -27 56 -30 0 -2 -11 -11 -24 -19 -23 -15 -28 -14 -87 16
-62 31 -63 31 -38 45 32 17 28 18 93 -12z m576 -24 c0 -3 -9 -11 -21 -18 -17
-11 -29 -10 -80 10 -32 13 -59 26 -59 29 0 3 10 10 22 16 17 7 37 5 80 -11 32
-12 58 -23 58 -26z m787 39 c43 -11 44 -13 23 -24 -18 -10 -32 -9 -71 3 -86
28 -47 44 48 21z m535 5 c21 -4 35 -10 32 -15 -7 -12 -41 -10 -89 6 -38 12
-39 13 -10 14 17 0 47 -2 67 -5z m246 -10 c51 -12 -7 -21 -62 -11 -38 8 -45
12 -30 18 18 7 34 6 92 -7z m691 0 c13 -12 -15 -15 -66 -9 -42 5 -52 10 -38
15 18 7 94 2 104 -6z m216 6 c7 -11 -4 -13 -50 -10 -57 4 -63 19 -8 20 28 0
55 -4 58 -10z m355 -6 c22 -5 23 -7 7 -16 -20 -11 -117 -1 -117 12 0 17 41 18
110 4z m-2346 -13 l49 -17 -29 -12 c-24 -10 -36 -10 -64 1 -19 8 -44 17 -55
21 -16 6 -17 9 -5 16 21 13 47 11 104 -9z m531 5 c47 -13 49 -14 25 -23 -18
-8 -38 -6 -70 3 -25 8 -49 14 -55 14 -16 0 18 20 35 20 8 0 38 -6 65 -14z
m785 4 l25 -7 -25 -7 c-14 -4 -45 0 -70 8 l-45 14 45 0 c25 0 56 -3 70 -8z
m224 1 c16 -6 17 -9 5 -13 -17 -6 -96 6 -106 16 -9 9 78 6 101 -3z m1169 -8
c18 -5 18 -6 -1 -19 -16 -11 -31 -12 -77 -2 -53 10 -56 13 -39 25 18 13 64 12
117 -4z m-6859 -5 c31 -14 64 -58 43 -58 -15 0 -34 15 -61 48 -22 25 -18 27
18 10z m2797 -19 l60 -30 -25 -20 -25 -20 -68 34 -67 34 30 16 c16 9 30 16 32
17 1 0 30 -14 63 -31z m519 3 l62 -29 -28 -17 c-26 -18 -28 -18 -85 10 -33 15
-59 31 -59 34 0 4 10 12 23 18 12 6 23 11 23 11 1 1 29 -12 64 -27z m528 1
c46 -16 52 -27 23 -43 -14 -7 -30 -5 -58 6 -21 9 -49 21 -63 26 l-25 10 25 13
c14 8 32 12 40 9 8 -4 34 -13 58 -21z m530 4 c47 -13 54 -24 17 -33 -26 -6
-125 22 -125 36 0 11 31 19 50 13 8 -2 34 -9 58 -16z m532 11 c47 -11 49 -13
30 -23 -17 -9 -34 -8 -76 3 -36 10 -50 18 -42 24 17 10 28 10 88 -4z m1145 -3
c32 -6 36 -8 22 -17 -20 -11 -127 0 -127 12 0 10 29 19 50 15 8 -2 33 -6 55
-10z m230 6 c19 -8 19 -8 0 -18 -22 -11 -122 7 -109 20 9 9 83 8 109 -2z
m-6806 -63 c16 -48 18 -64 8 -70 -25 -17 -69 -39 -72 -36 -7 8 -43 85 -49 105
-6 18 -1 25 31 42 21 11 43 20 50 21 6 0 21 -28 32 -62z m5694 45 c5 -3 3 -10
-7 -15 -21 -12 -128 11 -119 25 6 10 107 2 126 -10z m202 3 c37 -11 38 -13 17
-20 -31 -10 -135 14 -107 25 27 10 43 10 90 -5z m216 3 c36 -8 47 -14 38 -20
-19 -12 -46 -11 -94 2 -39 11 -39 14 2 28 1 1 25 -4 54 -10z m252 1 c9 0 17
-4 17 -9 0 -18 -34 -21 -88 -9 -42 9 -50 14 -36 20 11 4 35 5 54 3 19 -3 43
-5 53 -5z m814 -4 c3 -2 2 -9 -2 -15 -8 -14 -49 -14 -99 0 -30 8 -36 13 -25
20 13 10 116 5 126 -5z m-3583 -56 c4 -4 -3 -16 -17 -24 -24 -16 -28 -15 -83
11 -33 15 -61 29 -64 31 -3 2 6 11 19 21 24 18 26 18 80 -6 31 -14 60 -28 65
-33z m471 31 l60 -27 -26 -17 c-24 -16 -28 -16 -88 10 l-63 27 22 18 c27 22
22 22 95 -11z m536 0 l44 -19 -26 -12 c-22 -10 -36 -9 -89 11 -60 22 -61 23
-38 36 26 14 46 12 109 -16z m515 18 c53 -14 64 -26 30 -35 -33 -8 -145 24
-125 37 19 12 41 11 95 -2z m1848 -9 c18 -18 -29 -28 -79 -17 -60 13 -64 15
-45 28 16 10 110 2 124 -11z m-1615 -2 c55 -12 65 -24 27 -34 -31 -8 -144 25
-125 37 19 12 38 11 98 -3z m1361 1 c48 -10 50 -12 32 -25 -17 -12 -30 -12
-74 -2 -63 14 -67 16 -48 28 19 12 29 12 90 -1z m583 -4 c40 -8 45 -16 23 -34
-10 -8 -27 -8 -67 1 -66 14 -65 14 -49 33 8 10 22 14 34 11 12 -2 38 -8 59
-11z m-3008 -21 l65 -26 -24 -19 c-24 -19 -25 -18 -82 7 -73 32 -72 31 -48 49
24 18 13 19 89 -11z m532 9 c59 -18 64 -25 31 -40 -23 -10 -41 -6 -123 27 -28
11 -28 13 -10 20 30 13 43 12 102 -7z m778 3 c38 -12 39 -13 18 -24 -18 -10
-34 -9 -83 5 -39 11 -56 19 -48 25 18 11 66 9 113 -6z m233 -3 c36 -6 42 -19
12 -28 -23 -7 -130 14 -130 26 0 13 24 18 55 13 17 -3 45 -8 63 -11z m215 2
c47 -9 55 -22 18 -30 -30 -6 -121 12 -121 25 0 12 22 19 45 15 11 -2 37 -7 58
-10z m221 2 c41 -11 46 -14 33 -25 -12 -11 -27 -11 -76 -1 -61 13 -76 24 -43
32 28 8 35 7 86 -6z m261 -4 c15 -5 15 -8 -5 -18 -18 -10 -35 -9 -82 3 -42 10
-56 18 -46 24 13 9 102 3 133 -9z m-2751 -22 l59 -27 -28 -18 c-27 -17 -28
-17 -89 9 -76 34 -74 32 -50 50 26 20 39 18 108 -14z m1257 14 c79 -27 76 -25
47 -41 -24 -12 -33 -11 -89 10 -55 20 -60 25 -43 34 25 15 34 15 85 -3z m2077
-4 c11 -6 10 -10 -3 -21 -12 -10 -26 -10 -75 0 -51 11 -58 15 -48 27 9 11 24
13 62 8 27 -3 56 -10 64 -14z m-6744 -43 c11 -26 18 -49 15 -52 -2 -2 -20 -6
-39 -10 -35 -6 -35 -5 -56 49 -24 59 -20 65 31 62 25 -2 32 -9 49 -49z m94 7
c12 -25 22 -48 22 -50 0 -3 -17 -5 -37 -5 -35 0 -39 3 -55 43 -24 56 -23 57
15 57 29 0 36 -5 55 -45z m172 23 c0 -6 -6 -5 -15 2 -8 7 -15 14 -15 16 0 2 7
1 15 -2 8 -4 15 -11 15 -16z m3877 1 c72 -27 71 -26 47 -44 -21 -17 -41 -14
-110 15 -44 19 -46 21 -28 35 25 19 23 19 91 -6z m763 4 c33 -10 60 -21 60
-24 0 -3 -10 -10 -22 -16 -18 -8 -39 -5 -88 12 -57 19 -62 23 -45 33 26 15 26
15 95 -5z m1589 5 c40 -9 48 -14 40 -25 -14 -16 -40 -16 -104 0 -45 12 -48 14
-30 25 25 14 33 15 94 0z m-7236 -65 c21 -30 32 -55 26 -58 -11 -7 -89 35
-109 60 -11 13 -9 19 10 40 13 14 27 22 30 18 4 -5 23 -31 43 -60z m247 55 c0
-7 11 -36 24 -64 l24 -52 -29 -21 c-15 -11 -32 -21 -38 -21 -5 0 -26 25 -46
56 -35 53 -36 56 -19 69 11 7 28 20 39 29 24 19 45 20 45 4z m397 -54 l21 -52
-40 -15 -40 -16 -24 55 c-13 30 -24 58 -24 63 0 11 73 30 81 22 3 -3 15 -29
26 -57z m263 39 c20 -26 20 -28 4 -40 -25 -18 -27 -17 -51 27 l-21 40 23 0
c14 0 33 -11 45 -27z m2976 -61 l-24 -24 -61 33 c-34 19 -61 37 -61 41 0 4 10
14 21 22 20 13 27 12 85 -17 l64 -31 -24 -24z m489 60 l60 -28 -27 -18 c-26
-17 -29 -17 -87 10 -65 28 -72 37 -43 53 25 15 31 14 97 -17z m801 -24 c4 -4
-5 -13 -19 -19 -22 -10 -36 -8 -88 11 -61 23 -62 24 -41 41 20 16 24 16 81 -5
33 -12 63 -25 67 -28z m714 33 c53 -16 54 -18 32 -30 -20 -11 -35 -10 -89 5
-58 16 -63 19 -47 31 23 17 36 16 104 -6z m280 -21 c0 -20 -48 -26 -95 -13
-83 23 -83 23 -56 37 19 11 35 10 87 -3 35 -8 64 -18 64 -21z m628 21 c54 -12
59 -16 32 -31 -17 -9 -34 -9 -73 1 -29 6 -56 14 -60 16 -13 8 26 33 43 28 8
-2 34 -9 58 -14z m222 8 c42 -9 49 -13 39 -25 -14 -17 -39 -17 -104 -1 -45 12
-48 14 -30 25 25 14 33 14 95 1z m-685 -10 c71 -18 72 -19 44 -34 -22 -12 -33
-12 -80 2 -64 18 -68 21 -49 33 19 12 36 12 85 -1z m234 -1 c55 -12 60 -18 34
-34 -13 -8 -35 -6 -83 6 -57 14 -63 17 -45 28 25 15 32 15 94 0z m1059 -5 c35
-6 40 -14 17 -33 -12 -10 -27 -10 -75 0 -34 7 -63 16 -66 21 -8 14 30 29 61
23 17 -3 45 -8 63 -11z m-6663 -2 c10 -17 -12 -21 -25 -6 -10 12 -10 15 3 15
9 0 18 -4 22 -9z m3611 -7 c22 -9 50 -20 63 -25 l23 -9 -25 -20 -25 -20 -64
27 c-78 33 -75 30 -52 48 24 19 33 18 80 -1z m773 -5 l64 -22 -24 -17 c-22
-17 -25 -17 -69 -1 -25 10 -54 21 -65 25 -20 7 -20 8 -1 22 25 18 20 18 95 -7z
m2011 12 c19 -5 48 -12 63 -15 l28 -7 -22 -18 c-22 -17 -26 -17 -78 -3 -68 19
-67 18 -51 37 15 18 15 18 60 6z m-3285 -28 c30 -15 55 -30 55 -35 0 -4 -10
-14 -21 -22 -20 -14 -27 -12 -83 16 -76 38 -73 35 -50 53 26 20 36 19 99 -12z
m802 -37 c-9 -27 -52 -28 -112 -1 l-59 27 23 17 c23 18 26 17 88 -7 35 -14 62
-30 60 -36z m702 43 c60 -21 62 -22 41 -36 -22 -16 -49 -12 -129 19 -25 9 -25
10 -7 24 25 18 20 18 95 -7z m1604 0 c47 -11 48 -12 30 -30 -17 -17 -21 -17
-80 -2 -35 8 -63 19 -63 24 0 13 33 29 50 24 8 -2 37 -9 63 -16z m-6641 -46
l25 -58 -31 -17 c-17 -9 -36 -17 -41 -18 -9 0 -65 100 -65 116 0 6 61 33 76
34 6 0 23 -26 36 -57z m5268 40 c33 -10 60 -21 60 -24 0 -3 -11 -11 -24 -18
-20 -11 -33 -10 -86 10 -56 20 -61 24 -44 36 23 16 23 16 94 -4z m235 -8 l59
-17 -23 -18 c-23 -17 -26 -16 -87 3 -35 12 -64 24 -64 28 0 7 43 28 50 24 3
-1 32 -10 65 -20z m929 4 l40 -11 -23 -17 c-22 -17 -28 -17 -75 -4 -84 24 -81
22 -60 38 19 16 42 14 118 -6z m-5956 -17 c13 -20 13 -22 -5 -22 -10 0 -28 7
-39 15 -16 13 -17 16 -4 25 20 13 30 9 48 -18z m3281 2 c34 -15 61 -29 61 -33
0 -3 -11 -13 -23 -22 -22 -16 -26 -15 -92 15 l-69 32 24 17 c31 22 28 22 99
-9z m745 4 c34 -12 63 -23 66 -26 3 -2 -5 -12 -18 -22 -22 -18 -24 -18 -85 7
-76 31 -77 31 -53 49 25 17 18 18 90 -8z m1229 5 l60 -16 -23 -19 c-12 -10
-25 -16 -29 -14 -3 2 -33 11 -66 21 -55 16 -58 18 -40 31 24 18 26 18 98 -3z
m236 -1 l55 -17 -25 -16 c-22 -14 -30 -14 -88 4 -59 18 -63 21 -46 33 24 17
37 17 104 -4z m220 6 c54 -12 60 -18 36 -38 -13 -10 -28 -10 -80 5 -63 17 -78
28 -52 38 20 9 43 8 96 -5z m-5650 -30 c33 -34 35 -46 3 -29 -22 12 -57 61
-43 61 5 0 23 -14 40 -32z m4206 3 c53 -20 58 -29 28 -47 -14 -9 -32 -6 -86
14 l-69 25 24 18 c25 20 26 19 103 -10z m2253 18 c58 -14 65 -21 50 -42 -12
-15 -18 -15 -78 0 -78 19 -80 21 -56 39 24 17 25 17 84 3z m-7345 -86 c11 -13
19 -25 16 -27 -12 -11 -71 10 -101 35 l-33 29 29 25 28 26 20 -33 c11 -18 29
-43 41 -55z m4342 58 l60 -27 -27 -18 c-27 -18 -29 -18 -93 9 -36 16 -65 30
-65 33 0 9 35 31 50 31 8 0 42 -12 75 -28z m980 0 c53 -20 58 -29 28 -47 -14
-9 -32 -6 -86 14 l-69 25 24 18 c25 20 26 19 103 -10z m1811 13 c65 -17 65
-17 46 -36 -18 -18 -21 -18 -86 -2 -64 16 -66 17 -50 35 20 23 11 22 90 3z
m-3321 -26 l65 -32 -27 -22 -28 -22 -60 30 c-33 17 -62 32 -64 34 -6 5 30 44
40 44 5 0 38 -14 74 -32z m778 -10 c32 -12 33 -19 8 -42 -17 -16 -22 -15 -82
11 -35 14 -66 28 -69 31 -3 2 6 12 18 23 22 17 26 18 60 3 21 -9 49 -20 65
-26z m960 16 c31 -10 57 -20 57 -23 0 -4 -10 -12 -22 -20 -18 -11 -30 -10 -90
10 -68 24 -68 24 -46 41 13 10 28 16 33 14 6 -2 36 -12 68 -22z m1363 10 c65
-17 65 -17 46 -36 -19 -19 -21 -19 -83 -2 -78 21 -77 21 -53 39 24 18 13 18
90 -1z m-6671 -41 c11 -26 22 -51 23 -55 2 -4 -18 -8 -45 -8 -43 0 -51 3 -66
29 -9 16 -17 32 -17 35 0 8 62 46 75 46 6 0 19 -21 30 -47z m5531 31 c63 -21
68 -27 46 -47 -17 -16 -23 -16 -83 4 -78 27 -79 27 -55 45 25 18 32 18 92 -2z
m229 -5 c67 -20 68 -21 49 -40 -19 -19 -21 -19 -84 2 -36 12 -67 24 -69 26 -3
2 27 31 35 33 1 0 32 -9 69 -21z m230 0 c67 -20 67 -21 49 -40 -19 -18 -20
-18 -87 2 -67 20 -68 21 -51 40 9 10 18 19 19 19 2 0 33 -9 70 -21z m248 -1
c51 -12 56 -18 31 -39 -13 -11 -27 -10 -82 4 -36 10 -68 20 -71 22 -10 10 35
35 54 30 11 -3 41 -11 68 -17z m220 5 c58 -16 58 -16 39 -35 -18 -19 -21 -19
-78 -3 -93 26 -89 24 -68 40 25 19 36 18 107 -2z m-2650 -30 c47 -24 48 -25
31 -44 -23 -26 -34 -24 -106 12 l-62 31 25 19 c27 21 40 18 112 -18z m742 11
l65 -26 -26 -20 -25 -20 -65 27 c-35 15 -64 30 -64 33 0 6 33 31 42 32 4 0 37
-12 73 -26z m-4205 7 c0 -10 -69 -25 -77 -17 -3 3 10 9 28 15 45 12 49 13 49
2z m118 -36 c12 -25 22 -47 22 -49 0 -2 -16 -6 -36 -8 -33 -4 -37 -1 -55 35
-11 21 -19 41 -17 43 4 4 50 22 59 23 3 1 15 -19 27 -44z m83 9 c18 -30 19
-38 8 -45 -27 -17 -50 -4 -69 39 l-19 42 29 0 c22 0 33 -8 51 -36z m4226 11
c37 -14 68 -27 70 -29 2 -2 -8 -11 -22 -20 -25 -17 -29 -16 -97 10 l-71 27 24
18 c13 10 25 19 26 19 2 0 33 -11 70 -25z m2276 8 c34 -9 64 -18 66 -20 2 -1
-4 -12 -13 -22 -14 -15 -23 -18 -44 -11 -15 5 -47 14 -70 20 -43 11 -43 12
-26 31 21 23 11 23 87 2z m-6446 1 c31 -8 35 -30 9 -42 -20 -9 -25 -6 -40 19
-18 31 -13 35 31 23z m3430 -27 c29 -12 53 -25 53 -29 0 -4 -11 -15 -24 -23
-23 -15 -28 -14 -93 15 l-68 31 24 20 c26 21 27 21 108 -14z m970 8 c37 -14
68 -27 70 -29 2 -2 -8 -11 -22 -20 -25 -17 -29 -16 -95 10 l-69 27 22 18 c12
10 23 18 24 19 2 0 33 -11 70 -25z m1838 4 c28 -7 52 -14 54 -15 8 -7 -31 -43
-42 -39 -7 2 -38 11 -71 20 -57 16 -58 17 -40 36 9 10 24 17 33 15 9 -3 39
-10 66 -17z m-7210 1 c3 -5 1 -10 -4 -10 -6 0 -11 5 -11 10 0 6 2 10 4 10 3 0
8 -4 11 -10z m5595 -10 c30 -12 61 -23 69 -25 9 -4 7 -10 -10 -24 -23 -19 -25
-19 -87 4 -77 28 -81 31 -56 50 24 18 19 19 84 -5z m1393 0 c31 -7 57 -16 57
-20 0 -4 -8 -14 -18 -23 -16 -15 -23 -15 -85 4 -37 11 -67 23 -67 26 0 10 35
33 45 29 6 -2 36 -9 68 -16z m-6373 0 c0 -5 -4 -10 -9 -10 -5 0 -24 -2 -42 -5
l-34 -5 30 14 c36 18 55 20 55 6z m130 -38 c15 -38 15 -38 -27 -46 -28 -7 -33
-4 -47 23 -22 42 -21 47 17 58 37 11 39 10 57 -35z m3883 20 l59 -27 -24 -22
-23 -21 -64 29 c-79 36 -79 36 -55 54 26 20 39 18 107 -13z m1216 7 c63 -21
63 -22 43 -41 -20 -20 -20 -20 -88 2 -83 27 -84 28 -60 46 26 18 31 18 105 -7z
m225 -2 c67 -23 67 -23 46 -42 -20 -18 -22 -18 -91 4 -69 22 -70 23 -53 42 21
23 16 24 98 -4z m230 0 c67 -23 67 -23 46 -42 -20 -18 -22 -18 -91 4 -69 22
-70 23 -53 42 21 23 16 24 98 -4z m229 2 c70 -21 70 -21 50 -41 -20 -19 -20
-19 -92 2 -70 22 -71 23 -55 41 21 23 12 23 97 -2z m233 4 c60 -16 63 -18 47
-35 -20 -22 -32 -22 -102 -1 -70 21 -69 20 -45 38 24 18 23 18 100 -2z m-6498
-21 c14 -22 14 -22 -32 -22 -25 0 -46 3 -46 6 0 10 45 43 54 41 5 -2 16 -13
24 -25z m4584 1 c37 -16 68 -30 68 -33 -1 -3 -11 -13 -24 -22 -23 -17 -27 -16
-87 9 -35 15 -66 28 -68 30 -5 3 30 43 37 43 3 0 36 -12 74 -27z m-3754 -13
c27 -37 27 -39 0 -33 -22 5 -57 40 -58 56 0 19 39 4 58 -23z m2998 4 c33 -15
61 -29 63 -31 3 -1 -6 -14 -19 -28 l-23 -24 -70 36 -71 35 23 19 c29 24 27 24
97 -7z m1054 -34 c0 -3 -11 -13 -24 -22 -23 -17 -27 -16 -87 8 -35 14 -66 28
-69 31 -3 3 5 13 17 23 22 17 25 17 93 -8 38 -15 70 -29 70 -32z m-4494 4 c20
-41 10 -54 -38 -54 -19 0 -31 9 -47 36 -12 20 -21 38 -19 39 7 7 74 22 80 18
4 -2 15 -20 24 -39z m3722 -11 c16 -7 15 -13 -5 -35 -21 -23 -18 -23 -98 13
l-67 30 22 24 22 24 57 -26 c31 -13 62 -27 69 -30z m1002 -4 c0 -4 -10 -13
-23 -22 -21 -13 -28 -12 -87 11 -36 14 -67 27 -70 29 -3 3 6 12 19 22 23 17
26 17 92 -8 38 -14 69 -29 69 -32z m1998 45 c32 -9 59 -18 61 -20 2 -2 -3 -12
-13 -23 -17 -18 -18 -18 -84 1 -79 24 -78 23 -62 43 16 19 29 19 98 -1z
m-6344 -9 c6 -16 -10 -20 -39 -9 -13 5 -14 8 -3 15 20 13 35 11 42 -6z m4559
-30 c23 -10 21 -19 -7 -34 -20 -11 -33 -10 -87 10 -35 12 -66 24 -69 26 -3 3
6 13 19 23 24 17 26 17 75 0 28 -10 59 -21 69 -25z m1386 -21 l-20 -21 -67 20
c-37 11 -69 21 -71 23 -2 2 3 12 13 22 16 19 18 19 91 -2 l74 -21 -20 -21z
m176 50 c36 -9 65 -20 65 -24 0 -4 -8 -14 -17 -22 -16 -14 -26 -13 -91 5 -69
19 -72 21 -56 39 21 22 19 22 99 2z m-5997 -10 c24 -17 29 -34 10 -34 -14 1
-54 50 -41 50 5 0 19 -7 31 -16z m3397 -15 l67 -30 -22 -24 -22 -23 -66 29
c-37 17 -69 32 -72 35 -3 4 37 42 46 44 1 0 32 -14 69 -31z m1223 9 c34 -13
62 -26 62 -29 0 -3 -8 -13 -19 -23 -17 -16 -22 -15 -90 10 -69 26 -71 27 -55
45 22 24 26 24 102 -3z m232 -3 c70 -22 75 -27 51 -49 -19 -17 -23 -17 -88 4
-37 13 -70 24 -72 26 -8 7 33 45 43 41 6 -2 36 -12 66 -22z m293 -24 c4 -4 -1
-15 -12 -25 -19 -17 -23 -17 -88 4 -37 13 -70 24 -72 26 -2 2 3 12 13 23 17
18 18 18 84 -1 37 -11 70 -23 75 -27z m179 21 c32 -9 58 -20 58 -23 0 -3 -8
-13 -18 -22 -17 -15 -23 -15 -88 5 -38 12 -71 24 -73 25 -11 7 35 43 48 38 8
-3 41 -14 73 -23z m220 7 l70 -22 -21 -20 -21 -21 -71 23 c-68 22 -70 23 -53
42 21 23 12 23 96 -2z m-6153 -25 c12 -19 21 -37 21 -40 0 -2 -20 -4 -44 -4
-38 0 -48 4 -65 29 -26 36 -26 39 2 44 55 11 65 7 86 -29z m-359 16 c13 -8 13
-10 -2 -10 -9 0 -20 5 -23 10 -8 13 5 13 25 0z m4599 -16 c34 -15 61 -30 61
-34 0 -4 -9 -15 -19 -24 -21 -19 -9 -21 -127 30 -35 15 -36 16 -18 35 22 25
31 24 103 -7z m-4477 -1 c10 -9 18 -20 18 -25 0 -14 -62 2 -89 23 l-24 19 38
0 c22 0 46 -7 57 -17z m60 1 c-22 -15 -42 -12 -42 7 0 5 15 9 32 9 32 0 32 0
10 -16z m614 -25 c14 -22 24 -43 21 -45 -2 -2 -17 -6 -33 -10 -27 -5 -31 -2
-52 40 -12 26 -22 49 -22 51 0 3 13 5 30 5 24 0 35 -8 56 -41z m4029 15 c36
-14 65 -29 65 -34 0 -4 -9 -15 -19 -24 -18 -16 -22 -16 -82 9 -85 36 -83 34
-63 56 22 24 21 24 99 -7z m2313 1 c66 -19 72 -25 46 -46 -13 -11 -27 -10 -82
4 -36 10 -68 19 -70 21 -8 9 20 47 32 43 7 -3 40 -13 74 -22z m-6892 -2 c21
-28 17 -33 -24 -33 -51 0 -58 9 -25 32 34 22 33 22 49 1z m634 -8 c15 -28 14
-30 -16 -39 -17 -5 -26 0 -42 29 l-21 35 33 0 c25 0 36 -6 46 -25z m3191 -10
l70 -36 -24 -19 c-14 -11 -27 -20 -30 -20 -3 0 -35 14 -73 30 l-67 31 23 24
c13 14 25 25 27 25 2 0 35 -16 74 -35z m989 9 l72 -27 -24 -24 -24 -24 -50 21
c-27 12 -60 26 -74 31 l-25 11 24 19 c13 10 25 19 27 19 1 0 35 -12 74 -26z
m1917 -18 c2 -1 -4 -12 -12 -23 l-15 -21 -73 20 c-39 11 -74 22 -76 24 -2 2 4
12 13 23 17 19 19 19 89 -1 40 -11 73 -21 74 -22z m-6267 -6 c24 -47 20 -60
-19 -60 -21 0 -32 8 -49 39 -26 47 -27 48 -4 54 41 11 52 6 72 -33z m233 30
c8 0 8 -3 0 -11 -13 -13 -43 -5 -43 12 0 6 7 8 16 5 9 -3 21 -6 27 -6z m4334
-8 c26 -11 56 -22 67 -26 18 -6 18 -7 1 -26 -23 -25 -26 -25 -109 6 l-69 27
24 18 c30 23 28 23 86 1z m312 -38 c3 -3 -4 -14 -15 -24 -20 -20 -20 -20 -92
6 -40 15 -72 30 -72 35 0 4 9 14 21 23 19 13 28 12 88 -11 36 -13 68 -27 70
-29z m1104 31 c31 -9 57 -19 57 -22 0 -4 -7 -14 -16 -24 -14 -16 -18 -16 -76
2 -97 29 -93 27 -73 49 10 11 25 18 34 16 9 -3 42 -12 74 -21z m-5627 -12 c-7
-7 -26 7 -26 19 0 6 6 6 15 -2 9 -7 13 -15 11 -17z m3252 -12 l53 -27 -24 -22
-24 -22 -69 31 c-38 17 -71 33 -73 35 -2 2 7 12 20 23 27 23 39 21 117 -18z
m1429 21 c26 -11 56 -22 67 -26 17 -6 16 -8 -7 -26 -24 -19 -25 -19 -78 -1
-97 34 -92 31 -73 52 21 24 31 24 91 1z m245 -4 c37 -12 68 -25 68 -28 0 -4
-9 -15 -20 -25 -19 -17 -22 -17 -82 4 -35 12 -69 24 -77 27 -9 3 -6 10 10 24
13 11 26 19 28 20 3 0 35 -10 73 -22z m230 0 c37 -12 68 -25 68 -28 0 -4 -8
-14 -18 -23 -19 -17 -35 -14 -151 28 -11 4 -10 9 4 25 22 24 15 25 97 -2z
m223 7 c80 -24 77 -22 63 -45 -16 -25 -15 -25 -100 1 -68 20 -69 21 -52 40 21
23 25 23 89 4z m-5825 -36 c12 -23 20 -43 17 -45 -2 -2 -17 -6 -33 -10 -27 -5
-33 -1 -57 35 -20 30 -24 43 -15 46 13 4 46 11 60 14 4 0 17 -17 28 -40z
m3943 -6 l38 -16 -22 -23 c-25 -27 -30 -26 -116 13 l-54 25 22 24 c21 22 23
23 58 8 20 -9 53 -23 74 -31z m-3516 2 c38 -38 40 -47 8 -39 -22 6 -72 74 -54
74 6 0 27 -16 46 -35z m-528 -9 c12 -18 21 -36 21 -40 0 -3 -17 -6 -39 -6 -31
0 -42 5 -56 26 -21 32 -11 43 47 53 3 0 16 -14 27 -33z m470 5 c16 -24 16 -24
-14 -17 -37 9 -50 21 -40 36 10 17 36 8 54 -19z m3776 2 c36 -15 65 -30 65
-33 0 -4 -9 -15 -20 -25 -21 -19 -17 -20 -134 30 l-40 17 25 19 c31 24 27 24
104 -8z m2323 2 c34 -10 62 -20 62 -24 0 -3 -6 -14 -13 -23 -12 -16 -18 -15
-88 4 -41 12 -76 23 -78 25 -8 6 33 44 44 39 6 -2 39 -12 73 -21z m-6913 5 c8
-13 -5 -13 -25 0 -13 8 -13 10 2 10 9 0 20 -4 23 -10z m4823 -16 c34 -15 62
-30 62 -34 0 -4 -8 -15 -19 -24 -18 -16 -22 -15 -87 10 -38 15 -71 29 -73 31
-7 5 31 43 43 43 6 0 39 -12 74 -26z m286 -28 c19 -7 19 -7 -2 -29 l-22 -22
-53 19 c-28 10 -63 23 -76 28 l-24 9 22 23 23 24 56 -23 c31 -12 66 -25 76
-29z m1593 25 l55 -16 -18 -23 -19 -22 -70 21 c-38 12 -71 22 -73 24 -2 2 2
12 9 24 14 22 16 22 116 -8z m-6582 -1 c10 -11 16 -22 14 -24 -8 -9 -55 6 -79
25 l-25 19 36 0 c23 0 42 -7 54 -20z m75 15 c0 -2 -9 -9 -19 -14 -14 -8 -22
-7 -31 4 -11 13 -8 15 19 15 17 0 31 -2 31 -5z m545 -5 c4 -6 -6 -10 -22 -10
-22 0 -25 2 -13 10 19 12 27 12 35 0z m4553 -20 c34 -12 62 -26 62 -30 0 -4
-8 -15 -19 -24 -17 -16 -22 -15 -87 9 -37 14 -70 28 -73 30 -7 8 32 46 43 42
6 -2 39 -14 74 -27z m991 -16 c12 -4 10 -9 -7 -26 l-21 -22 -76 24 -75 24 21
22 21 22 61 -20 c34 -11 68 -22 76 -24z m192 17 c47 -16 48 -16 31 -38 l-17
-21 -65 19 c-36 11 -71 22 -79 25 -11 3 -10 8 5 25 20 22 37 20 125 -10z
m-6248 -29 c-48 -5 -63 12 -27 31 26 13 29 13 45 -7 17 -21 17 -21 -18 -24z
m3830 17 c77 -39 74 -35 52 -59 -23 -26 -26 -26 -107 12 l-68 31 21 24 c13 12
26 23 31 23 5 0 37 -14 71 -31z m1468 10 c35 -12 66 -23 67 -25 2 -1 -6 -12
-18 -24 -23 -23 -24 -22 -118 12 -51 19 -53 21 -36 39 21 24 26 24 105 -2z
m231 -1 c37 -12 68 -25 68 -28 0 -4 -9 -15 -20 -25 -19 -17 -22 -17 -95 10
-73 26 -75 28 -59 46 21 24 23 24 106 -3z m236 1 c34 -11 62 -23 62 -27 0 -3
-7 -13 -16 -23 -14 -16 -19 -16 -67 -2 -27 8 -61 19 -75 24 -24 9 -24 10 -7
29 22 25 27 25 103 -1z m-5053 0 c11 -17 -1 -21 -15 -4 -8 9 -8 15 -2 15 6 0
14 -5 17 -11z m3414 -55 c7 -7 -31 -44 -45 -44 -11 0 -112 44 -133 57 -3 2 6
14 18 27 l23 24 66 -30 c37 -17 69 -32 71 -34z m-3663 7 l21 -39 -21 -6 c-37
-10 -43 -7 -69 33 -29 44 -27 51 17 51 26 0 35 -7 52 -39z m79 13 c14 -22 15
-28 4 -35 -33 -21 -45 -12 -77 54 -2 4 10 7 26 7 21 0 35 -8 47 -26z m3755 -1
c36 -15 67 -28 69 -30 8 -6 -32 -43 -47 -43 -12 0 -127 46 -141 57 -7 5 31 43
43 43 6 0 40 -12 76 -27z m2333 4 l78 -23 -18 -22 -18 -21 -75 20 c-41 12 -77
23 -79 25 -3 3 29 45 33 44 1 0 36 -11 79 -23z m-6259 -27 c14 -22 26 -42 26
-45 0 -3 -16 -5 -35 -5 -28 0 -39 6 -60 38 l-25 37 22 7 c40 11 45 9 72 -32z
m246 30 c13 -9 13 -11 0 -20 -23 -15 -38 -12 -50 10 -9 17 -8 20 12 20 13 0
30 -5 38 -10z m3913 -16 c34 -14 64 -28 66 -30 2 -2 -4 -13 -14 -25 -22 -23
-37 -21 -123 17 l-57 25 25 19 c32 25 29 25 103 -6z m1883 -1 c35 -9 64 -20
64 -24 0 -3 -8 -13 -18 -22 -17 -15 -24 -15 -93 4 -40 12 -76 23 -78 25 -9 8
34 44 47 39 7 -3 42 -13 78 -22z m-5666 7 c0 -5 -2 -10 -4 -10 -3 0 -8 5 -11
10 -3 6 -1 10 4 10 6 0 11 -4 11 -10z m4026 -16 l66 -27 -24 -24 c-23 -22 -26
-23 -59 -9 -124 51 -114 44 -94 66 23 26 32 25 111 -6z m232 -4 c34 -12 62
-26 62 -30 0 -4 -9 -15 -20 -25 -18 -17 -22 -16 -95 10 l-76 28 23 24 c12 13
27 22 33 20 5 -3 38 -14 73 -27z m996 -21 c6 -5 3 -16 -8 -28 -17 -19 -18 -18
-96 7 l-80 26 21 22 20 21 67 -20 c37 -11 71 -23 76 -28z m173 28 c72 -22 72
-22 55 -44 l-17 -22 -75 21 c-41 12 -77 23 -79 25 -5 4 30 43 38 43 3 0 38
-10 78 -23z m-6227 3 c8 -5 11 -10 5 -10 -5 0 -17 5 -25 10 -8 5 -10 10 -5 10
6 0 17 -5 25 -10z m350 -57 c0 -23 -55 -14 -80 12 -26 27 -25 30 10 44 21 8
28 5 47 -17 13 -15 23 -33 23 -39z m4940 45 c36 -12 67 -24 69 -25 3 -2 -5
-13 -17 -26 l-22 -22 -53 19 c-109 39 -102 34 -82 56 23 25 26 25 105 -2z
m232 0 c37 -12 68 -25 68 -28 0 -4 -9 -15 -19 -24 -19 -17 -23 -17 -88 4 -88
29 -87 29 -67 51 21 24 23 24 106 -3z m240 0 c37 -12 68 -25 68 -28 0 -4 -9
-15 -19 -24 -19 -17 -23 -17 -88 4 -88 29 -87 29 -67 51 21 24 23 24 106 -3z
m-5648 -4 c16 -15 21 -34 11 -34 -14 0 -73 29 -79 39 -11 17 50 13 68 -5z m73
0 c-27 -15 -47 -12 -47 7 0 5 17 9 38 9 l37 -1 -28 -15z m592 -15 c13 -17 20
-33 17 -36 -12 -12 -53 8 -64 32 -16 34 -15 35 6 35 10 0 28 -14 41 -31z
m3276 -10 l67 -30 -18 -22 c-10 -12 -20 -24 -21 -26 -1 -2 -37 11 -78 29 l-76
33 22 23 c13 13 26 24 29 24 4 0 38 -14 75 -31z m-3805 -19 c0 -4 -16 -4 -35
-2 -40 5 -45 15 -13 29 18 8 26 6 35 -6 7 -9 13 -18 13 -21z m460 20 c9 -17 8
-20 -12 -20 -30 0 -52 15 -44 29 11 18 44 13 56 -9z m120 10 c11 -6 24 -19 30
-30 18 -34 -23 -24 -43 10 -19 32 -17 36 13 20z m3459 -22 l72 -31 -24 -24
-24 -25 -64 27 c-35 15 -68 31 -73 36 -9 8 19 49 34 49 4 0 40 -14 79 -32z
m2421 -18 c0 -3 -7 -13 -14 -23 -14 -18 -17 -17 -94 4 -80 22 -80 22 -66 44
l15 23 79 -21 c44 -12 80 -24 80 -27z m-2193 13 c38 -15 70 -29 72 -30 3 -2
-6 -14 -20 -28 l-24 -24 -70 30 c-38 17 -71 32 -74 34 -5 6 29 45 40 45 5 0
39 -12 76 -27z m1896 1 c37 -10 67 -21 67 -25 0 -3 -9 -14 -19 -23 -18 -17
-23 -16 -93 4 -40 12 -75 24 -77 26 -8 7 32 45 43 40 6 -2 41 -12 79 -22z
m-5783 6 c0 -5 -12 -10 -26 -10 -14 0 -23 4 -19 10 3 6 15 10 26 10 10 0 19
-4 19 -10z m4133 -19 l68 -27 -25 -23 -25 -23 -70 27 c-39 16 -71 30 -71 33 0
11 33 42 44 41 6 0 42 -12 79 -28z m296 -28 c8 -6 -32 -43 -45 -43 -8 0 -43
12 -79 26 l-66 27 22 23 21 23 72 -26 c39 -15 73 -28 75 -30z m948 4 c2 -2 -4
-14 -14 -26 l-18 -22 -78 27 c-50 17 -75 30 -70 37 19 34 23 35 100 11 41 -13
77 -25 80 -27z m161 32 c39 -12 72 -25 72 -29 0 -3 -6 -14 -13 -24 -13 -17
-16 -17 -88 4 -41 12 -75 23 -77 25 -5 5 18 45 26 45 4 0 40 -10 80 -21z
m-948 -9 c30 -12 61 -23 69 -26 11 -3 9 -10 -8 -28 l-23 -24 -71 26 c-40 14
-74 27 -76 29 -7 5 31 43 43 43 6 0 36 -9 66 -20z m236 0 c32 -11 65 -23 73
-25 11 -4 9 -11 -9 -30 l-22 -24 -72 26 c-39 15 -72 27 -74 29 -7 5 23 44 34
44 6 0 37 -9 70 -20z m246 -2 c37 -12 68 -24 68 -27 0 -4 -7 -15 -15 -25 -15
-19 -16 -19 -72 -2 -110 35 -108 34 -88 56 22 25 24 25 107 -2z m-5527 -16
c-3 -3 -11 0 -18 7 -9 10 -8 11 6 5 10 -3 15 -9 12 -12z m484 -43 c-18 -5 -29
0 -46 20 l-23 26 23 6 c16 5 28 0 46 -20 l24 -26 -24 -6z m-364 20 c13 -12 15
-19 6 -19 -20 0 -81 31 -81 41 0 15 53 -1 75 -22z m80 22 c3 -6 -4 -15 -15
-21 -16 -9 -25 -8 -37 2 -14 11 -13 13 8 19 35 10 37 10 44 0z m58 2 c-7 -2
-19 -2 -25 0 -7 3 -2 5 12 5 14 0 19 -2 13 -5z m152 -19 c19 -29 19 -29 -17
-38 -22 -5 -30 -1 -47 23 -16 22 -18 31 -9 34 31 13 57 6 73 -19z m160 6 c0
-19 -32 -25 -50 -10 -24 20 -17 31 18 28 20 -2 32 -8 32 -18z m193 0 c7 -11 9
-20 4 -20 -10 0 -32 22 -32 32 0 15 15 8 28 -12z m3315 -27 c42 -17 43 -20 18
-50 l-19 -23 -73 32 c-41 18 -76 33 -78 35 -3 2 6 14 19 28 22 23 24 24 59 9
20 -9 53 -22 74 -31z m-3456 31 c-3 -3 -12 -4 -19 -1 -8 3 -5 6 6 6 11 1 17
-2 13 -5z m3653 -24 c41 -17 76 -33 78 -35 8 -7 -29 -45 -44 -45 -10 0 -130
47 -142 56 -3 2 29 52 34 54 1 0 34 -14 74 -30z m1971 -23 c0 -4 -4 -15 -9
-24 -9 -15 -15 -14 -78 1 -94 23 -103 29 -81 54 17 19 19 19 93 -2 41 -12 75
-25 75 -29z m172 36 c67 -17 80 -30 53 -52 -11 -9 -25 -9 -58 -1 -24 6 -60 16
-81 21 -38 10 -38 11 -21 30 21 23 23 23 107 2z m-6101 -10 c26 -23 22 -33
-10 -33 -29 0 -68 31 -55 43 12 12 46 7 65 -10z m4195 -9 c38 -15 71 -30 76
-34 4 -3 -3 -16 -16 -28 l-23 -22 -78 31 -77 32 22 23 c13 13 24 24 26 24 1 0
33 -12 70 -26z m1436 0 c37 -10 67 -21 67 -24 0 -4 -6 -15 -14 -25 -13 -18
-16 -18 -95 5 -44 12 -81 25 -81 28 0 12 35 42 44 39 6 -2 41 -12 79 -23z
m-5265 -20 l23 -36 -33 7 c-29 7 -57 29 -58 47 0 5 14 11 40 17 3 0 15 -15 28
-35z m35 25 c23 -12 56 -48 57 -61 0 -19 -41 -5 -58 20 -39 56 -39 61 1 41z
m4038 -13 c35 -13 65 -28 66 -33 2 -5 -5 -17 -16 -27 -19 -18 -23 -17 -93 10
-40 15 -75 29 -77 31 -7 5 32 43 44 43 7 0 41 -11 76 -24z m237 -2 c39 -15 72
-30 72 -34 0 -4 -9 -15 -20 -25 -18 -17 -22 -16 -95 10 -41 15 -75 30 -75 33
0 8 32 42 39 42 3 0 39 -12 79 -26z m244 -3 l68 -22 -16 -25 c-9 -13 -20 -24
-24 -24 -9 0 -143 50 -149 56 -7 7 32 45 43 41 6 -2 41 -14 78 -26z m219 8
c35 -11 70 -23 78 -25 11 -4 9 -10 -8 -28 l-22 -24 -79 26 -78 26 16 23 c10
12 20 23 23 23 3 0 34 -9 70 -21z m256 -2 l72 -22 -18 -23 -18 -24 -74 22
c-93 28 -94 28 -73 51 21 24 23 24 111 -4z m-5476 -4 c13 -15 11 -16 -11 -10
-14 4 -32 7 -40 8 -10 0 -8 3 5 9 29 12 31 12 46 -7z m369 -14 c11 -19 9 -20
-21 -17 -36 3 -50 24 -22 31 31 8 32 8 43 -14z m-76 -8 c6 -10 -33 -23 -46
-15 -4 3 -8 9 -8 15 0 12 47 12 54 0z m286 -1 c8 -5 11 -12 8 -16 -10 -9 -38
3 -38 16 0 12 10 13 30 0z m5575 -15 c51 -15 54 -18 42 -36 -14 -23 -34 -22
-130 6 -57 17 -58 17 -40 37 19 21 31 21 128 -7z m-6102 -16 c16 -17 16 -19 1
-19 -18 0 -74 31 -74 41 0 13 55 -4 73 -22z m162 21 c7 -11 -39 -25 -54 -15
-6 3 -11 10 -11 16 0 12 57 12 65 -1z m3752 -11 c26 -11 59 -25 72 -30 l25
-10 -26 -25 -25 -25 -77 32 -77 32 22 24 c27 28 26 28 86 2z m311 -70 l-20
-27 -77 31 c-42 17 -78 32 -80 34 -3 2 6 14 18 27 l22 24 78 -31 78 -31 -19
-27z m1448 39 c2 -2 -3 -14 -11 -25 l-15 -21 -74 22 c-41 12 -78 25 -82 29 -4
4 1 15 10 26 17 19 19 19 93 -4 41 -13 76 -25 79 -27z m168 32 c38 -11 70 -21
72 -23 2 -2 -3 -12 -11 -24 l-14 -20 -73 19 c-84 23 -96 31 -78 53 16 19 21
19 104 -5z m-5761 -4 c12 -31 -31 -36 -58 -6 -18 20 -17 20 17 20 22 0 38 -6
41 -14z m4322 -12 c38 -15 72 -28 74 -30 2 -2 -4 -15 -13 -29 l-16 -25 -58 22
c-31 11 -67 25 -80 29 -23 9 -23 9 -5 34 10 13 20 25 23 25 2 0 36 -12 75 -26z
m245 -4 c36 -13 66 -25 68 -26 2 -1 -4 -14 -13 -27 l-16 -25 -52 18 c-114 40
-110 36 -91 65 9 14 22 24 28 22 6 -2 40 -15 76 -27z m243 -1 c37 -13 67 -25
67 -28 0 -4 -7 -15 -15 -26 -14 -17 -20 -18 -58 -8 -23 7 -59 19 -80 28 -37
15 -37 16 -21 41 9 13 22 23 28 20 6 -2 41 -15 79 -27z m240 2 c37 -13 67 -26
67 -30 0 -4 -8 -15 -18 -25 -18 -15 -23 -15 -88 5 -38 11 -73 25 -78 30 -12
10 23 51 38 46 6 -2 41 -14 79 -26z m231 7 c39 -12 72 -23 74 -24 9 -5 -25
-44 -38 -44 -15 0 -141 39 -149 46 -5 4 29 44 37 44 3 0 37 -10 76 -22z
m-5086 -18 c11 -18 10 -20 -18 -20 -16 0 -30 2 -30 4 0 2 -3 11 -6 20 -9 24
38 21 54 -4z m80 3 c6 -19 -43 -16 -59 3 -11 14 -9 15 21 12 18 -2 35 -9 38
-15z m72 1 c0 -2 -11 -4 -25 -4 -14 0 -25 4 -25 9 0 4 11 6 25 3 14 -2 25 -6
25 -8z m141 -1 c12 -15 12 -16 -4 -10 -10 4 -23 7 -28 7 -6 0 -7 5 -4 10 9 15
21 12 36 -7z m-371 -8 c11 -13 7 -15 -24 -15 -35 0 -49 13 -23 23 22 9 34 7
47 -8z m431 -11 c21 -24 22 -26 3 -16 -25 13 -50 42 -37 42 5 0 20 -12 34 -26z
m-88 -27 c33 -38 34 -51 5 -42 -22 7 -77 62 -78 78 0 17 46 -6 73 -36z m5485
24 c41 -11 76 -21 78 -23 2 -3 -2 -13 -10 -23 -13 -18 -16 -18 -95 0 -79 18
-93 29 -69 53 15 15 9 15 96 -7z m-5911 3 c-3 -3 -12 -4 -19 -1 -8 3 -5 6 6 6
11 1 17 -2 13 -5z m373 -56 c0 -5 -11 -8 -24 -8 -16 0 -32 11 -45 29 l-21 30
22 3 c21 4 67 -33 68 -54z m5300 41 c41 -11 77 -22 79 -25 2 -2 -4 -12 -13
-23 -17 -19 -19 -19 -94 1 -42 12 -78 22 -80 24 -6 4 18 44 26 44 4 0 41 -9
82 -21z m-1668 -24 l67 -27 -17 -24 c-9 -13 -21 -24 -27 -24 -9 0 -145 50
-154 57 -8 6 43 54 54 49 5 -2 40 -16 77 -31z m1200 5 l68 -21 -17 -25 c-9
-14 -21 -23 -28 -20 -7 2 -45 14 -84 26 l-71 21 17 24 c10 13 25 22 33 20 8
-3 45 -14 82 -25z m234 8 c41 -11 74 -24 74 -28 0 -4 -8 -14 -18 -23 -16 -15
-23 -15 -87 4 -107 31 -100 27 -80 49 22 25 21 25 111 -2z m-5164 -5 c24 -22
23 -33 -4 -33 -22 0 -58 26 -58 42 0 14 43 9 62 -9z m216 1 c12 -8 20 -20 17
-25 -11 -16 -32 -9 -49 16 -20 30 -4 34 32 9z m3754 -12 l66 -27 -20 -24 -19
-25 -70 25 c-95 32 -97 34 -75 58 24 27 36 26 118 -7z m248 -5 l59 -22 -19
-25 -19 -25 -71 25 c-96 33 -98 35 -75 60 21 24 31 23 125 -13z m223 7 c78
-26 78 -26 60 -48 -10 -11 -19 -23 -20 -25 -3 -5 -163 50 -163 57 0 8 32 42
39 42 3 0 41 -12 84 -26z m241 4 c39 -12 73 -24 75 -25 3 -2 -5 -13 -16 -25
l-22 -21 -78 23 c-43 12 -80 24 -82 26 -6 6 31 44 42 44 6 0 42 -10 81 -22z
m-4917 -8 c22 -17 23 -20 7 -20 -11 0 -30 9 -44 20 -21 17 -22 20 -7 20 11 0
30 -9 44 -20z m92 -4 c20 -22 21 -24 5 -30 -19 -7 -64 20 -72 42 -7 22 44 13
67 -12z m72 8 c10 -13 10 -17 -2 -25 -21 -13 -25 -11 -43 16 -16 24 -16 25 8
25 13 0 29 -7 37 -16z m5657 -23 c41 -11 76 -22 79 -24 2 -3 -1 -14 -8 -25
-12 -19 -13 -19 -93 1 -45 11 -82 21 -84 23 -5 3 22 44 28 44 3 0 38 -9 78
-19z m-225 -17 c37 -9 67 -19 67 -23 0 -3 -7 -14 -14 -24 -13 -17 -17 -17 -99
4 l-85 23 15 23 c9 14 22 22 32 19 9 -3 46 -13 84 -22z m-5043 -9 c15 -16 19
-25 10 -25 -15 0 -50 29 -50 42 0 15 16 8 40 -17z m4803 -1 c37 -10 67 -21 67
-25 0 -3 -9 -14 -19 -23 -18 -17 -23 -16 -98 4 -43 12 -80 24 -82 26 -9 9 34
45 49 41 8 -3 45 -13 83 -23z m-4863 6 c0 -5 -2 -10 -4 -10 -3 0 -8 5 -11 10
-3 6 -1 10 4 10 6 0 11 -4 11 -10z m3707 -48 c9 -5 7 -13 -6 -31 l-19 -25 -78
29 c-44 15 -81 30 -83 32 -3 2 6 14 18 27 l23 24 66 -25 c37 -13 72 -28 79
-31z m247 -3 c2 -2 -3 -15 -13 -28 l-18 -24 -79 28 c-44 16 -81 30 -83 32 -3
2 6 14 18 27 l23 24 73 -27 c41 -15 76 -29 79 -32z m244 5 c2 -1 -4 -14 -13
-27 l-16 -25 -72 24 c-40 13 -78 26 -86 29 -11 4 -9 11 8 29 l23 24 76 -25
c43 -14 78 -27 80 -29z m187 23 l63 -22 -18 -23 -19 -23 -87 26 -86 26 23 25
c15 16 29 22 42 18 10 -3 47 -16 82 -27z m233 9 l73 -23 -19 -22 -18 -23 -79
22 c-44 12 -81 23 -83 25 -8 7 24 45 38 45 8 0 48 -11 88 -24z m-4845 7 c-7
-2 -21 -2 -30 0 -10 3 -4 5 12 5 17 0 24 -2 18 -5z m191 -36 c31 -41 32 -47 7
-47 -18 0 -71 56 -71 73 0 20 43 2 64 -26z m-295 -1 c20 -22 21 -24 5 -20 -11
3 -30 14 -44 24 -24 18 -24 20 -4 20 11 0 31 -11 43 -24z m226 -3 c29 -34 31
-43 7 -43 -17 0 -72 48 -72 63 0 18 43 4 65 -20z m153 -13 c11 -18 10 -20 -9
-20 -19 0 -58 35 -59 52 0 14 56 -13 68 -32z m87 20 c10 -11 14 -20 8 -20 -5
0 -18 9 -28 20 -10 11 -14 20 -8 20 5 0 18 -9 28 -20z m5226 -22 c5 -2 3 -13
-6 -24 l-14 -22 -83 20 c-45 10 -84 21 -87 23 -2 3 3 13 13 24 16 18 19 18 92
0 42 -10 80 -19 85 -21z m-5611 7 c22 -24 23 -25 3 -25 -11 0 -30 11 -43 25
-22 24 -23 25 -3 25 11 0 30 -11 43 -25z m78 -5 c21 -28 21 -30 4 -30 -10 0
-31 14 -47 30 l-29 30 25 0 c16 0 33 -11 47 -30z m5292 -26 c0 -28 -28 -37
-77 -25 -132 33 -125 29 -106 55 l17 22 83 -20 c46 -11 83 -25 83 -32z m-253
-3 c8 -4 8 -11 -3 -25 -14 -19 -16 -19 -86 -3 -95 23 -102 27 -83 54 l15 21
73 -20 c39 -11 77 -23 84 -27z m-4767 23 c0 -2 -7 -4 -15 -4 -8 0 -15 4 -15
10 0 5 7 7 15 4 8 -4 15 -8 15 -10z m4457 -10 l85 -26 -22 -23 c-20 -22 -23
-22 -68 -9 -26 8 -64 19 -85 25 l-37 10 17 24 c10 13 20 25 22 25 2 0 41 -12
88 -26z m-719 -17 c34 -12 62 -25 62 -28 0 -4 -8 -17 -17 -28 l-18 -22 -70 26
c-38 14 -76 28 -84 31 -11 3 -9 10 10 30 14 15 29 22 39 19 8 -4 43 -16 78
-28z m247 0 l64 -22 -19 -25 -18 -24 -77 24 c-42 13 -79 28 -82 33 -9 15 29
48 50 41 10 -3 47 -16 82 -27z m229 11 c39 -12 72 -23 74 -24 2 -1 -4 -13 -13
-27 l-16 -25 -82 25 c-45 14 -84 27 -86 29 -6 6 31 44 42 44 6 0 42 -10 81
-22z m1006 -48 c0 -3 -6 -13 -13 -22 -12 -15 -19 -15 -97 3 -46 11 -85 21 -87
22 -1 2 4 12 12 24 l14 20 86 -20 c47 -12 85 -24 85 -27z m-5171 19 c11 -19
11 -21 -4 -15 -9 3 -20 6 -25 6 -4 0 -10 7 -14 15 -9 24 27 18 43 -6z m-72 5
c-3 -3 -12 -4 -19 -1 -8 3 -5 6 6 6 11 1 17 -2 13 -5z m138 -24 c16 -16 24
-30 19 -30 -12 0 -35 18 -53 43 -22 28 3 19 34 -13z m4783 11 c41 -11 76 -21
78 -24 2 -2 -5 -12 -15 -21 -18 -17 -23 -17 -98 -1 -97 22 -98 23 -77 46 21
23 21 23 112 0z m-5123 1 c6 -4 18 -17 28 -29 18 -21 18 -21 -1 -16 -26 7 -71
53 -51 53 8 0 19 -4 24 -8z m90 -19 c29 -33 31 -45 8 -36 -22 7 -63 43 -63 55
0 18 32 6 55 -19z m83 -14 c22 -27 22 -29 5 -29 -17 0 -73 47 -73 62 0 15 48
-8 68 -33z m4703 19 c44 -11 79 -24 79 -28 0 -4 -8 -14 -18 -23 -17 -15 -24
-15 -98 5 -43 11 -80 22 -82 24 -6 4 23 44 32 44 5 0 44 -10 87 -22z m-4926 2
c8 -13 -5 -13 -25 0 -13 8 -13 10 2 10 9 0 20 -4 23 -10z m4477 -32 l37 -13
-18 -24 -18 -24 -74 22 c-41 12 -80 24 -88 27 -11 3 -9 10 8 28 25 26 34 25
153 -16z m204 20 c41 -11 74 -24 74 -27 0 -3 -7 -15 -15 -25 -14 -19 -16 -18
-97 4 -46 13 -85 25 -87 27 -6 4 31 43 41 43 6 0 43 -10 84 -22z m-4398 -4
c27 -19 28 -34 3 -34 -10 0 -26 11 -35 25 -19 30 -4 34 32 9z m3903 -5 c80
-27 84 -31 62 -58 l-18 -22 -83 26 c-82 26 -85 29 -59 63 13 16 23 15 98 -9z
m-3831 -9 c12 -8 11 -10 -7 -10 -12 0 -25 5 -28 10 -8 13 15 13 35 0z m5023
-8 c76 -17 77 -18 62 -38 -14 -21 -17 -21 -82 -8 -121 25 -114 22 -101 44 15
24 22 24 121 2z m-258 -13 c83 -21 84 -21 69 -43 l-14 -23 -89 21 -89 20 15
23 c8 13 17 23 20 23 2 0 42 -9 88 -21z m-4640 1 c3 -5 1 -10 -4 -10 -6 0 -11
5 -11 10 0 6 2 10 4 10 3 0 8 -4 11 -10z m4408 -17 c37 -9 67 -19 67 -22 0 -3
-7 -14 -15 -25 -14 -18 -16 -18 -104 4 l-90 22 17 24 c12 16 23 22 37 19 11
-3 50 -13 88 -22z m-4428 -14 c39 -35 47 -56 13 -38 -33 18 -72 69 -53 69 2 0
20 -14 40 -31z m4166 6 c79 -22 84 -27 62 -53 l-18 -20 -78 23 c-43 13 -81 26
-84 29 -9 9 29 47 42 42 6 -2 40 -12 76 -21z m-4496 5 c3 -5 2 -10 -4 -10 -5
0 -13 5 -16 10 -3 6 -2 10 4 10 5 0 13 -4 16 -10z m273 -10 c8 -13 9 -20 1
-20 -17 0 -49 20 -49 30 0 18 35 10 48 -10z m3980 -6 l84 -25 -22 -24 -22 -23
-71 20 c-98 28 -100 29 -81 56 8 12 18 22 22 22 3 0 44 -12 90 -26z m-4191 10
c-3 -3 -12 -4 -19 -1 -8 3 -5 6 6 6 11 1 17 -2 13 -5z m66 -1 c-7 -2 -19 -2
-25 0 -7 3 -2 5 12 5 14 0 19 -2 13 -5z m77 -2 c0 -5 -9 -7 -20 -4 -11 3 -20
7 -20 9 0 2 9 4 20 4 11 0 20 -4 20 -9z m4988 -18 c45 -9 82 -20 82 -23 0 -3
-6 -13 -13 -22 -12 -15 -19 -15 -83 -2 -127 26 -119 22 -99 44 22 24 12 24
113 3z m-245 -18 c42 -9 77 -20 77 -23 0 -3 -7 -13 -15 -23 -15 -16 -21 -16
-98 2 -45 10 -86 19 -90 19 -4 0 0 11 10 25 10 13 23 23 28 21 6 -2 45 -11 88
-21z m-4843 5 c0 -5 -4 -10 -9 -10 -6 0 -13 5 -16 10 -3 6 1 10 9 10 9 0 16
-4 16 -10z m70 -5 c10 -12 9 -15 -8 -15 -11 0 -25 7 -32 15 -10 12 -9 15 8 15
11 0 25 -7 32 -15z m230 0 c7 -8 8 -15 2 -15 -5 0 -15 7 -22 15 -7 8 -8 15 -2
15 5 0 15 -7 22 -15z m-162 -12 c5 -18 -10 -16 -34 2 -18 15 -18 15 5 13 14
-2 26 -9 29 -15z m62 -3 c12 -8 11 -10 -7 -10 -13 0 -23 5 -23 10 0 13 11 13
30 0z m-145 -30 c3 -5 2 -10 -4 -10 -5 0 -13 5 -16 10 -3 6 -2 10 4 10 5 0 13
-4 16 -10z m340 -10 c3 -5 2 -10 -4 -10 -5 0 -13 5 -16 10 -3 6 -2 10 4 10 5
0 13 -4 16 -10z"/>
</g>
</svg>
