<svg width="32" height="32" viewBox="0 0 32 32" fill="none" xmlns="http://www.w3.org/2000/svg">
<rect width="32" height="32" rx="16" fill="#101010"/>
<path d="M8 23.4076L9.14796 19.1392C8.22216 17.4764 7.92802 15.5361 8.31953 13.6743C8.71103 11.8125 9.76191 10.1541 11.2793 9.00346C12.7968 7.85277 14.6789 7.28697 16.5805 7.4099C18.4821 7.53283 20.2754 8.33623 21.6315 9.67269C22.9876 11.0091 23.8155 12.789 23.9632 14.6856C24.111 16.5823 23.5686 18.4685 22.4358 19.9982C21.3029 21.5279 19.6555 22.5984 17.7958 23.0133C15.9362 23.4282 13.989 23.1597 12.3116 22.257L8 23.4076ZM12.5195 20.6598L12.7862 20.8177C14.0011 21.5366 15.4202 21.8341 16.8222 21.6638C18.2242 21.4936 19.5304 20.865 20.5372 19.8763C21.544 18.8875 22.195 17.594 22.3886 16.1973C22.5821 14.8006 22.3075 13.3792 21.6075 12.1546C20.9074 10.93 19.8212 9.97104 18.5182 9.42707C17.2152 8.88311 15.7686 8.78474 14.4038 9.14729C13.0389 9.50984 11.8325 10.3129 10.9726 11.4314C10.1127 12.55 9.64754 13.921 9.64963 15.331C9.64849 16.5001 9.97236 17.6466 10.5852 18.6429L10.7524 18.9181L10.1106 21.3005L12.5195 20.6598Z" fill="white"/>
<path fill-rule="evenodd" clip-rule="evenodd" d="M18.9913 16.427C18.835 16.3012 18.652 16.2126 18.4562 16.168C18.2604 16.1234 18.057 16.1241 17.8614 16.1699C17.5677 16.2917 17.3778 16.7519 17.188 16.982C17.148 17.0372 17.0892 17.0759 17.0226 17.0908C16.956 17.1058 16.8863 17.096 16.8265 17.0632C15.751 16.6427 14.8495 15.8715 14.2684 14.8749C14.2188 14.8127 14.1954 14.7337 14.203 14.6546C14.2106 14.5755 14.2486 14.5024 14.3091 14.4508C14.5208 14.2415 14.6762 13.9824 14.761 13.6973C14.7799 13.3828 14.7077 13.0695 14.5531 12.7948C14.4336 12.4098 14.2062 12.0669 13.8978 11.8067C13.7387 11.7353 13.5623 11.7113 13.3899 11.7377C13.2175 11.7642 13.0564 11.8398 12.9261 11.9556C12.6999 12.1505 12.5203 12.3935 12.4006 12.6668C12.281 12.9401 12.2242 13.2367 12.2346 13.5348C12.2353 13.7022 12.2566 13.8689 12.2979 14.0311C12.4028 14.4209 12.5642 14.7934 12.7769 15.1366C12.9304 15.3995 13.0979 15.6541 13.2786 15.8991C13.866 16.7041 14.6042 17.3875 15.4525 17.9115C15.8782 18.1778 16.3331 18.3943 16.8084 18.5567C17.3021 18.7801 17.8471 18.8659 18.3857 18.8049C18.6926 18.7585 18.9833 18.6376 19.2323 18.4527C19.4814 18.2678 19.6811 18.0246 19.8139 17.7446C19.8919 17.5754 19.9156 17.3863 19.8817 17.2031C19.8003 16.8286 19.2986 16.6075 18.9913 16.427Z" fill="white"/>
</svg>
